<svg fill="none" height="185" viewBox="0 0 492 185" width="492" xmlns="http://www.w3.org/2000/svg" xmlns:xlink="http://www.w3.org/1999/xlink"><clipPath id="a"><path d="m0 0h492v184.8h-492z"/></clipPath><g clip-path="url(#a)"><path d="m158.8 141.4-51.1-123.3c-4.6-11.2-15-18.1-27.1-18.1s-22.5 6.9-27.2 18.1l-51.00001 123.3c-5 12.1-1.900004 26.2 7.80001 35.1 5.8 5.3 13.4 8.3 21.2 8.3 5 0 10-1.2 14.4-3.5 10.7-5.5 22.7-8.4 34.8-8.4s24.1 2.9 34.8 8.4c4.4 2.3 9.4 3.5 14.4 3.5 7.9 0 15.4-2.9 21.2-8.3 9.7-8.8 12.8-22.9 7.8-35.1zm-12.5 30c-4.6 4.2-10.5 6.4-16.5 6.4-3.8 0-7.6-.9-11.2-2.7-11.9-6.1-25-9.2-38-9.2s-26.1 3.1-38 9.2c-3.6 1.8-7.4 2.7-11.2 2.7-6 0-11.9-2.2-16.5-6.4-7.50001-6.9-10.00001-17.7-6.00001-27.2 17.00001-41.1 34.00001-82.2 51.10001-123.3 3.8-9.3 12.2-13.9 20.6-13.9s16.8 4.6 20.6 13.8c17 41.1 34.1 82.2 51.1 123.3 3.9 9.6 1.4 20.4-6 27.3z" fill="#009845"/><g fill="#978b87"><path d="m137.4 142.1c-14.9-35.9-29.7-71.8-44.6002-107.7-4.5-10.8-19.8-10.8-24.3 0-14.9 35.9-29.7 71.8-44.6 107.7-2.5 6-.7 12.2 3.5 16.1s10.6 5.2 16.3 2.3c23.2-11.7 50.6-11.7 73.8002 0 5.8 2.9 12.1 1.6 16.3-2.3 4.3-3.9 6-10.1 3.6-16.1zm-36.2-14.4c-1.1 1.1-2.7002 1.7-4.4002 1-10.5-3.8-22-3.8-32.5 0-1.7.6-3.3.1-4.4-1s-1.5-2.8-.8-4.5c5.9-14.2 11.8-28.4 17.7-42.6 1.4-3.4 6.2-3.4 7.7 0 5.9 14.2 11.8 28.4 17.7002 42.6.6 1.7.1 3.4-1 4.5z"/><path d="m262.8 74.1c8.8 0 14 1.9 18 5.3 4.8 4.2 7.7 10.6 7.7 17.6s-2.9 13.4-7.7 17.6c-4 3.4-9.2 5.3-18 5.3h-9.5v-45.8zm22.1-2.6c-5.1-3.8-11.6-5.9-21.6-5.9h-14.5c-2.4 0-4.4 2-4.4 4.4v54.3c0 2.4 2 4.4 4.4 4.4h14.5c10 0 16.6-2.2 21.7-5.9 7.7-5.8 12.5-15.1 12.5-25.6s-4.9-19.9-12.6-25.7zm35.1 32.2c-1.5 0-1.8.7-1.8.7l10.1-24.1 10.1 24.1s-.3-.7-1.8-.7zm8.2-38.9c-1.7 0-3.3 1-4 2.7l-23.1 55.4c-.9 2.2.1 4.7 2.3 5.6s4.7-.1 5.6-2.3l4-9.4c1.1-2.6 3.7-4.4 6.6-4.5h16.9c3 .1 5.5 1.9 6.6 4.5l4 9.4c.9 2.2 3.4 3.3 5.6 2.3 2.2-.9 3.2-3.4 2.3-5.6l-23.1-55.4c-.4-1.7-2-2.7-3.7-2.7zm-129.6 38.9c-1.5 0-1.8.7-1.8.7l10.1-24.1 10.1 24.1s-.3-.7-1.8-.7zm8.2-38.9c-1.7 0-3.3 1-4 2.7l-23.1 55.4c-.9 2.2.1 4.7 2.3 5.6s4.7-.1 5.6-2.3l4-9.4c1.1-2.6 3.7-4.4 6.6-4.5h16.9c3 .1 5.5 1.9 6.6 4.5l4 9.4c.9 2.2 3.4 3.3 5.6 2.3 2.2-.9 3.3-3.4 2.3-5.6l-23.1-55.4c-.4-1.7-2-2.7-3.7-2.7zm249.6 38.9c-1.5 0-1.8.7-1.8.7l10.1-24.1 10.1 24.1s-.3-.7-1.8-.7zm8.2-38.9c-1.7 0-3.3 1-4 2.7l-23.1 55.4c-.9 2.2.1 4.7 2.3 5.6s4.7-.1 5.6-2.3l4-9.4c1.1-2.6 3.7-4.4 6.6-4.5h16.9c3 .1 5.5 1.9 6.6 4.5l4 9.4c.9 2.2 3.4 3.3 5.6 2.3 2.2-.9 3.2-3.4 2.3-5.6l-23.1-55.4c-.4-1.7-2-2.7-3.7-2.7zm-72 48.8-17.8-27.9v38.7c0 2.5-2 4.5-4.5 4.5s-4.5-2-4.5-4.5v-55.6c0-2.2 1.8-4 4-4 1.4 0 2.6.7 3.3 1.8l23.3 36.9 23.3-36.9c.7-1.1 1.9-1.8 3.3-1.8 2.2 0 4 1.8 4 4v55.6c0 2.5-2 4.5-4.5 4.5s-4.5-2-4.5-4.5v-38.7l-17.8 27.9c-.8 1.2-2.2 2.1-3.8 2.1s-3-.8-3.8-2.1z"/></g></g></svg>