<svg width="121" height="22" viewBox="0 0 121 22" fill="none" xmlns="http://www.w3.org/2000/svg">
<path d="M36.8921 2.96397L42.6817 18.3964H39.4807L38.2555 15.0769H31.8733L30.6481 18.3964H27.5064L33.2763 2.96397H36.8921ZM32.881 12.4089H37.2479L35.0545 6.481L32.881 12.4089ZM57.2247 18.4159H54.478L47.2459 7.76545V18.4159H44.2032V2.98344H47.4042L54.1818 13.1003V2.96369H57.2247V18.4159ZM59.9319 2.96397H65.2472C70.108 2.96397 73.0719 5.98718 73.0719 10.6899C73.0719 15.3926 70.108 18.4159 65.2472 18.4159H59.9319V2.96397ZM65.2472 15.7089C68.231 15.7089 69.95 13.7329 69.95 10.7097C69.95 7.64694 68.2309 5.69063 65.2275 5.69063H63.0341V15.7087H65.2472V15.7089ZM74.791 12.2509V2.98372H77.9722V12.1324C77.9722 14.7405 79.2369 15.8472 81.1732 15.8472C83.1097 15.8472 84.3742 14.7208 84.3742 12.1324V2.98372H87.5357V12.2509C87.5357 16.5191 84.967 18.6331 81.1534 18.6331C77.3401 18.6334 74.791 16.4993 74.791 12.2509ZM93.1478 18.4159H89.9863V2.98344H96.3093C99.8661 2.98344 102.079 4.66295 102.079 7.84419C102.079 10.1758 100.815 11.7565 98.6409 12.3889L102.494 18.4353H98.878L95.3211 12.6852H93.1673V18.4156L93.1478 18.4159ZM96.1513 10.0378C98.0086 10.0378 98.9375 9.22768 98.9375 7.86422C98.9375 6.46125 97.9891 5.67087 96.1513 5.67087H93.1676V10.0378H96.1513ZM107.335 18.4159H104.174V2.98344H107.355L107.335 18.4159ZM110.022 2.96397H113.204V15.6694H120.297V18.4161H110.042L110.022 2.96397ZM23.653 14.0294C23.337 13.8714 23.0404 13.7134 22.7639 13.5354C21.776 12.9623 20.8668 12.2707 20.0369 11.5C19.7604 11.2433 19.4638 10.9664 19.2071 10.6702C16.8162 8.06201 15.3935 4.72248 15.1762 1.18543L15.1367 0.256784V0.177776C15.1367 0.0790136 15.0774 0 14.9787 0H8.89272C8.79395 0 8.7347 0.0790136 8.7347 0.177776V0.256784L8.69519 1.18543C8.47791 4.66323 7.0947 7.98273 4.74333 10.5714C4.48655 10.8677 4.18999 11.1445 3.91346 11.421C3.08358 12.2114 2.17469 12.903 1.18652 13.4959C0.890236 13.6736 0.593677 13.8316 0.297389 13.9899C0.218379 14.0294 0.178874 14.1282 0.218379 14.2072C0.356647 14.5233 0.494914 14.8198 0.633453 15.0964C1.16704 16.1238 1.8389 17.0724 2.62927 17.922C2.8663 18.1788 3.12335 18.4161 3.36038 18.6532C8.22113 23.0991 15.6705 23.1189 20.5513 18.6927C20.8081 18.4556 21.0651 18.1986 21.2824 17.9616C22.0728 17.1119 22.7447 16.1635 23.298 15.1359C23.456 14.8396 23.5943 14.543 23.7131 14.2467C23.7715 14.148 23.732 14.0492 23.653 14.0294ZM5.31616 18.1591C5.31616 18.2973 5.17789 18.3764 5.05937 18.2973C4.86185 18.1591 4.6838 18.0011 4.50603 17.8428C4.2295 17.6057 3.99219 17.3684 3.77492 17.1512C3.06356 16.42 2.45096 15.5902 1.95714 14.6813C1.91764 14.6023 1.93739 14.5233 2.0164 14.464C2.88578 13.9304 3.71566 13.3178 4.48628 12.6265C4.76281 12.3894 5.03962 12.1126 5.2964 11.8559C7.37123 9.74152 8.83346 7.11362 9.52507 4.24842C9.52507 4.03114 9.84111 4.03114 9.84111 4.24842C10.1374 5.7304 10.5722 7.19263 11.1848 8.57585C11.2046 8.61535 11.2046 8.67461 11.1848 8.71412C10.1574 10.868 8.75445 12.824 7.01542 14.484C6.75863 14.7211 6.50158 14.9584 6.2843 15.2151C5.80997 15.7685 5.49393 16.4403 5.35566 17.1714C5.31616 17.4085 5.2964 17.6458 5.2964 17.8828L5.31616 18.1591ZM15.611 15.0964C15.69 15.1754 15.6703 15.2939 15.5715 15.3531C14.5046 15.9855 13.2597 16.3213 12.0147 16.341H11.9752C10.6907 16.341 9.42631 15.9855 8.31962 15.3136C8.24061 15.2544 8.22086 15.1359 8.28012 15.0766C8.59616 14.7606 8.91247 14.4245 9.20876 14.0887C10.1967 12.9623 11.066 11.7373 11.7972 10.4134C11.8564 10.3146 12.0144 10.3146 12.0737 10.4134C13.0223 12.1126 14.208 13.6934 15.611 15.0964ZM7.09443 16.3018C7.13393 16.2228 7.25245 16.203 7.3117 16.2623C8.69492 17.1909 10.3152 17.685 11.9749 17.685L12.3502 17.6653C12.686 17.6455 13.0221 17.606 13.3381 17.5665C14.5238 17.369 15.65 16.9144 16.6576 16.2623C16.7169 16.2228 16.7959 16.2228 16.8552 16.282C17.5468 16.8749 18.2976 17.4282 19.0682 17.922C19.167 17.9813 19.167 18.1196 19.0682 18.1788C17.0724 19.7596 14.6223 20.629 12.0932 20.6487H11.9944C11.4806 20.6487 10.9473 20.6092 10.4334 20.5499C9.30698 20.3919 8.22032 20.0756 7.19292 19.6016C7.17316 19.5818 7.15341 19.5621 7.13366 19.5423C6.44232 18.5742 6.42257 17.2699 7.09443 16.3018ZM17.6461 15.2346L16.8754 14.543C15.0972 12.8438 13.6349 10.8282 12.5875 8.59533C12.39 8.18026 12.2122 7.76545 12.0539 7.35038C11.3426 5.4931 10.9077 3.51704 10.7892 1.54097C10.7695 1.44221 10.8485 1.3632 10.9473 1.3632H13.6939C13.7729 1.3632 13.852 1.42246 13.8717 1.52122L13.9507 2.41035C14.425 6.02642 16.0651 9.38543 18.6337 11.9741C18.8905 12.2309 19.1673 12.4879 19.4438 12.7447C20.2144 13.4363 21.0443 14.0292 21.9137 14.5625C21.9927 14.602 22.0125 14.7008 21.973 14.7798C21.5184 15.5899 20.9653 16.3605 20.333 17.0521C20.2737 17.1114 20.1947 17.1311 20.1354 17.0916C19.2663 16.4993 18.4364 15.9065 17.6461 15.2346Z" fill="black"/>
</svg>
