<svg width="99" height="20" viewBox="0 0 99 20" fill="none" xmlns="http://www.w3.org/2000/svg">
<path d="M23.8333 17.1078L23.2451 15.3105L22.6568 17.1078H20.7777L22.3137 18.2026L21.7255 20L23.2451 18.8889L24.7647 20L24.1764 18.2026L25.696 17.0915L23.8333 17.1078ZM22.0523 5.75163L25.8758 2.36928L23.196 0L16.7908 5.66993V10.3922L22.0523 5.75163ZM25.8594 10.0327L23.196 7.6634L16.7908 13.3333V18.0556L22.0523 13.415L25.8594 10.0327ZM26.1699 10.3105L23.4902 12.6797L29.6666 18.1373V13.415C29.683 13.415 26.1699 10.3105 26.1699 10.3105ZM23.5065 5L29.683 10.4412V5.73529L26.1862 2.63072L23.5065 5ZM3.86598 11.9771H9.60127V16.0784H3.86598V11.9771ZM3.86598 4.39542H9.60127V8.49673H3.86598V4.39542ZM10.696 19.5752L13.2287 17.0425V11.9118L11.3496 10.2288L13.2451 8.57843V3.43137L10.696 0.882352H0.238525V19.5915L10.696 19.5752ZM36.9379 8.95425V4.37908H42.4771V8.95425H36.9379ZM46.1045 9.68954V3.43137L43.5228 0.898693H33.2941V19.5915H36.9215V12.451H40.1895L42.5098 19.5752H46.1699L43.6372 12.1569L46.1045 9.68954ZM58.8006 8.95425H53.2614V4.37908H58.8006V8.95425ZM62.4281 9.68954V3.43137L59.8464 0.898693H49.6176V19.5915H53.2451V12.451H56.513L58.8333 19.5752H62.4934L59.9608 12.1569L62.4281 9.68954ZM70.0751 19.5915H73.7189V12.1732L79.5032 0.898693H75.5817L71.8889 8.13725L68.2451 0.898693H64.3398L70.0915 12.2386L70.0751 19.5915ZM95.7124 19.5915L98.2614 17.0588V11.6667L96.1862 9.44444L89.0947 7.81046V4.39542H94.634V6.73203H98.2614V3.43137L95.7124 0.898693H88.0327L85.4673 3.43137V8.82353L87.5915 11.0948L94.634 12.6797V16.0948H89.0947V13.7582H85.4673V17.0752L88.0327 19.6078L95.7124 19.5915ZM84.6993 0.882352H81.8235L79.7157 5.06536H82.2483L84.6993 0.882352Z" fill="black"/>
</svg>
