<svg width="113" height="20" viewBox="0 0 113 20" fill="none" xmlns="http://www.w3.org/2000/svg">
<path d="M104.96 9.79251C105.673 9.62922 106.418 9.67928 107.102 9.93644C107.787 10.1936 108.38 10.6465 108.809 11.2387L102.147 12.7459C102.377 11.3355 103.452 10.1333 104.96 9.79251ZM108.847 15.3388C108.32 16.1015 107.524 16.637 106.619 16.8382C105.102 17.1818 103.588 16.5527 102.754 15.3685L112.607 13.1393C112.595 12.6921 112.537 12.2473 112.434 11.8118C111.586 8.21536 107.925 5.97334 104.256 6.80332C100.587 7.63387 98.2988 11.2225 99.1461 14.8183C99.9929 18.4148 103.654 20.6573 107.323 19.8274C109.485 19.3376 111.167 17.8909 112.011 16.049L108.847 15.3388ZM93.1191 19.6455V10.111H91.0612V6.86265H93.1191V2.39146H96.6136V6.86265H99.2385V10.111H96.6136V19.6455H93.1191ZM86.4434 19.6455H89.8181V6.86265H86.4434V19.6455ZM86.0046 2.37803C86.0046 1.19489 86.9375 0.307258 88.1447 0.307258C89.3519 0.307258 90.2575 1.19489 90.2575 2.37803C90.2575 3.56173 89.3519 4.47566 88.1447 4.47566C86.9375 4.47566 86.0046 3.56173 86.0046 2.37803ZM85.2686 6.89847C83.5432 6.98801 82.5257 7.25274 81.4908 8.00269V6.86265H78.1177V19.6455H81.4903V13.3772C81.4903 11.4049 81.9716 10.2828 85.2686 10.1725V6.89847ZM66.4632 13.455C66.5472 15.3203 68.1708 16.8846 70.1581 16.8846C72.1741 16.8846 73.8256 15.2381 73.8256 13.2904C73.8256 11.3697 72.1741 9.72367 70.1581 9.72367C68.1713 9.72367 66.5472 11.3148 66.4632 13.1533V13.455ZM63.1724 19.6455V0.763387L66.5472 0V7.81408C67.5898 6.98018 68.825 6.63039 70.1693 6.63039C74.0109 6.63039 77.084 9.58879 77.084 13.3005C77.084 16.9848 74.0114 19.9969 70.1693 19.9969C68.825 19.9969 67.5898 19.6477 66.5472 18.8138V19.646L63.1724 19.6455ZM55.989 19.6455V10.0455H53.9311V6.86265H55.989V2.3881L59.4836 1.59729V6.86265H62.1084V10.0455H59.4836V19.6455H55.989ZM49.8047 19.6455V12.8158C49.8047 10.3415 48.4598 9.8037 47.1149 9.8037C45.7706 9.8037 44.4263 10.3147 44.4263 12.7621V19.6455H41.0515V6.86265H44.4263V7.81352C45.1667 7.27568 46.0723 6.62983 47.8565 6.62983C50.7097 6.62983 53.1795 8.27077 53.1795 12.278V19.6455H49.8047ZM32.5048 9.79251C34.0125 9.45111 35.5169 10.0695 36.3542 11.2387L29.6919 12.7459C29.9214 11.3355 30.9976 10.1333 32.5048 9.79251ZM36.3917 15.3388C35.8648 16.1015 35.0692 16.637 34.1642 16.8382C33.4468 17.0025 32.6967 16.9506 32.0087 16.689C31.3207 16.4275 30.7257 15.9679 30.2986 15.3685L40.1521 13.1393C40.1395 12.6921 40.0814 12.2473 39.9786 11.8118C39.1313 8.21536 35.4699 5.97334 31.8007 6.80332C28.1316 7.63387 25.8436 11.2225 26.691 14.8183C27.5383 18.4148 31.1991 20.6573 34.8688 19.8274C37.0308 19.3376 38.7126 17.8909 39.5561 16.049L36.3917 15.3388ZM18.7409 19.6455L13.4996 6.86265H17.1766L20.4971 15.5319L23.8445 6.86265H27.5215L22.2808 19.6455H18.7409ZM6.88265 9.78915C7.59548 9.62582 8.34061 9.67585 9.02521 9.93301C9.7098 10.1902 10.3036 10.6431 10.7326 11.2353L4.06976 12.7431C4.29922 11.3327 5.37546 10.1305 6.88265 9.78915ZM10.7695 15.3355C10.2427 16.0984 9.4471 16.6341 8.54206 16.8354C7.02536 17.1784 5.5109 16.5499 4.67644 15.3657L14.53 13.136C14.5173 12.6889 14.4591 12.2443 14.3565 11.809C13.5091 8.21256 9.84833 5.96998 6.17859 6.79996C2.5094 7.63051 0.222601 11.2197 1.06882 14.8161C1.91616 18.4125 5.5775 20.6545 9.24669 19.8246C11.4087 19.3354 13.0905 17.8881 13.9345 16.0468L10.7695 15.3355Z" fill="#F05537"/>
</svg>
