<svg width="115" height="22" viewBox="0 0 115 22" fill="none" xmlns="http://www.w3.org/2000/svg">
<path d="M114.676 5.29292V16.7996H110.837V14.706C110.513 15.4945 110.02 16.0951 109.357 16.505C108.695 16.9134 107.876 17.1198 106.905 17.1198C106.037 17.1198 105.28 16.9049 104.632 16.4737C103.986 16.0424 103.486 15.4504 103.135 14.6989C102.786 13.9475 102.61 13.0992 102.61 12.1485C102.598 11.1694 102.785 10.2898 103.166 9.51132C103.548 8.73283 104.087 8.12654 104.78 7.68961C105.475 7.25411 106.267 7.03493 107.155 7.03493C108.984 7.03493 110.211 7.84474 110.837 9.46436V5.29292H114.676ZM110.264 13.549C110.656 13.1604 110.85 12.6552 110.85 12.0389C110.85 11.444 110.661 10.9573 110.279 10.5844C109.899 10.213 109.377 10.0251 108.722 10.0251C108.075 10.0251 107.558 10.2144 107.171 10.5944C106.784 10.973 106.592 11.464 106.592 12.0717C106.592 12.6794 106.784 13.1747 107.171 13.5575C107.558 13.9418 108.069 14.1325 108.707 14.1325C109.353 14.1311 109.872 13.9361 110.264 13.549ZM101.922 7.62557V11.0783C101.524 10.8107 101.009 10.6784 100.371 10.6784C99.5355 10.6784 98.8922 10.936 98.4439 11.4526C97.9941 11.9692 97.7707 12.7719 97.7707 13.8592V16.7996H93.9323V7.45051H97.6924V10.4222C97.9002 9.33627 98.2389 8.535 98.7043 8.01695C99.1669 7.50032 99.7661 7.24272 100.496 7.24272C101.05 7.24272 101.524 7.37081 101.922 7.62557ZM83.3336 16.4481C82.4299 16.0012 81.7411 15.3892 81.2657 14.6107C80.7918 13.8322 80.5527 12.964 80.5527 12.0048C80.5527 11.0455 80.7889 10.1902 81.2657 9.43874C81.7425 8.68728 82.4271 8.09807 83.328 7.67111C84.2246 7.24415 85.2963 7.03209 86.5387 7.03209C87.7812 7.03209 88.8529 7.24415 89.7509 7.67111C90.649 8.09807 91.3335 8.68301 91.8032 9.4302C92.2743 10.176 92.5091 11.0327 92.5091 12.0034C92.5091 12.9612 92.2743 13.8293 91.8032 14.6078C91.3335 15.3863 90.6461 15.9983 89.7424 16.4466C88.8372 16.8935 87.7698 17.117 86.5373 17.117C85.3034 17.117 84.236 16.8964 83.3336 16.4481ZM88.0943 13.613C88.4757 13.2245 88.6678 12.7107 88.6678 12.0717C88.6678 11.4327 88.4771 10.9231 88.0943 10.546C87.7143 10.1674 87.1948 9.97814 86.5373 9.97814C85.867 9.97814 85.3432 10.1674 84.9618 10.546C84.5804 10.9246 84.3911 11.4327 84.3911 12.0717C84.3911 12.7107 84.5804 13.2245 84.9618 13.613C85.3418 14.0001 85.867 14.1965 86.5373 14.1965C87.1948 14.1951 87.7143 14.0001 88.0943 13.613ZM72.2013 16.4481C71.3032 16.0012 70.6258 15.3935 70.1732 14.6263C69.7206 13.8592 69.4929 12.9953 69.4929 12.0375C69.4929 11.0783 69.7278 10.2201 70.1974 9.46436C70.6685 8.70863 71.3573 8.11373 72.2668 7.6825C73.1748 7.25126 74.2607 7.03636 75.5245 7.03636C77.0914 7.03636 78.3923 7.37224 79.4255 8.04399V10.9687C79.0612 10.7125 78.6356 10.5047 78.1503 10.3453C77.665 10.1859 77.1455 10.1048 76.5905 10.1048C75.6184 10.1048 74.8598 10.2855 74.3119 10.6485C73.764 11.0114 73.4879 11.4839 73.4879 12.0717C73.4879 12.6467 73.754 13.1163 74.2877 13.4864C74.82 13.855 75.5914 14.04 76.6061 14.04C77.127 14.04 77.6422 13.9617 78.1503 13.8094C78.6556 13.6529 79.0925 13.4636 79.4568 13.2401V16.0695C78.3097 16.7725 76.9776 17.1241 75.4619 17.1241C74.1867 17.1198 73.0993 16.8964 72.2013 16.4481ZM61.1088 16.7839C60.262 16.5605 59.4991 16.236 58.8203 15.809V13.1562C59.334 13.5604 60.02 13.8934 60.8825 14.1553C61.7435 14.4157 62.5761 14.5466 63.3816 14.5466C63.7588 14.5466 64.042 14.4954 64.2342 14.3958C64.4277 14.2947 64.5245 14.1738 64.5245 14.0343C64.5245 13.8749 64.4718 13.7425 64.3665 13.6358C64.2612 13.5276 64.0577 13.4394 63.756 13.364L61.8759 12.9327C60.7999 12.6765 60.0357 12.3222 59.5817 11.8682C59.1277 11.4156 58.9014 10.8221 58.9014 10.0877C58.9014 9.46863 59.0978 8.93208 59.4963 8.47238C59.8934 8.0141 60.457 7.65972 61.1885 7.41066C61.9214 7.16018 62.7754 7.03493 63.7588 7.03493C64.6355 7.03493 65.4396 7.13029 66.1711 7.32242C66.9027 7.51456 67.5075 7.75793 67.9886 8.0568V10.5673C67.4962 10.267 66.9311 10.0322 66.2878 9.85432C65.6446 9.67784 64.9856 9.59245 64.3039 9.59245C63.3219 9.59245 62.8323 9.76323 62.8323 10.1034C62.8323 10.2628 62.9077 10.3823 63.06 10.462C63.2123 10.5417 63.4912 10.6243 63.8969 10.7111L65.4638 10.9986C66.4871 11.1779 67.2499 11.4953 67.7509 11.9479C68.2533 12.4004 68.5038 13.0694 68.5038 13.9546C68.5038 14.9252 68.0896 15.6952 67.2585 16.2659C66.4287 16.8366 65.2503 17.1212 63.7246 17.1212C62.8266 17.1198 61.9542 17.0074 61.1088 16.7839ZM53.2797 9.65364C54.4524 10.1688 55.9069 10.1916 57.1067 9.65364V16.8494H53.2797V9.65364ZM55.1953 8.44534C56.2514 8.44534 57.1081 7.65972 57.1081 6.69194C57.1081 5.72416 56.2514 4.93854 55.1953 4.93854C54.1379 4.93854 53.2811 5.72416 53.2811 6.69194C53.2811 7.65972 54.1379 8.44534 55.1953 8.44534ZM39.0647 5.61172H45.1745C46.6475 5.61172 47.8914 5.84655 48.9119 6.31479C49.9309 6.78303 50.6937 7.43628 51.2004 8.27171C51.7056 9.10713 51.9604 10.065 51.9604 11.1423C51.9604 12.1969 51.6957 13.1533 51.1677 14.0101C50.6396 14.8683 49.8369 15.5457 48.7553 16.0467C47.6751 16.5463 46.3358 16.7982 44.7362 16.7982H39.0647V5.61172ZM44.6735 13.9546C45.6641 13.9546 46.4284 13.7013 46.9606 13.1974C47.4929 12.6894 47.7591 12.0005 47.7591 11.1267C47.7591 10.3154 47.5214 9.6693 47.0475 9.18541C46.5735 8.70151 45.8548 8.45672 44.8941 8.45672H42.9828V13.9546H44.6735ZM29.1605 18.3125C26.6955 20.1541 24.306 21.2699 21.9548 22C21.3727 21.2044 20.8589 20.3548 20.4135 19.4638C21.2581 19.1434 22.0721 18.7475 22.8457 18.2811C22.6451 18.1303 22.4458 17.9723 22.2508 17.8115C17.624 19.9975 12.5374 19.9975 7.85506 17.8115C7.66065 17.9735 7.4618 18.1301 7.25873 18.2811C8.02727 18.7423 8.83992 19.1393 9.68815 19.461C9.24269 20.3548 8.72464 21.2016 8.14539 21.9986C5.79709 21.267 3.40895 20.1513 0.945367 18.3125C0.44155 12.9228 1.44918 7.45478 5.16377 1.84591C7.00682 0.983439 8.97797 0.355803 11.0402 0C11.295 0.455428 11.5967 1.07025 11.8002 1.55842C13.9493 1.22965 16.1182 1.22965 18.3071 1.55842C18.5106 1.07025 18.8067 0.455428 19.0586 0C21.118 0.355803 23.0877 0.980593 24.9293 1.84164C28.1501 6.6464 29.7512 12.0646 29.1605 18.3125ZM12.8833 12.0916C12.9089 10.4933 11.7561 9.18256 10.3258 9.18256C8.89543 9.18256 7.76682 10.4948 7.76682 12.0916C7.76682 13.687 8.91962 14.9978 10.3258 14.9978C11.7561 14.9978 12.8861 13.687 12.8833 12.0916ZM22.3377 12.0916C22.3633 10.4933 21.2105 9.18256 19.7801 9.18256C18.3498 9.18256 17.2212 10.4948 17.2212 12.0916C17.2212 13.687 18.374 14.9978 19.7801 14.9978C21.2105 14.9978 22.3377 13.687 22.3377 12.0916Z" fill="#5865F2"/>
</svg>
