<svg fill="none" height="20" viewBox="0 0 98 20" width="98" xmlns="http://www.w3.org/2000/svg"><path d="m18.4192 5.68408c-.6386-3.27393-2.8318-5.6479607-6.7884-5.68399441h-.1728c-4.51477.02807381-7.86471 2.29349441-9.64037 5.68399441-.981003 1.9145-1.481383 4.03895-1.457957 6.19002 0 4.3502 2.410067 7.0895 5.498947 7.8568.59917.1485 1.21435.2227 1.83165.2207.67594.0077 1.35032-.0665 2.00847-.2207 1.21716-.2747 2.30576-.9528 3.08886-1.9242v1.7273c-.0021.0255-.0021.0511 0 .0766.0152.0338.0394.0629.0698.0841s.066.0337.103.0363h2.6712c.0324-.0036.0637-.0132.0925-.0283.0446-.0283.0764-.073.0884-.1244l1.8436-9.4317c.002-.0171.002-.0345 0-.0521 0-.0264-.0051-.0525-.0152-.0769-.0101-.02436-.0249-.04651-.0435-.06517-.0187-.01866-.0408-.03346-.0652-.04355s-.0505-.01528-.0769-.01527h-6.704c-.0454-.00148-.0899.0124-.1264.03941-.0365.027-.0627.06554-.0745.10938l-.506 2.5544v.0365c-.0044.0266-.0044.0537 0 .0803.0153.0361.0411.0669.074.0884.0329.0214.0715.0325.1107.0319h3.3822c-.7271 2.0085-2.4101 3.764-5.1015 3.764-2.69115 0-4.38636-1.9403-4.38636-5.254-.03584-2.04826.63361-4.04655 1.8961-5.65982.57914-.73045 1.31618-1.32027 2.15583-1.72519s1.7601-.61442 2.69233-.6128c1.8758 0 2.9685.85565 3.6995 2.33799.1889.38931.3486.79206.478 1.20495.015.03665.0406.06802.0735.09015s.0716.03403.1112.03422h.0563l3.0327-.80336c.0203-.00373.0395-.01192.0563-.02396.0296-.01804.054-.0434.0709-.07365s.0257-.06434.0255-.09899v-.03201c0-.09663-.0362-.19703-.0563-.29349m7.4311-5.486973c0-.02638-.0052-.052504-.0153-.07688-.0101-.0243768-.0248-.0465281-.0435-.0651896-.0186-.0186615-.0408-.0334678-.0651-.0435735-.0244-.01010558-.0505-.01531266-.0769-.0153239h-3.0769c-.0474.00043913-.0931.0175918-.1291.0484365-.036.0308448-.06.0734025-.0677.1201775l-3.7396 19.316886v.0444c-.0061.025-.0061.0513 0 .0766.0308.0744.1035.1239.1848.1243h3.0728c.0448.0013.0887-.0128.1245-.0398.0358-.0271.0613-.0655.0723-.1089l3.7436-19.349036v-.032097m9.6243 5.483113c-.5974-.15038-1.2115-.22477-1.8276-.22142-.737-.00877-1.4727.06551-2.1932.22142-1.3475.32287-2.5768 1.01896-3.5468 2.00848-1.6711 1.60662-2.4101 3.67934-2.4101 6.32634 0 2.7477 1.5865 5.0128 4.302 5.712.5988.1504 1.2142.2245 1.8316.2207.7518.014 1.5027-.0601 2.2373-.2207 1.3464-.3226 2.5744-1.0188 3.5427-2.0085 1.6712-1.6067 2.4101-3.6751 2.4101-6.3226 0-2.75188-1.6068-5.02106-4.302-5.71572m-.4699 9.80892c-.3543.4836-.8211.8735-1.36 1.136s-1.1337.3896-1.7329.3704c-1.643 0-2.7314-1.3377-2.7314-3.5109 0-1.5062.3334-2.6751 1.0321-3.56673.3565-.47989.8243-.86593 1.3631-1.12487.5389-.25893 1.1326-.38299 1.73-.3615 1.6428 0 2.7315 1.33762 2.7315 3.5108 0 1.5065-.3375 2.6753-1.0324 3.567m16.2883-7.80917c-.4696-.91539-1.5304-1.6626-2.7594-2.00839-.5012-.14616-1.0206-.22051-1.5426-.22082-.6016-.00481-1.2012.06943-1.7835.22082-1.8946.41195-3.2142 2.13232-3.1211 4.06941 0 1.86775 1.2291 2.95625 2.8721 3.73515 1.6429.7795 2.4101 1.2538 2.4101 2.0611 0 1.0041-.8395 1.4499-1.7835 1.4499-1.3295 0-2.2776-.8036-2.6751-2.1889-.0146-.0396-.0408-.0739-.0752-.0983-.0344-.0243-.0755-.0377-.1176-.0383-.0253-.004-.051-.004-.0762 0l-2.5873 1.0764c-.0366.015-.068.0406-.0901.0735s-.0339.0716-.034.1113v.0316c.2145.8861.6597 1.6996 1.2904 2.3579.6308.6583 1.4245 1.1378 2.3006 1.39.5427.1504 1.1036.2249 1.6668.2211.6639.0053 1.3261-.069 1.9724-.2211 2.1289-.5261 3.5463-2.0085 3.5463-4.6555 0-1.948-1.4497-2.8957-2.8958-3.5666-.9479-.4463-2.41-.8637-2.41-1.83981-.0077-.68798.5435-1.25126 1.2312-1.25913.0449-.00086.09.00145.1347.00539.4002.00025.7945.09674 1.1496.28135.3551.18462.6606.45192.8907.77938.0189.02474.0432.04483.071.05872.0279.01388.0585.0212.0897.02139.0369-.00085.0725-.01053.1047-.02764l2.1649-1.55861c.0371-.0274.0628-.0674.0725-.11248.0097-.04507.0025-.09213-.0201-.13231m8.7245-2.03647c-.5013-.14605-1.0207-.22059-1.5428-.22142-.6028-.0045-1.2036.06994-1.787.22142-1.8935.41349-3.2111 2.13336-3.1171 4.06856 0 1.86806 1.2051 2.95686 2.8717 3.73586 1.5867.7513 2.4102 1.2534 2.4102 2.0606 0 1.0042-.8351 1.4503-1.7837 1.4503-1.3292 0-2.2815-.8035-2.6792-2.1976-.0139-.0377-.039-.0702-.072-.0932-.0329-.0231-.0721-.0354-.1122-.0355-.0268-.0054-.0543-.0054-.0811 0l-2.5824 1.073c-.0363.0152-.0671.0409-.0886.0738-.0214.033-.0325.0716-.0318.1109-.0021.0132-.0021.0267 0 .0399.2154.8842.6607 1.6957 1.2906 2.3525s1.4222 1.1354 2.2966 1.3875c.5443.1497 1.1066.224 1.6711.2207.6624.0057 1.3232-.0684 1.9679-.2207 2.1288-.5264 3.5508-2.0085 3.5508-4.6554 0-1.9485-1.4502-2.8966-2.9003-3.5675-.9481-.4455-2.4098-.8632-2.4098-1.83983-.0079-.68721.5438-1.25126 1.2308-1.2587.045-.00058.0901.00142.1349.00599.3991.00018.7923.09617 1.1467.27992.3543.18375.6593.44988.8894.77601.0185.02654.0432.04813.072.06287s.0608.02219.0932.0217c.0364-.00142.072-.01102.1042-.02808l2.1893-1.5586c.0214-.02015.0384-.04439.0501-.07127.0118-.02689.018-.05586.0182-.0852 0-.03055-.007-.06119-.0202-.08875-.4697-.91933-1.5301-1.66697-2.7596-2.00839m8.9855-.01139h-3.0609c-.0432.00068-.0851.015-.1198.04092-.0346.02591-.0602.06209-.073.10339l-2.6508 13.65731c-.0024.0147-.0024.0297 0 .0443-.0041.0254-.0041.0513 0 .0766.0156.0363.0413.0673.074.0894.0327.022.0711.0342.1106.035h3.0609c.0365-.0012.0722-.0109.1043-.0283.0446-.0268.0766-.0702.0886-.1205l2.659-13.68166c-.0011-.05292-.0225-.10338-.06-.14083-.0374-.03745-.0878-.059-.1408-.06013m10.8492-.0155c-.5808-.1515-1.179-.22595-1.7792-.22142-.6756-.00113-1.3492.07314-2.0084.22142-3.7446.85506-6.3808 4.21287-6.3228 8.05362 0 3.2136 1.72 5.3345 4.2383 5.9931.5809.1505 1.179.2247 1.7791.2208.7015.0066 1.4004-.0675 2.0845-.2208 1.9567-.454 3.3821-1.6067 4.708-3.5309.0268-.0454.0347-.0994.0219-.1505s-.0452-.0951-.0902-.1225l-2.4098-1.2494c-.025-.0128-.0526-.0196-.0807-.0201-.0294.0008-.0583.0081-.0846.0212-.0263.0132-.0494.032-.0677.055-1.008 1.4503-2.1611 2.2658-3.7557 2.2658-1.8395 0-2.844-1.2814-2.844-2.7318v-.4455h9.9378c.0365-.0013.0722-.011.1043-.0283.0415-.026.0727-.0657.0881-.1122.2297-.8447.3473-1.7159.3497-2.5913 0-2.59447-1.326-4.73159-3.8521-5.40622m-5.9773 5.40622c.589-1.56533 2.0638-2.62126 3.7359-2.67501 1.7551 0 2.5625.92001 2.6751 2.67501zm21.0606-2.25322c.0293.01652.062.02482.0959.02439.0369.00086.0729-.0095.1048-.02841.0356-.0232.0637-.05684.0803-.09638l1.0242-2.71134c.0042-.02666.0042-.05381 0-.08046-.0008-.03945-.0129-.07783-.0349-.11059s-.053-.05851-.0892-.0742l-.1891-.0683c-.4627-.16347-.952-.23838-1.4423-.22083-.509-.00222-1.0155.07222-1.5023.22083-1.1592.38222-2.1719 1.11312-2.8999 2.09278l.365-1.84363c.0092-.02948.0111-.06074.0056-.09113s-.0182-.05901-.037-.08345c-.0189-.02443-.0434-.04397-.0714-.05695s-.0587-.01902-.0896-.01762h-3.0728c-.0469.00022-.0923.01683-.1282.04694-.036.03012-.0603.07185-.0688.11799l-2.655 13.65708c-.0019.0107-.0019.0216 0 .0323-.0061.025-.0061.0511 0 .076.015.0367.0406.0682.0734.0904.0329.0222.0716.0342.1113.0344h3.1092c.0365-.0013.0721-.0109.1043-.0281.0447-.0284.0765-.0732.0885-.1248l.9477-4.8201c.8356-4.4185 3.2136-6.18589 4.9604-6.18589.4171-.00822.8301.08272 1.2052.26533m-26.8522-8.636453c-1.0933 0-1.9799.886633-1.9799 1.980653 0 1.0936.8865 1.98015 1.9799 1.98015 1.0938 0 1.9802-.88647 1.9802-1.98015.0229-1.07168-.8276-1.958314-1.8991-1.980653-.027-.000428-.0541-.000428-.0811 0zm27.0376 15.826213c-1.0983.0047-1.9852.8987-1.9802 1.9966.0014.3401.0899.6741.2572.9702s.4077.5444.6983.721c.3118.1764.664.2691 1.0222.2691.3583 0 .7104-.0927 1.0223-.2691.9386-.5705 1.237-1.7936.6667-2.7318-.1763-.2899-.4237-.53-.7189-.6973s-.6283-.2564-.9676-.2587z" fill="#000"/></svg>