<svg width="140" height="80" viewBox="0 0 140 80" fill="none" xmlns="http://www.w3.org/2000/svg">
<path d="M135.371 36.1333C131.896 35.8552 127.649 38.953 125.277 42.3656C124.216 41.7075 123.21 40.9656 122.268 40.147C118.161 26.106 109.803 22.7171 100.882 20.2538C97.5306 19.3292 93.9727 18.9752 89.8616 18.5641C82.3338 17.805 72.9629 16.8747 60.3197 11.7703C58.5107 11.0619 49.3016 7.57939 46.657 11.196C45.4594 12.8437 46.1045 15.1673 48.5688 18.0936C53.1586 23.5501 61.8007 27.6453 67.481 29.8066C61.9056 31.9356 56.033 33.1817 50.0762 33.4995C47.4787 31.8806 44.7557 29.4537 40.8734 23.7564C39.8006 22.1838 38.8584 20.7449 38.0313 19.4373C33.9705 13.2487 31.7316 9.83352 27.2632 9.86564C26.6705 9.87205 26.0887 10.0291 25.5729 10.3219C25.057 10.6148 24.624 11.0338 24.3148 11.5394C18.4474 2.90145 13.2143 -1.23807 9.76859 0.32421C8.26904 1.00105 7.47636 2.58517 7.43301 4.72667C4.34036 2.84203 2.52279 3.37196 1.45883 4.31167C-1.26735 6.82104 -0.160534 12.4114 4.67759 20.4646C10.7017 30.5147 19.2264 36.5192 27.5601 41.5099C31.3119 44.0831 36.1367 46.6422 42.4561 49.9811L47.6162 52.7182C59.0098 58.7778 64.6954 58.8391 73.3122 58.9211C76.2564 58.9595 79.6423 58.981 83.6825 59.2612C93.7839 59.8461 103.629 62.6332 112.525 67.4265C110.833 71.8936 110.763 75.8132 112.404 78.0667C112.928 78.768 113.634 79.3131 114.445 79.6436C115.257 79.9741 116.144 80.0774 117.011 79.9424C117.684 79.8742 118.347 79.7357 118.991 79.529C123.893 77.9615 128.115 72.7148 130.919 68.3089C136.634 59.3309 141.571 45.2864 139.531 39.4825C139.263 38.559 138.717 37.7404 137.968 37.1368C137.219 36.5333 136.302 36.1737 135.34 36.1065M3.38104 6.38773C4.04184 5.86207 5.35413 6.41493 8.07986 8.80439C8.10946 8.89729 8.13483 8.97692 8.16443 9.06981C10.7155 17.0533 14.1841 24.7131 18.5011 31.8962C13.9704 28.3071 10.1153 23.9425 7.11527 19.0052C2.54669 11.4069 2.17315 7.35883 3.38104 6.38773ZM22.0372 32.228C17.3066 24.7287 13.5525 16.6566 10.8653 8.20631C9.86103 5.05443 10.3239 3.21748 10.9638 2.92517C11.848 2.5255 16.2808 3.92317 23.4382 15.6436C23.5529 18.0051 24.403 20.9723 25.9503 24.5866C28.8814 31.3705 31.792 37.883 37.3171 44.0202C29.6365 39.837 24.9207 36.7458 22.0372 32.228ZM128.549 66.8072C124.544 73.1032 120.383 76.7662 116.755 77.1584C116.382 77.2446 115.992 77.2211 115.633 77.0906C115.274 76.9601 114.961 76.7282 114.732 76.4232C113.896 75.272 113.822 72.5099 115.139 68.8207C116.285 69.4488 117.428 70.0923 118.593 70.758C118.755 70.8503 118.933 70.9099 119.118 70.9333C119.303 70.9567 119.491 70.9435 119.671 70.8944C119.851 70.8453 120.02 70.7613 120.168 70.6472C120.315 70.5332 120.439 70.3912 120.532 70.2295C120.625 70.0678 120.685 69.8895 120.709 69.7048C120.733 69.52 120.72 69.3325 120.671 69.1529C120.622 68.9733 120.539 68.8051 120.425 68.6579C120.311 68.5108 120.169 68.3875 120.007 68.2952C109.916 62.5283 100.241 57.6742 83.9338 56.461C79.7745 56.175 76.3538 56.1134 73.3476 56.0875C65.1635 56.0062 59.7561 55.9437 49 50.2286C36.7263 42.235 32.7354 33.114 28.5379 23.4596C25.3171 16.0885 26.2917 13.6492 26.6971 13.0809C26.7585 12.9709 26.8462 12.8775 26.9522 12.8092C27.0583 12.7408 27.1795 12.6996 27.3052 12.6891C30.1179 12.6599 31.8081 15.066 35.6852 20.9771C36.541 22.2827 37.4962 23.7394 38.582 25.3298C44.266 33.829 47.9173 35.6959 51.7571 37.6707C54.5174 38.9977 57.0813 40.6971 59.3768 42.7215C59.5498 42.8789 59.7597 42.9902 59.9873 43.0453C60.2149 43.1003 60.4529 43.0972 60.6792 43.0362C62.547 42.5488 64.5756 41.9221 66.7086 41.2548C78.1097 37.6755 92.3065 33.2315 104.196 43.4244C104.337 43.5459 104.501 43.6383 104.678 43.6964C104.855 43.7546 105.042 43.7773 105.229 43.7633C105.415 43.7492 105.596 43.6988 105.763 43.6147C105.93 43.5307 106.078 43.4147 106.2 43.2735C106.322 43.1322 106.415 42.9684 106.474 42.7914C106.533 42.6145 106.556 42.4277 106.542 42.242C106.529 42.0562 106.479 41.8751 106.395 41.7088C106.311 41.5425 106.195 41.3945 106.054 41.273C92.9764 30.0197 77.3115 34.9403 65.8772 38.5302C64.0478 39.1151 62.3115 39.6702 60.6875 40.0944C58.8124 38.4962 56.7674 37.1077 54.5891 35.9537C59.1065 35.4944 63.5398 34.4117 67.7621 32.7364C72.5153 30.8483 77.5254 29.6877 82.6226 29.294C82.7207 29.273 82.8165 29.2424 82.9086 29.2026C83.2735 29.1276 83.594 28.911 83.7996 28.6006C84.0051 28.2901 84.0789 27.9111 84.0047 27.547C83.9305 27.1829 83.7144 26.8635 83.4039 26.6591C83.0934 26.4546 82.7139 26.3819 82.349 26.4569C78.8152 26.7491 75.3167 27.378 71.9012 28.335C66.0544 26.5485 55.48 21.8867 50.7445 16.272C48.8426 14.0067 48.8456 13.004 48.9249 12.8617C49.4715 12.1386 53.3448 12.0335 59.2252 14.4087C72.2726 19.6544 81.8394 20.6244 89.5725 21.3837C93.5645 21.789 96.9875 22.1569 100.119 22.9908C108.627 25.3303 115.975 28.3329 119.645 41.3221L119.763 41.6937L120.055 41.9659C123.866 45.5292 131.275 48.7904 131.588 48.924C131.757 48.9993 131.939 49.0407 132.123 49.0459C132.308 49.0511 132.492 49.0199 132.664 48.9542C132.837 48.8885 132.995 48.7894 133.13 48.6628C133.264 48.5361 133.372 48.3843 133.448 48.2161C133.524 48.0478 133.566 47.8663 133.572 47.6821C133.577 47.4978 133.547 47.3143 133.481 47.142C133.416 46.9698 133.317 46.8122 133.19 46.6782C133.064 46.5442 132.912 46.4365 132.744 46.3612C132.71 46.3719 130.37 45.3069 127.733 43.8396C129.717 41.0704 133.026 38.8278 135.176 38.9959C135.752 39.0312 136.464 39.2422 136.906 40.4902C138.294 44.4332 134.961 56.817 128.575 66.8428" fill="#CDF348"/>
</svg>
