<svg width="1340" height="212" viewBox="0 0 1340 212" fill="none" xmlns="http://www.w3.org/2000/svg">
<path d="M36.9701 213.477H0V7.75876H36.9701V213.477Z" fill="#1C2E2D"/>
<path d="M69.5126 99.7555C76.154 88.0065 85.2305 79.1394 96.7421 72.9324C108.254 66.7253 121.315 63.6218 135.705 63.6218C150.094 63.6218 163.155 66.7253 174.667 72.9324C186.179 79.1394 195.255 88.2282 201.897 99.7555C208.538 111.504 211.859 125.027 211.859 140.544C211.859 156.062 208.538 169.584 201.897 181.333C195.255 193.082 186.179 201.949 174.667 208.156C163.155 214.363 150.094 217.467 135.705 217.467C121.315 217.467 108.254 214.363 96.7421 208.156C85.2305 201.949 76.154 192.861 69.5126 181.333C62.8713 169.584 59.5506 156.062 59.5506 140.544C59.5506 125.027 62.8713 111.504 69.5126 99.7555ZM107.368 173.353C114.674 181.333 124.193 185.324 135.926 185.324C147.659 185.324 157.178 181.333 164.484 173.353C171.789 165.372 175.331 154.51 175.331 140.544C175.331 126.579 171.789 115.716 164.484 107.736C157.178 99.7555 147.659 95.7653 135.926 95.7653C124.193 95.7653 114.674 99.7555 107.368 107.736C100.063 115.716 96.5207 126.579 96.5207 140.544C96.5207 154.51 100.063 165.372 107.368 173.353Z" fill="#1C2E2D"/>
<path d="M379.663 67.6121V239.192C379.663 249.167 376.785 257.148 370.808 263.133C364.831 269.118 357.082 272 347.342 272H241.08V241.408H334.502C340.036 241.408 342.693 238.526 342.693 232.541V189.535H339.815C328.746 204.831 313.028 212.368 292.219 212.368C280.707 212.368 269.86 209.265 259.898 203.058C249.714 196.851 241.745 187.984 235.767 176.678C229.79 165.372 226.691 152.515 226.691 137.663C226.691 123.032 229.79 109.953 235.767 98.6471C241.745 87.3415 249.936 78.696 259.898 72.2673C270.081 66.0603 280.707 62.9568 292.219 62.9568C313.25 62.9568 329.189 70.9372 340.258 86.6764H343.136V67.6121H379.663ZM332.067 169.363C339.594 161.604 343.136 151.185 343.136 138.106C343.136 125.027 339.372 114.83 332.067 106.849C324.54 99.0905 315.021 95.1002 303.288 95.1002C291.555 95.1002 282.035 99.0905 274.509 106.849C266.982 114.608 263.44 125.027 263.44 138.106C263.44 151.185 267.203 161.382 274.509 169.363C282.035 177.121 291.555 181.112 303.288 181.112C315.021 181.112 324.54 177.121 332.067 169.363Z" fill="#1C2E2D"/>
<path d="M410.435 7.09373C415.526 2.43847 421.725 0 429.03 0C436.557 0 442.756 2.43847 447.626 7.09373C452.718 11.749 455.153 17.956 455.153 25.2714C455.153 32.8085 452.718 38.7938 447.626 43.4491C442.534 48.1043 436.336 50.5428 429.03 50.5428C421.503 50.5428 415.305 48.1043 410.435 43.4491C405.343 38.7938 402.908 32.5868 402.908 25.2714C402.908 17.956 405.343 11.749 410.435 7.09373ZM447.626 213.477H410.656V67.6121H447.626V213.477Z" fill="#1C2E2D"/>
<path d="M514.703 67.6121V89.3366H517.581C525.33 73.3757 540.162 65.3953 562.521 65.3953C573.59 65.3953 583.552 68.0554 592.186 73.154C600.819 78.2526 607.461 85.568 612.11 94.6569C616.759 103.967 619.194 114.386 619.194 126.357V213.255H582.224V128.13C582.224 117.268 579.567 108.844 574.254 103.524C568.941 97.9821 561.193 95.3219 551.009 95.3219C539.719 95.3219 530.864 99.0905 524.665 106.628C518.467 114.165 515.368 124.805 515.368 138.106V213.255H478.176V67.6121H514.703Z" fill="#1C2E2D"/>
<path d="M667.454 67.6121V22.3896H704.424V67.6121H744.272V97.5387H704.424V174.461C704.424 180.447 707.081 183.328 712.615 183.328H740.73V213.255H699.554C689.813 213.255 681.844 210.373 676.088 204.388C670.111 198.403 667.233 190.422 667.233 180.447V97.5387H630.927V67.6121H667.454Z" fill="#1C2E2D"/>
<path d="M803.159 88.2282C805.815 80.6911 810.243 75.3708 816.22 72.0456C822.197 68.7205 829.946 66.947 839.465 66.947H854.74V98.2038H833.045C823.304 98.2038 815.335 100.864 809.579 105.963C803.602 111.061 800.724 118.82 800.724 128.795V213.477H763.754V67.6121H800.059V88.2282H803.159Z" fill="#1C2E2D"/>
<path d="M891.931 76.2575C903.886 67.8337 918.939 63.4002 936.65 63.4002C955.91 63.4002 971.185 68.4988 982.475 78.9177C993.986 89.1149 999.742 103.302 999.742 121.48V213.477H963.879V194.634H961.001C957.681 200.619 952.589 205.94 945.505 210.595C938.421 215.25 928.901 217.467 916.283 217.467C900.786 217.467 888.168 213.698 878.649 205.94C868.908 198.403 864.038 187.762 864.038 174.24C864.038 149.855 881.748 134.781 917.39 129.239L963.215 122.145V118.598C963.215 111.061 960.78 104.632 956.131 99.9772C951.482 95.1003 944.398 92.8835 935.1 92.8835C925.581 92.8835 917.833 95.3219 912.298 100.421C906.764 105.519 903 112.391 901.008 121.037L865.587 109.066C871.343 95.7653 879.977 84.903 891.931 76.2575ZM907.206 184.659C911.191 187.762 917.168 189.314 924.917 189.314C936.428 189.314 945.726 185.989 952.81 179.117C959.894 172.245 963.436 163.377 963.436 152.293V148.525L921.817 154.954C908.092 157.17 901.229 162.934 901.229 172.245C901.229 177.343 903.222 181.555 907.206 184.659Z" fill="#1C2E2D"/>
<path d="M1137.44 213.477V193.747H1134.56C1123.49 209.708 1107.33 217.467 1086.52 217.467C1074.79 217.467 1063.94 214.363 1053.98 208.156C1044.02 201.949 1036.05 192.861 1029.85 181.112C1023.87 169.363 1020.77 155.84 1020.77 140.544C1020.77 125.249 1023.87 111.726 1029.85 99.9772C1035.83 88.2282 1044.02 79.1394 1053.98 72.9324C1063.94 66.7253 1074.79 63.6218 1086.52 63.6218C1107.55 63.6218 1123.27 71.1589 1134.12 86.4548H1137V7.75876H1173.97V213.477H1137.44ZM1068.81 107.293C1061.29 115.273 1057.74 126.357 1057.74 140.544C1057.74 154.732 1061.51 165.816 1068.81 173.796C1076.34 181.777 1085.86 185.767 1097.59 185.767C1109.32 185.767 1118.84 181.777 1126.37 173.796C1133.9 165.816 1137.44 154.732 1137.44 140.544C1137.44 126.357 1133.68 115.273 1126.37 107.293C1118.84 99.3121 1109.32 95.3219 1097.59 95.3219C1085.86 95.3219 1076.12 99.3121 1068.81 107.293Z" fill="#1C2E2D"/>
<path d="M1205.4 99.7555C1211.6 88.2282 1220.23 79.361 1231.3 72.9324C1242.37 66.5037 1254.99 63.4002 1269.16 63.4002C1283.11 63.4002 1295.28 66.5037 1306.13 72.7107C1316.98 78.9177 1325.17 87.5632 1331.14 98.8688C1337.12 110.174 1340 123.253 1340 138.106V151.85H1233.96C1234.85 161.382 1238.61 169.584 1245.47 176.013C1252.33 182.442 1260.75 185.767 1270.93 185.767C1287.09 185.767 1299.49 178.23 1307.9 163.377L1337.56 181.555C1333.14 187.762 1328.49 193.304 1323.62 198.181C1318.75 203.058 1311.89 207.491 1303.03 211.482C1294.17 215.472 1283.33 217.467 1270.93 217.467C1256.32 217.467 1243.26 214.142 1231.97 207.491C1220.68 200.841 1211.82 191.531 1205.62 179.56C1199.43 167.589 1196.33 154.289 1196.33 139.214C1196.1 124.362 1199.2 111.283 1205.4 99.7555ZM1302.37 126.135C1301.48 116.603 1297.94 109.066 1291.96 103.524C1285.98 97.9821 1278.24 95.3219 1268.94 95.3219C1258.75 95.3219 1250.78 97.9821 1244.81 103.524C1238.83 109.066 1235.51 116.603 1234.18 126.135H1302.37Z" fill="#1C2E2D"/>
</svg>
