<svg width="34" height="34" viewBox="0 0 34 34" fill="none" xmlns="http://www.w3.org/2000/svg">
<path d="M2.51833 8.87667C1.82723 8.75442 1.82722 7.74557 2.51833 7.62332C5.02208 7.1804 7.01348 5.2412 7.55693 2.71675L7.59858 2.52325C7.7481 1.8287 8.72065 1.82438 8.87615 2.51757L8.92673 2.74307C9.4903 5.2556 11.4822 7.17842 13.979 7.62012C14.6736 7.743 14.6736 8.757 13.979 8.87987C11.4822 9.32157 9.4903 11.2444 8.92673 13.7569L8.87615 13.9824C8.72065 14.6756 7.7481 14.6713 7.59858 13.9767L7.55693 13.7832C7.01348 11.2588 5.02208 9.3196 2.51833 8.87667Z" fill="white"/>
<path d="M11.6312 22.4403C10.4563 22.2325 10.4563 20.5175 11.6312 20.3096C15.8876 19.5567 19.2729 16.26 20.1968 11.9685L20.2676 11.6395C20.5218 10.4588 22.1751 10.4514 22.4395 11.6299L22.5254 12.0132C23.4835 16.2845 26.8698 19.5533 31.1143 20.3042C32.2952 20.5131 32.2952 22.2369 31.1143 22.4458C26.8698 23.1967 23.4835 26.4655 22.5254 30.7367L22.4395 31.1202C22.1751 32.2985 20.5218 32.2912 20.2676 31.1105L20.1968 30.7815C19.2729 26.49 15.8876 23.1933 11.6312 22.4403Z" fill="#CDF348"/>
<path d="M2.51833 8.87667C1.82723 8.75442 1.82722 7.74557 2.51833 7.62332C5.02208 7.1804 7.01348 5.2412 7.55693 2.71675L7.59858 2.52325C7.7481 1.8287 8.72065 1.82438 8.87615 2.51757L8.92673 2.74307C9.4903 5.2556 11.4822 7.17842 13.979 7.62012C14.6736 7.743 14.6736 8.757 13.979 8.87987C11.4822 9.32157 9.4903 11.2444 8.92673 13.7569L8.87615 13.9824C8.72065 14.6756 7.7481 14.6713 7.59858 13.9767L7.55693 13.7832C7.01348 11.2588 5.02208 9.3196 2.51833 8.87667Z" stroke="#395577" stroke-width="2.2" stroke-linecap="round"/>
<path d="M2.51833 8.87667C1.82723 8.75442 1.82722 7.74557 2.51833 7.62332C5.02208 7.1804 7.01348 5.2412 7.55693 2.71675L7.59858 2.52325C7.7481 1.8287 8.72065 1.82438 8.87615 2.51757L8.92673 2.74307C9.4903 5.2556 11.4822 7.17842 13.979 7.62012C14.6736 7.743 14.6736 8.757 13.979 8.87987C11.4822 9.32157 9.4903 11.2444 8.92673 13.7569L8.87615 13.9824C8.72065 14.6756 7.7481 14.6713 7.59858 13.9767L7.55693 13.7832C7.01348 11.2588 5.02208 9.3196 2.51833 8.87667Z" stroke="#395577" stroke-width="2.2" stroke-linecap="round"/>
<path d="M11.6312 22.4403C10.4563 22.2325 10.4563 20.5175 11.6312 20.3096C15.8876 19.5567 19.2729 16.26 20.1968 11.9685L20.2676 11.6395C20.5218 10.4588 22.1751 10.4514 22.4395 11.6299L22.5254 12.0132C23.4835 16.2845 26.8698 19.5533 31.1143 20.3042C32.2952 20.5131 32.2952 22.2369 31.1143 22.4458C26.8698 23.1967 23.4835 26.4655 22.5254 30.7367L22.4395 31.1202C22.1751 32.2985 20.5218 32.2912 20.2676 31.1105L20.1968 30.7815C19.2729 26.49 15.8876 23.1933 11.6312 22.4403Z" stroke="#395577" stroke-width="2.2" stroke-linecap="round"/>
<path d="M11.6312 22.4403C10.4563 22.2325 10.4563 20.5175 11.6312 20.3096C15.8876 19.5567 19.2729 16.26 20.1968 11.9685L20.2676 11.6395C20.5218 10.4588 22.1751 10.4514 22.4395 11.6299L22.5254 12.0132C23.4835 16.2845 26.8698 19.5533 31.1143 20.3042C32.2952 20.5131 32.2952 22.2369 31.1143 22.4458C26.8698 23.1967 23.4835 26.4655 22.5254 30.7367L22.4395 31.1202C22.1751 32.2985 20.5218 32.2912 20.2676 31.1105L20.1968 30.7815C19.2729 26.49 15.8876 23.1933 11.6312 22.4403Z" stroke="#395577" stroke-width="2.2" stroke-linecap="round"/>
</svg>
