<svg width="33" height="34" viewBox="0 0 33 34" fill="none" xmlns="http://www.w3.org/2000/svg">
<path d="M12.693 2.30928H2.6782C2.02751 2.30928 1.5 2.83678 1.5 3.48748V13.5022C1.5 14.1529 2.02751 14.6804 2.6782 14.6804H12.693C13.3437 14.6804 13.8712 14.1529 13.8712 13.5022V3.48748C13.8712 2.83678 13.3437 2.30928 12.693 2.30928Z" fill="#CDF348"/>
<path d="M30.0126 19.6289H19.9978C19.3471 19.6289 18.8196 20.1564 18.8196 20.8071V30.8218C18.8196 31.4725 19.3471 32 19.9978 32H30.0126C30.6633 32 31.1908 31.4725 31.1908 30.8218V20.8071C31.1908 20.1564 30.6633 19.6289 30.0126 19.6289Z" fill="#CDF348"/>
<path d="M19.049 9.14609C18.3308 9.01903 18.3308 7.97065 19.049 7.8436C21.6508 7.38335 23.7202 5.36816 24.285 2.74484L24.3283 2.54376C24.4836 1.82199 25.4944 1.8175 25.6559 2.53785L25.7084 2.77218C26.294 5.38313 28.364 7.38129 30.9587 7.84029C31.6804 7.96798 31.6804 9.02171 30.9587 9.1494C28.364 9.6084 26.294 11.6066 25.7084 14.2175L25.6559 14.4518C25.4944 15.1722 24.4836 15.1677 24.3283 14.4459L24.285 14.2448C23.7202 11.6215 21.6508 9.60637 19.049 9.14609Z" fill="white"/>
<path d="M12.693 2.30928H2.6782C2.02751 2.30928 1.5 2.83678 1.5 3.48748V13.5022C1.5 14.1529 2.02751 14.6804 2.6782 14.6804H12.693C13.3437 14.6804 13.8712 14.1529 13.8712 13.5022V3.48748C13.8712 2.83678 13.3437 2.30928 12.693 2.30928Z" stroke="#395577" stroke-width="2.2"/>
<path d="M30.0126 19.6289H19.9978C19.3471 19.6289 18.8196 20.1564 18.8196 20.8071V30.8218C18.8196 31.4725 19.3471 32 19.9978 32H30.0126C30.6633 32 31.1908 31.4725 31.1908 30.8218V20.8071C31.1908 20.1564 30.6633 19.6289 30.0126 19.6289Z" stroke="#395577" stroke-width="2.2"/>
<path d="M19.049 9.14609C18.3308 9.01903 18.3308 7.97065 19.049 7.8436C21.6508 7.38335 23.7202 5.36816 24.285 2.74484L24.3283 2.54376C24.4836 1.82199 25.4944 1.8175 25.6559 2.53785L25.7084 2.77218C26.294 5.38313 28.364 7.38129 30.9587 7.84029C31.6804 7.96798 31.6804 9.02171 30.9587 9.1494C28.364 9.6084 26.294 11.6066 25.7084 14.2175L25.6559 14.4518C25.4944 15.1722 24.4836 15.1677 24.3283 14.4459L24.285 14.2448C23.7202 11.6215 21.6508 9.60637 19.049 9.14609Z" stroke="#395577" stroke-width="2.2"/>
<path d="M12.693 2.30928H2.6782C2.02751 2.30928 1.5 2.83678 1.5 3.48748V13.5022C1.5 14.1529 2.02751 14.6804 2.6782 14.6804H12.693C13.3437 14.6804 13.8712 14.1529 13.8712 13.5022V3.48748C13.8712 2.83678 13.3437 2.30928 12.693 2.30928Z" stroke="#395577" stroke-width="2.2"/>
<path d="M12.693 19.6289H2.6782C2.02751 19.6289 1.5 20.1564 1.5 20.8071V30.8218C1.5 31.4725 2.02751 32 2.6782 32H12.693C13.3437 32 13.8712 31.4725 13.8712 30.8218V20.8071C13.8712 20.1564 13.3437 19.6289 12.693 19.6289Z" stroke="#395577" stroke-width="2.2"/>
<path d="M30.0126 19.6289H19.9978C19.3471 19.6289 18.8196 20.1564 18.8196 20.8071V30.8218C18.8196 31.4725 19.3471 32 19.9978 32H30.0126C30.6633 32 31.1908 31.4725 31.1908 30.8218V20.8071C31.1908 20.1564 30.6633 19.6289 30.0126 19.6289Z" stroke="#395577" stroke-width="2.2"/>
<path d="M19.049 9.14609C18.3308 9.01903 18.3308 7.97065 19.049 7.8436C21.6508 7.38335 23.7202 5.36816 24.285 2.74484L24.3283 2.54376C24.4836 1.82199 25.4944 1.8175 25.6559 2.53785L25.7084 2.77218C26.294 5.38313 28.364 7.38129 30.9587 7.84029C31.6804 7.96798 31.6804 9.02171 30.9587 9.1494C28.364 9.6084 26.294 11.6066 25.7084 14.2175L25.6559 14.4518C25.4944 15.1722 24.4836 15.1677 24.3283 14.4459L24.285 14.2448C23.7202 11.6215 21.6508 9.60637 19.049 9.14609Z" stroke="#395577" stroke-width="2.2"/>
</svg>
