<svg width="34" height="33" viewBox="0 0 34 33" fill="none" xmlns="http://www.w3.org/2000/svg">
<path d="M2 28.9388V25.2653C2 23.9128 3.1193 22.8163 4.5 22.8163H8.25C9.6307 22.8163 10.75 23.9128 10.75 25.2653V28.9388C10.75 30.2913 9.6307 31.3878 8.25 31.3878H4.5C3.1193 31.3878 2 30.2913 2 28.9388Z" fill="#CDF348"/>
<path d="M2 8.12245V4.44898C2 3.09646 3.1193 2 4.5 2H8.25C9.6307 2 10.75 3.09646 10.75 4.44898V8.12245C10.75 9.47497 9.6307 10.5714 8.25 10.5714H4.5C3.1193 10.5714 2 9.47497 2 8.12245Z" fill="#CDF348"/>
<path d="M29.5 2H25.75C24.3693 2 23.25 3.09646 23.25 4.44898V8.12245C23.25 9.47497 24.3693 10.5714 25.75 10.5714H29.5C30.8808 10.5714 32 9.47497 32 8.12245V4.44898C32 3.09646 30.8808 2 29.5 2Z" fill="#CDF348"/>
<path d="M2 28.9388V25.2653C2 23.9128 3.1193 22.8163 4.5 22.8163H8.25C9.6307 22.8163 10.75 23.9128 10.75 25.2653V28.9388C10.75 30.2913 9.6307 31.3878 8.25 31.3878H4.5C3.1193 31.3878 2 30.2913 2 28.9388Z" fill="#CDF348"/>
<path d="M2 8.12245V4.44898C2 3.09646 3.1193 2 4.5 2H8.25C9.6307 2 10.75 3.09646 10.75 4.44898V8.12245C10.75 9.47497 9.6307 10.5714 8.25 10.5714H4.5C3.1193 10.5714 2 9.47497 2 8.12245Z" fill="#CDF348"/>
<path d="M10.75 6.28571H23.25H10.75Z" fill="#CDF348"/>
<path d="M23.9823 9.85395L10.0179 23.5334L23.9823 9.85395Z" fill="#CDF348"/>
<path d="M10.75 27.102H32H10.75Z" fill="#CDF348"/>
<path d="M27 32L32 27.102L27 22.2041" fill="#CDF348"/>
<path d="M10.75 6.28571H23.25M23.9824 9.85395L10.0179 23.5334M10.75 27.102H32M32 27.102L27 32M32 27.102L27 22.2041M2 28.9388V25.2653C2 23.9128 3.1193 22.8163 4.5 22.8163H8.25C9.6307 22.8163 10.75 23.9128 10.75 25.2653V28.9388C10.75 30.2913 9.6307 31.3878 8.25 31.3878H4.5C3.1193 31.3878 2 30.2913 2 28.9388ZM2 8.12245V4.44898C2 3.09646 3.1193 2 4.5 2H8.25C9.6307 2 10.75 3.09646 10.75 4.44898V8.12245C10.75 9.47497 9.6307 10.5714 8.25 10.5714H4.5C3.1193 10.5714 2 9.47497 2 8.12245ZM29.5 2H25.75C24.3693 2 23.25 3.09646 23.25 4.44898V8.12245C23.25 9.47497 24.3693 10.5714 25.75 10.5714H29.5C30.8807 10.5714 32 9.47497 32 8.12245V4.44898C32 3.09646 30.8807 2 29.5 2Z" stroke="#395577" stroke-width="2.2"/>
</svg>
