<svg width="33" height="34" viewBox="0 0 33 34" fill="none" xmlns="http://www.w3.org/2000/svg">
<path d="M1.5 4.5V29.5C1.5 30.8808 2.6193 32 4 32H29C30.3808 32 31.5 30.8808 31.5 29.5V4.5C31.5 3.11927 30.3808 2 29 2H4C2.6193 2 1.5 3.1193 1.5 4.5Z" fill="#CDF348"/>
<path d="M1.5 4.5V29.5C1.5 30.8808 2.6193 32 4 32H29C30.3808 32 31.5 30.8808 31.5 29.5V4.5C31.5 3.11927 30.3808 2 29 2H4C2.6193 2 1.5 3.1193 1.5 4.5Z" fill="#CDF348"/>
<path d="M7.75 8.25H12.75H7.75Z" fill="#CDF348"/>
<path d="M7.75 13.875H16.5H7.75Z" fill="#CDF348"/>
<path d="M25.25 17L19 25.75L12.75 20.75L7.75 25.75" fill="#CDF348"/>
<path d="M7.75 8.25H12.75M7.75 13.875H16.5M25.25 17L19 25.75L12.75 20.75L7.75 25.75M1.5 4.5V29.5C1.5 30.8807 2.6193 32 4 32H29C30.3807 32 31.5 30.8807 31.5 29.5V4.5C31.5 3.11927 30.3807 2 29 2H4C2.6193 2 1.5 3.1193 1.5 4.5Z" stroke="#395577" stroke-width="2.2"/>
</svg>
