<svg xmlns="http://www.w3.org/2000/svg" width="152" height="57" version="1.1" viewBox="0 0 152 57"><g id="Careers" fill="none" fill-rule="evenodd" stroke="none" stroke-width="1"><g id="Navigation-/-Desktop-/-Default" fill-rule="nonzero" transform="translate(-41 -26)"><g id="Smithfield_GoodFood_Stacked_COLOR" transform="translate(41.979 26.004)"><g id="Group" fill="#000" transform="translate(.152)"><path id="Shape" d="M137.783 21.876h6.435v-3.69h-1.434V2.998h-7.227V6.72h1.952v3.63c-1.16-.977-2.47-1.648-3.935-1.648-4.178 0-6.13 2.928-6.13 6.831 0 3.447 2.196 6.77 5.917 6.77 1.769.092 3.233-.64 4.452-1.92v1.494h-.03Zm-2.47-4.087c-1.373 0-2.41-1.067-2.41-2.44 0-1.31 1.068-2.47 2.41-2.47a2.48 2.48 0 0 1 2.47 2.47c0 1.373-1.159 2.44-2.47 2.44Z"/><path id="Path" d="M16.895 8.305V2.998h-4.696v1.434c-1.525-1.403-2.959-1.86-4.971-1.86C2.562 2.571 0 5.498 0 8.548c0 4.056 3.02 5.215 6.008 5.825 3.019.61 6.008.61 6.008 2.287 0 1.28-1.434 1.555-2.654 1.555-.853 0-1.646-.183-2.287-.549-.64-.366-1.19-.945-1.586-1.738H.64v5.947h4.666V20.35c1.281 1.494 3.203 1.921 5.032 1.921 4.056 0 7.136-2.165 7.136-6.343 0-4.3-2.988-5.55-5.946-6.13C8.539 9.19 5.58 9.25 5.58 7.603c0-1.006 1.25-1.372 2.287-1.372 1.006 0 1.86.183 2.562.549.701.366 1.28.854 1.738 1.525h4.727ZM24.824 9.128h-6.16v3.72h1.372v5.338h-1.372v3.72h8.05v-3.72h-1.371V14.22c0-1.22.731-1.555 1.555-1.555 1.006 0 1.494.396 1.494 1.555v7.685h6.679v-3.72h-1.372V14.22c0-1.342.64-1.555 1.494-1.555 1.006 0 1.555.427 1.555 1.494v7.777h6.679v-3.751h-1.372v-5.337c0-2.867-1.586-4.117-4.026-4.117-1.708 0-3.263.61-4.513 1.769-.976-1.25-2.166-1.83-3.812-1.77-1.83-.03-3.599.672-4.85 2.075V9.128h-.03ZM53.064 18.186H51.57V9.128h-6.74v3.72h1.464v5.338H44.83v3.69h8.234zM102.041 18.186h-1.494V9.128h-6.74v3.812h1.464v5.246h-1.464v3.69h8.234zM63.494 6.719h1.402v11.436h-1.463v3.72h8.234v-3.69h-1.495v-3.903c0-1.555 1.16-1.83 1.922-1.83.793 0 1.707.275 1.707 1.83v7.594h6.954v-3.69H79.23V12.3c0-1.89-.61-3.599-4.209-3.599-1.342 0-2.53.153-4.849.976V2.998h-6.678V6.72Z"/><path id="Shape" d="M112.806 17.85c-.457.793-1.311 1.16-2.195 1.16-1.708 0-2.562-.885-2.501-2.471h9.728c0-5.154-2.073-7.838-7.41-7.838-4.24 0-7.777 2.379-7.777 6.892 0 3.355 2.013 6.68 8.204 6.68 2.53 0 5.458-1.038 6.526-3.538l-4.575-.885Zm-4.788-3.385c0-1.372.824-2.562 2.562-2.562 1.647 0 2.196 1.068 2.196 2.562h-4.758Z"/><path id="Path" d="M118.448 6.719h1.586v11.467h-1.586v3.69h8.356v-3.69h-1.494V2.998h-6.862zM48.703 7.634c-1.616 0-2.897-1.281-2.897-2.928 0-1.555 1.28-2.958 2.897-2.958 1.586 0 2.988 1.311 2.988 2.958 0 1.647-1.372 2.928-2.988 2.928ZM60.17 3.456v5.672h1.768v3.72H60.17v3.874c0 1.006.274 1.19 1.006 1.19h.762v3.994h-3.873c-2.104 0-3.202-.976-3.202-3.019V12.85H53.37v-3.72h1.494V5.834c1.708 0 2.958-.915 3.294-2.38h2.013ZM90.91 7.115a36.187 36.187 0 0 0-.64 2.013h2.195v3.812h-3.019c-1.22 4.24-2.135 7.502-2.958 9.973-.762 2.348-1.464 3.781-2.47 5.154-1.495 2.104-3.965 2.744-5.825 2.836-1.159.06-2.775-.275-3.355-.793l1.129-2.653c.335.122.732.152 1.128.152.945 0 1.982-.335 2.775-1.372.915-1.16 1.342-2.501 2.074-4.94a403.443 403.443 0 0 0 2.348-8.326h-3.14V9.128h4.238c.336-.945.884-2.257 1.433-3.507 0 0 .61-1.28 1.647-2.562C89.538 1.718 90.727.65 92.587.223c1.464-.366 2.653-.244 3.751.092 1.373.427 2.318 1.464 2.867 2.378.549.915.823 2.318.427 3.416-.397 1.067-1.433 1.677-2.287 1.586-.854-.092-1.586-.61-1.891-1.281-.336-.67-.183-1.433-.061-1.647.091-.213.396-.518.396-.518s-.06-.366-.457-.55c-.244-.121-1.19-.396-2.318.489-1.22.884-1.769 1.952-2.104 2.927Z"/></g><path id="Shape" fill="#000" d="M145.01 20.198c0-.945.763-1.707 1.708-1.707.946 0 1.708.762 1.708 1.707 0 .946-.762 1.708-1.708 1.708a1.725 1.725 0 0 1-1.707-1.708Zm3.111 0c0-.762-.61-1.372-1.372-1.372-.762 0-1.403.61-1.403 1.372a1.4 1.4 0 0 0 1.403 1.403c.762 0 1.372-.61 1.372-1.403Zm-.518.946h-.427l-.397-.793h-.366v.793h-.365v-1.86h.884c.152 0 .366 0 .488.091.152.122.213.275.213.488 0 .335-.183.488-.518.488l.488.793Zm-.671-1.068c.213 0 .335-.03.335-.274 0-.244-.274-.244-.427-.244h-.457v.518h.549Z"/><g id="Group" fill="#D36228" transform="translate(0 34.593)"><path id="Path" d="M8.783 0c-1.83 0-3.934 1.677-5.794 4.635-1.586 2.501-2.715 5.52-2.715 7.29 0 1.219.55 1.829 1.586 1.829.976 0 1.77-.58 2.41-1.159.914-.793 1.799-1.8 2.622-2.958.397.945 1.098 2.653 1.098 6.069 0 1.464-.213 2.683-.61 3.66-.396 1.067-.915 1.524-1.738 1.524-1.159 0-3.324-1.037-4.24-3.263a1.236 1.236 0 0 1-.09-.305c-.306-.915-.367-.945-.428-.945-.091 0-.884.427-.884.701 0 .549 2.379 4.727 5.49 4.727.579 0 1.616-.153 2.317-1.25.763-1.25 1.159-3.08 1.159-5.276 0-2.653-.488-4.94-1.494-7.045-.305-.61-.397-.732-.61-.732-.092 0-.976.366-.976.64 0 .092.06.214.091.245.122.152.183.243.244.304s.092.122.122.153c-.61.854-1.159 1.616-2.256 2.745-.519.518-1.129 1.067-1.83 1.067-.732 0-.854-.67-.854-1.067C1.403 8.112 5.642.945 8.234.945c.244 0 .366.03.488.153l.03.03c.183.183.275.305.366.305.183 0 .458-.335.458-.854C9.546.396 9.546 0 8.783 0Z"/><path id="Shape" d="M13.449 6.221c-.305 0-.519.092-.64.183a.543.543 0 0 0-.397-.183c-1.098 0-2.348 1.739-2.348 3.995 0 1.739.793 3.63 2.531 3.63.945 0 1.83-.55 2.47-1.495.55-.823.885-1.89.885-2.836 0-1.982-1.281-3.294-2.501-3.294Zm1.494 3.69c0 1.678-1.098 2.928-2.073 2.928-.915 0-1.86-1.037-1.86-2.989 0-1.524.67-2.47.945-2.47.091 0 .122.03.244.122l.091.092c.03.03.092.122.214.122.244 0 .457-.305.548-.61.366-.03.732.091 1.037.335.519.458.854 1.433.854 2.47ZM20.25 6.221c-.305 0-.519.122-.64.183a.543.543 0 0 0-.397-.183c-1.098 0-2.348 1.739-2.348 3.995 0 1.739.792 3.63 2.53 3.63.946 0 1.83-.55 2.471-1.495.549-.823.884-1.89.884-2.836-.03-1.982-1.311-3.294-2.5-3.294Zm1.494 3.69c0 1.678-1.098 2.928-2.074 2.928-.915 0-1.86-1.037-1.86-2.989 0-1.524.67-2.47.945-2.47.092 0 .122.03.244.122.03.03.061.061.092.061.03.03.091.122.213.122.244 0 .458-.305.55-.61.365-.03.731.092 1.036.336.488.488.854 1.463.854 2.5ZM30.893 13.144c-.427 0-.61-.976-.793-1.8v-.03c-.152-.915-.457-2.623-.457-5.916 0-1.647.06-2.318.152-3.02l.183-1.31c0-.184-.152-.275-.457-.275a.969.969 0 0 0-.61.244c-.244.152-.244.274-.244.945 0 1.434.06 2.897.091 4.27a.902.902 0 0 0-.305-.061c-1.83 0-4.788 4.666-4.788 6.953 0 .488.275.823.671.823 1.098 0 3.477-2.592 4.575-4.97.06.731.183 2.012.457 3.171v.03c.153.641.427 1.739 1.22 1.739.396 0 .701-.397.701-.58-.03-.213-.183-.213-.396-.213Zm-2.41-5.58c0 1.28-3.11 5.397-3.842 5.397-.03 0-.091 0-.091-.213 0-.397.457-1.77 1.159-2.99.792-1.31 1.982-2.591 2.47-2.591.244 0 .305.335.305.396Z"/><path id="Path" d="M40.53 17.749c-.061 0-.122.03-.275.091-.091.03-.244.092-.305.092-.213 0-.945-.214-1.372-3.11-.305-2.166-.427-5.643-.457-7.533.853-.488 1.768-.732 2.012-.732.03 0 .122.03.183.06.122.062.183.092.214.092.213 0 .701-.366.732-.427.122-.091.152-.396.152-.457 0-.153-.152-.214-.427-.214-.854 0-2.074.397-2.897.793.03-3.812.854-4.666 1.067-4.666.03 0 .092.03.122.061.092.03.122.061.183.061.183 0 .55-.366.55-.823 0-.427-.458-.519-.641-.519-1.006 0-1.464 1.037-1.677 1.495-.58 1.372-.64 3.08-.64 4.849l-.062.03c-1.921 1.098-1.921 1.098-1.921 1.312 0 .183.244.487.457.487.092 0 1.129-.64 1.495-.884 0 .884.091 4.3.396 6.587v.061c.153 1.037.61 4.209 2.41 4.209.518 0 .914-.366.914-.58.061-.213-.06-.335-.213-.335Z"/><path id="Shape" d="M44.555 6.221c-.305 0-.518.122-.64.183a.543.543 0 0 0-.397-.183c-1.097 0-2.348 1.739-2.348 3.995 0 1.739.793 3.63 2.531 3.63.946 0 1.83-.55 2.47-1.495.55-.823.885-1.89.885-2.836 0-1.982-1.28-3.294-2.5-3.294Zm1.495 3.69c0 1.678-1.098 2.928-2.074 2.928-.915 0-1.86-1.037-1.86-2.989 0-1.524.67-2.47.945-2.47.091 0 .122.03.244.122l.091.092c.031.03.092.122.214.122.244 0 .457-.305.549-.61.366-.03.732.091 1.037.335.518.458.854 1.433.854 2.47ZM51.356 6.221c-.305 0-.518.122-.64.183a.543.543 0 0 0-.397-.183c-1.098 0-2.348 1.739-2.348 3.995 0 1.739.793 3.63 2.531 3.63.946 0 1.83-.55 2.47-1.495.55-.823.885-1.89.885-2.836-.03-1.982-1.312-3.294-2.501-3.294Zm1.494 3.69c0 1.678-1.098 2.928-2.073 2.928-.915 0-1.86-1.037-1.86-2.989 0-1.524.67-2.47.945-2.47.091 0 .122.03.244.122.03.03.06.061.091.061.03.03.092.122.214.122.244 0 .457-.305.549-.61.366-.03.731.092 1.036.336.488.488.854 1.463.854 2.5ZM61.969 13.144c-.427 0-.61-.945-.793-1.8v-.03c-.153-.915-.458-2.623-.458-5.916 0-1.616.061-2.287.153-3.02l.183-1.31c0-.184-.153-.275-.458-.275a.969.969 0 0 0-.61.244c-.243.152-.243.274-.243.945 0 1.464.06 2.958.091 4.27-.091-.03-.183-.061-.305-.061-1.83 0-4.788 4.666-4.788 6.953 0 .488.275.823.671.823 1.098 0 3.477-2.592 4.575-4.97.06.67.183 2.012.457 3.171v.03c.152.641.427 1.739 1.22 1.739.396 0 .701-.397.701-.58-.03-.213-.152-.213-.396-.213Zm-6.221-.183c-.031 0-.092 0-.092-.213 0-.397.457-1.77 1.159-2.99.793-1.31 1.982-2.591 2.47-2.591.244 0 .305.305.305.366 0 1.311-3.11 5.428-3.842 5.428Z"/><path id="Path" d="M64.317 12.168c-.427 0-.823.397-.823.884 0 .488.366.885.823.885.457 0 .823-.397.823-.885 0-.487-.366-.884-.823-.884ZM82.554 12.991c-.397 0-3.72-.945-6.953-5.123 2.44-.61 6.19-3.233 6.19-5.367 0-1.098-1.28-1.739-3.598-1.739-2.684 0-5.672.854-8.905 2.562C66.33 4.91 65.75 6.1 65.75 6.344c0 .182.183.426.458.426.244 0 .335-.122.549-.396.732-1.16 3.263-2.684 6.19-3.751C72.43 5.886 71.79 9.91 71.79 12.93c0 .336 0 1.007.03 1.342.092.55.244.763.64.763.275 0 .61-.214.61-.488 0-.122-.121-.55-.121-.55-.061-.335-.092-.853-.092-1.341 0-1.464.427-6.679 1.464-10.43 1.067-.366 2.806-.58 3.964-.58.824 0 2.196.153 2.196 1.19 0 .58-.457 1.342-1.28 2.135-1.282 1.22-3.05 2.196-4.026 2.196-.153-.275-.183-.336-.336-.336 0 0-1.006.122-1.006.458 0 .091.793 1.463 2.226 2.866 2.257 2.227 5.185 3.72 6.13 3.72.274 0 1.006-.182 1.006-.579-.03-.305-.122-.305-.64-.305Z"/><path id="Shape" d="M88.44 11.314c-.183 0-.427.214-.671.427l.06.061-.06-.03c-.488.427-1.434 1.25-2.226 1.25a.768.768 0 0 1-.61-.274c-.305-.336-.458-.976-.427-1.739 1.311-.915 2.653-2.805 2.653-4.33 0-1.007-.732-1.068-.946-1.068-.823 0-1.555.702-2.073 2.044-.488 1.25-.64 2.622-.64 3.507 0 .823.182 2.775 1.92 2.775.854 0 1.678-.458 2.745-1.494.336-.336.55-.55.55-.824-.031-.152-.123-.305-.275-.305Zm-2.227-4.391c0 .61-.792 2.165-1.707 2.927.244-1.402.915-3.293 1.464-3.293.213 0 .243.213.243.366Z"/><path id="Path" d="M91.123 7.014c0-.122.153-.122.183-.122.336 0 1.342.397 1.708 1.129.275.549.305.61.519.61.122 0 .335-.092.457-.244a.392.392 0 0 0 .122-.366c-.122-.854-1.738-1.983-3.233-1.983-.64 0-.945.244-.945.793 0 .671.396 1.312 1.921 3.72.458.672 1.312 2.136 1.312 2.471 0 .122-.122.366-.58.366-1.037 0-3.019-1.098-3.019-2.043 0-.03.03-.153.061-.275.061-.183.092-.335.092-.396 0-.122-.092-.305-.305-.305-.275 0-.702.305-.702.915 0 1.372 2.074 2.958 3.873 2.958.915 0 1.556-.55 1.556-1.342 0-.61-.214-.945-1.464-2.867-.488-.915-1.556-2.744-1.556-3.019Z"/><path id="Shape" d="M100.669 6.19c-1.281 0-2.623 1.22-3.568 2.227.122-.64.396-2.196.396-2.318 0-.183-.183-.274-.335-.274-.03 0-.427.03-.763.183-.213.122-.213.213-.244.64v.061c-.274 4.087-.427 5.947-.427 7.93 0 2.439.153 3.232.305 3.72.03.183.275 1.037 1.007 1.037.488 0 .945-.427.945-.763 0-.213-.091-.335-.244-.335-.06 0-.122.03-.274.122-.092.03-.214.122-.244.122-.244 0-.336-.427-.397-.885-.091-.792-.122-1.982-.091-3.781.854-.061 1.921-.763 2.561-1.372 1.983-1.739 2.867-4.087 2.867-4.88.03-.67-.366-1.433-1.494-1.433Zm.457 1.465c0 1.677-2.196 4.94-4.391 5.275.06-1.616.091-1.92.183-2.714l.03-.305c.885-1.189 2.714-2.866 3.63-2.866.518 0 .548.488.548.61ZM106.402 6.221c-.305 0-.518.092-.64.183a.543.543 0 0 0-.397-.183c-1.098 0-2.348 1.739-2.348 3.995 0 1.739.793 3.63 2.531 3.63.946 0 1.83-.55 2.47-1.495.55-.823.885-1.89.885-2.836 0-1.982-1.312-3.294-2.5-3.294Zm1.494 3.69c0 1.678-1.097 2.928-2.073 2.928-.915 0-1.86-1.037-1.86-2.989 0-1.524.67-2.47.945-2.47.091 0 .122.03.244.122.03.03.06.061.091.061.03.03.092.122.214.122.244 0 .457-.305.549-.61.366-.03.732.092 1.037.336.518.488.853 1.463.853 2.5Z"/><path id="Path" d="M116.74 12.595c-.091 0-.152 0-.396.214-.183.152-.335.243-.549.243-1.006 0-1.25-2.683-1.25-4.086 0-.549.06-1.22.152-1.769 0-.03.03-.091.03-.152.092-.305.184-.61.184-.732a.333.333 0 0 0-.336-.305c-.61 0-.823.396-1.616 2.013-.793 1.494-1.129 2.195-1.952 3.964.092-.823.244-1.952.488-3.568l.092-.58c.091-.579.122-.67.122-.792 0-.244-.153-.366-.244-.366-.061 0-.824.366-.915.549-.092.244-.519 6.282-.519 6.343 0 .335.671.549.732.549.214 0 .244-.092.58-.824a94.241 94.241 0 0 1 2.256-4.848c0 .122-.03.243-.03.426 0 2.257.366 4.94 2.104 4.94.58 0 1.372-.396 1.372-.853-.03-.244-.152-.366-.305-.366ZM119.272 7.014c0-.122.152-.122.183-.122.335 0 1.341.397 1.707 1.129.275.549.305.61.519.61a.754.754 0 0 0 .457-.244.392.392 0 0 0 .122-.366c-.122-.854-1.738-1.983-3.232-1.983-.64 0-.946.244-.946.793 0 .671.397 1.312 1.922 3.72.457.672 1.31 2.136 1.31 2.471 0 .122-.121.366-.579.366-1.036 0-3.019-1.098-3.019-2.043 0-.03.03-.153.061-.275.061-.183.092-.335.092-.396 0-.122-.092-.305-.305-.305-.275 0-.702.305-.702.915 0 1.372 2.074 2.958 3.873 2.958.915 0 1.556-.55 1.556-1.342 0-.61-.214-.945-1.464-2.867-.518-.915-1.555-2.744-1.555-3.019ZM125.462 13.174c-.427-.06-.67-1.22-.67-3.171 0-1.281.091-1.982.213-2.5 0-.031.03-.123.061-.184.091-.274.152-.518.152-.61a.338.338 0 0 0-.335-.335c-.305 0-.67.244-.793.396-.183.183-.244.885-.244 2.196 0 .884.061 2.653.244 3.69v.061c.092.457.275 1.403 1.037 1.403.305 0 .823-.183.823-.58 0-.244-.06-.274-.488-.366ZM124.67 4.849c.335 0 .457-.153.457-.336 0-.03 0-.091-.03-.183 0-.06-.031-.121-.031-.152-.03-.152-.03-.366-.03-.518 0-.183 0-.366.06-.671 0-.061.03-.122.061-.153.061-.183.122-.366.122-.549 0-.152-.152-.244-.305-.244-.579 0-.853.214-.853.64-.03 1.983.06 2.166.549 2.166Z"/><path id="Shape" d="M131.928 5.733c-1.037 0-2.288.915-3.141 2.318.06-1.586.122-2.989.518-5.245.061-.183.305-1.373.305-1.434 0-.183-.122-.305-.275-.305-.305 0-.914.366-1.006.58-.091.213-.396 4.36-.396 6.282 0 3.843.732 6.13 1.951 6.13 1.342 0 3.477-4.33 3.477-6.435-.03-1.19-.549-1.89-1.433-1.89Zm.518 1.983c0 1.616-1.738 5.275-2.5 5.275-.641 0-1.007-1.86-1.007-2.836 0-.64.091-1.403 1.128-2.47 0 0 .915-.976 1.586-.976.519 0 .793.397.793 1.007Z"/><path id="Path" d="M137.448 13.418c0-.06 0-.213-.214-.244-.274-.03-.427-.06-.61-.274-.518-.61-.701-3.355-.701-5.55 0-.885.06-2.684.244-3.812 0-.061.03-.153.06-.305.062-.336.153-.793.153-.946 0-.213-.122-.335-.305-.335-.213 0-.762.183-.915.396-.213.305-.213 2.196-.213 2.989 0 1.433.03 3.598.274 5.58.214 1.739.58 2.867 1.586 2.867.336.061.64-.122.64-.366Z"/><path id="Path" d="M142.296 4.849c-.091 0-.853.396-.853.64 0 .092.091.244.305.488.03.061.06.092.091.092 0 0 0 .03.03.03.214.427.336.854.336 1.281 0 1.769-1.982 5.977-2.257 6.1-.183-.092-.305-1.8-.305-2.867 0-.366.03-1.129.092-1.922.03-.152.091-1.036.091-1.128 0-.183-.122-.244-.213-.244-.153 0-.488.183-.55.275-.365.213-.396.457-.396.823 0 .244.061 3.05.244 4.635v.031c.061.366.214 1.372.976 1.372.976 0 2.104-2.805 2.897-5.306.214.976.61 2.989.61 5.398 0 1.25-.152 2.287-.427 3.14-.274.824-.793 1.22-1.524 1.22-1.647 0-3.416-1.707-3.873-3.17l-.031-.092c-.122-.397-.183-.55-.396-.55-.214 0-.427.184-.427.52 0 1.28 2.317 4.055 4.605 4.055 2.012 0 3.05-1.952 3.05-5.764 0-.305-.031-3.14-.855-6.526-.274-.732-.854-2.531-1.22-2.531ZM147.054 12.168c-.427 0-.824.397-.824.884 0 .488.366.885.824.885.457 0 .823-.397.823-.885 0-.487-.396-.884-.823-.884Z"/><path id="Shape" d="M149.372 3.355c0-.183-.061-.366-.214-.458-.152-.091-.335-.091-.488-.091h-.884v1.83h.366v-.793h.366l.396.762h.427l-.427-.762c.275 0 .458-.153.458-.488Zm-.702.244h-.518V3.08h.427c.183 0 .427 0 .427.244 0 .214-.122.275-.336.275Z"/><path id="Shape" d="M148.487 2.013c-.945 0-1.677.762-1.677 1.677 0 .945.762 1.677 1.677 1.677s1.678-.762 1.678-1.677-.763-1.677-1.678-1.677Zm0 3.05c-.762 0-1.372-.61-1.372-1.373 0-.762.61-1.372 1.372-1.372.763 0 1.373.61 1.373 1.372-.03.762-.64 1.372-1.373 1.372Z"/></g></g></g></g></svg>