<svg width="99" height="28" viewBox="0 0 99 28" fill="none" xmlns="http://www.w3.org/2000/svg">
<path d="M11.8294 0.88577C12.0259 0.88577 12.1241 0.98401 12.3206 1.08225C11.1417 1.57345 9.96283 2.85057 9.37339 5.60129L7.21211 6.19073C7.89979 4.22593 9.27515 0.88577 11.8294 0.88577ZM12.91 1.86817C13.1065 2.45761 13.303 3.14529 13.303 4.22593C13.303 4.32417 13.303 4.32417 13.303 4.42241L10.454 5.20833C11.0435 3.14529 12.0259 2.26113 12.91 1.86817ZM15.4643 3.63649L14.1871 4.02945C14.1871 3.93121 14.1871 3.83297 14.1871 3.73473C14.1871 2.85057 14.0889 2.16289 13.8924 1.57345C14.5801 1.76993 15.1695 2.65409 15.4643 3.63649ZM21.8499 5.20833C21.8499 5.11009 21.7516 5.01185 21.6534 5.01185C21.4569 5.01185 19.3939 4.81537 19.3939 4.81537C19.3939 4.81537 17.9203 3.34177 17.7238 3.24353C17.5273 3.04705 17.2326 3.14529 17.1343 3.14529C17.1343 3.14529 16.8396 3.24353 16.3484 3.44001C15.8572 2.06465 14.9731 0.78753 13.4995 0.78753H13.4012C13.0083 0.19809 12.4188 0.00161042 11.9276 0.00161042C8.39099 -0.0966295 6.72091 4.32417 6.13147 6.58369C5.34555 6.78017 4.55963 7.07489 3.67547 7.36961C2.88955 7.56609 2.88955 7.66433 2.79131 8.35201C2.69307 8.84321 0.728271 24.3651 0.728271 24.3651L16.3484 27.3123L24.7971 25.4458C24.7971 25.4458 21.8499 5.40481 21.8499 5.20833Z" fill="#8DB849"/>
<path d="M21.5551 5.01185C21.4569 5.01185 19.3939 4.81537 19.3939 4.81537C19.3939 4.81537 17.9203 3.34177 17.7238 3.24353C17.6255 3.14529 17.6255 3.14529 17.5273 3.14529L16.3484 27.3123L24.7971 25.4458C24.7971 25.4458 21.8499 5.40481 21.8499 5.20833C21.8499 5.11009 21.6534 5.01185 21.5551 5.01185Z" fill="#5A863E"/>
<path d="M13.4995 9.72737L12.4188 12.871C12.4188 12.871 11.5347 12.3798 10.3558 12.3798C8.68571 12.3798 8.58747 13.3622 8.58747 13.657C8.58747 15.0323 12.3206 15.6218 12.3206 18.9619C12.3206 21.6144 10.6505 23.2845 8.39099 23.2845C5.73851 23.2845 4.36315 21.6144 4.36315 21.6144L5.05083 19.2566C5.05083 19.2566 6.42619 20.4355 7.60507 20.4355C8.39099 20.4355 8.68571 19.8461 8.68571 19.3549C8.68571 17.4883 5.64027 17.3901 5.64027 14.3446C5.64027 11.7904 7.50683 9.33441 11.1417 9.33441C12.8118 9.23617 13.4995 9.72737 13.4995 9.72737Z" fill="#FFFFFE"/>
<path d="M34.7193 15.5235C33.8351 15.0323 33.4422 14.6394 33.4422 14.1482C33.4422 13.4605 34.0316 13.0675 35.014 13.0675C36.0947 13.0675 37.0771 13.5587 37.0771 13.5587L37.863 11.201C37.863 11.201 37.1753 10.6115 35.1123 10.6115C32.1651 10.6115 30.2003 12.2816 30.2003 14.6394C30.2003 16.0147 31.1827 16.9971 32.3615 17.6848C33.3439 18.2742 33.7369 18.6672 33.7369 19.2566C33.7369 19.8461 33.2457 20.4355 32.2633 20.4355C30.8879 20.4355 29.5126 19.7478 29.5126 19.7478L28.7267 22.1056C28.7267 22.1056 29.9055 22.8915 31.9686 22.8915C34.9158 22.8915 37.0771 21.4179 37.0771 18.7654C37.0771 17.2918 35.9964 16.2112 34.7193 15.5235ZM46.6063 10.5133C45.1327 10.5133 43.9538 11.201 43.0697 12.2816L44.3468 5.60129H41.0067L37.7647 22.5968H41.1049L42.1855 16.8006C42.5785 14.6394 43.7574 13.264 44.838 13.264C45.6239 13.264 45.9187 13.7552 45.9187 14.5411C45.9187 15.0323 45.9187 15.5235 45.8204 16.0147L44.5433 22.695H47.8835L49.1606 15.8182C49.2588 15.1306 49.3571 14.2464 49.3571 13.657C49.3571 11.6922 48.3747 10.5133 46.6063 10.5133ZM55.1532 20.239C53.9743 20.239 53.5814 19.2566 53.5814 18.0778C53.5814 16.2112 54.5638 13.0675 56.3321 13.0675C57.511 13.0675 57.9039 14.0499 57.9039 15.0323C57.9039 17.1936 56.9215 20.239 55.1532 20.239ZM56.8233 10.5133C52.7954 10.5133 50.143 14.1482 50.143 18.176C50.143 20.7302 51.7148 22.7933 54.7603 22.7933C58.6898 22.7933 61.3423 19.2566 61.3423 15.1306C61.3423 12.7728 59.967 10.5133 56.8233 10.5133ZM66.6473 20.3373C65.7631 20.3373 65.2719 19.8461 65.2719 19.8461L65.8614 16.7024C66.2543 14.6394 67.335 13.264 68.5138 13.264C69.4962 13.264 69.8892 14.2464 69.8892 15.1306C69.791 17.2918 68.5138 20.3373 66.6473 20.3373ZM69.8892 10.5133C67.6297 10.5133 66.3526 12.4781 66.3526 12.4781L66.549 10.7098H63.6018C63.5036 11.8886 63.2089 13.7552 62.9142 15.1306L60.5564 27.3123H63.8966L64.7807 22.4003H64.879C64.879 22.4003 65.5667 22.7933 66.8438 22.7933C70.7734 22.7933 73.3276 18.7654 73.3276 14.7376C73.3276 12.5763 72.3452 10.5133 69.8892 10.5133ZM78.0431 5.79777C76.9625 5.79777 76.1766 6.68193 76.1766 7.76257C76.1766 8.74497 76.766 9.43265 77.7484 9.43265C78.829 9.43265 79.7132 8.74497 79.7132 7.46785C79.7132 6.48545 79.0255 5.79777 78.0431 5.79777ZM73.4258 22.5968H76.766L79.0255 10.808H75.6854L73.4258 22.5968ZM87.4742 10.808H85.1164L85.2146 10.2186C85.4111 9.03969 86.0988 8.05729 87.1794 8.05729C87.7689 8.05729 88.2601 8.25377 88.2601 8.25377L88.9478 5.60129C88.9478 5.60129 88.3583 5.30657 87.1794 5.30657C86.0006 5.30657 84.8217 5.60129 83.9375 6.38721C82.7586 7.36961 82.2674 8.74497 81.9727 10.1203L81.8745 10.7098H80.3026L79.8114 13.264H81.3833L79.615 22.5968H82.9551L84.7234 13.264H86.983L87.4742 10.808ZM95.4316 10.808C95.4316 10.808 93.3686 16.0147 92.3862 18.8637C92.2879 17.9795 91.6002 10.808 91.6002 10.808H88.0636L90.0284 21.6144C90.0284 21.8109 90.0284 22.0074 89.9302 22.2038C89.5372 22.9898 88.8495 23.6774 88.1618 24.1686C87.5724 24.6598 86.7865 24.9546 86.2953 25.151L87.1794 28C87.8671 27.9018 89.2425 27.3123 90.4214 26.2317C91.895 24.8563 93.3685 22.5968 94.7439 19.6496L98.7718 10.9062L95.4316 10.808Z" fill="#1A1919"/>
</svg>
