<svg width="90" height="36" viewBox="0 0 90 36" fill="none" xmlns="http://www.w3.org/2000/svg">
<path d="M84.8151 14.8466C84.3056 14.9194 83.4548 14.9679 82.9437 14.8466C82.8466 14.4567 82.6768 14.1656 82.5971 13.7515C82.9461 13.9024 83.3224 13.9802 83.7026 13.9802C84.0829 13.9802 84.4591 13.9024 84.8081 13.7515C84.8081 14.1171 84.7839 14.4082 84.8081 14.8466M88.1871 14.578C87.604 14.9214 86.9845 15.1986 86.3399 15.4046C83.5675 16.2554 79.9477 15.5016 77.9307 14.3354C77.6639 12.4398 77.2497 10.3985 76.1563 9.15787C73.4341 9.74182 70.5664 9.57201 68.3068 8.64843C67.4803 8.30188 66.8478 7.67634 65.9728 7.18943C65.1849 6.7695 64.4457 6.26394 63.7687 5.68191C63.112 5.09796 62.5037 4.51401 61.873 3.90754C60.6826 2.73964 58.9082 1.28237 56.9883 1.57348C55.6021 1.79181 54.2158 3.081 54.4602 4.80685C54.6334 6.09431 56.4286 7.86868 57.7403 6.94511C58.397 6.48419 58.7367 4.80685 57.8131 4.61278C57.2551 5.38907 56.964 5.02518 56.744 4.85537C56.5499 4.61278 56.5707 4.07735 56.8167 3.90754C59.3206 2.61835 60.0501 7.43202 57.522 7.94146C55.1897 8.28801 53.171 5.58487 53.7307 3.43622C54.0945 2.07598 55.6991 0.568463 57.6675 0.786794C58.2545 0.840936 58.8291 0.98895 59.3691 1.22519C62.2612 2.51265 64.3509 5.79454 67.6085 7.54465C70.0639 8.88063 72.8069 9.02618 76.4059 8.41971C76.4786 8.39545 76.4544 8.39545 76.5289 8.49248C77.7678 9.65865 78.4973 11.4815 78.5459 13.6198C78.5216 13.9126 78.156 13.8866 78.1075 14.131C78.376 14.131 78.3501 13.8866 78.6672 13.9369C80.5386 14.8362 83.7702 15.6697 86.2013 14.8033C86.7852 14.6092 87.9999 13.9057 87.9029 13.2975C87.7296 12.1798 84.5725 12.0845 84.1116 12.9076C84.2848 13.1277 84.7908 12.9821 85.0109 13.1519C84.5967 14.0755 82.8709 13.6371 82.2887 13.1519C82.4342 12.3497 83.5519 11.9598 84.4512 11.7657C85.7144 11.4746 87.3432 11.6929 88.2425 12.2041C88.5579 12.3982 89.2389 12.8834 89.2631 13.2732C89.2146 13.6614 88.5094 14.3424 88.194 14.5607M83.5761 29.421C80.8782 30.4417 77.9134 28.449 77.6223 26.0196C77.449 24.5121 78.4973 23.1986 80.1487 23.4204C81.5834 23.6145 82.9211 25.1948 82.6768 26.5793C82.4827 27.619 80.6599 27.7922 80.5871 26.3367C80.9336 26.1184 80.9995 26.6035 81.4621 26.458C82.0946 25.2676 80.3687 24.1239 79.1281 24.6836C77.9151 25.2433 78.7157 27.333 79.4452 28.0383C80.951 29.4713 83.8672 29.1802 84.5725 27.4058C84.9866 25.5829 83.966 24.3682 83.1862 23.3719C84.1583 23.8571 84.6435 24.0997 85.0334 24.8292C85.8374 26.302 85.4493 28.7279 83.5761 29.421ZM78.1317 32.2645C76.9898 33.3822 75.8237 34.5016 74.7545 35.692C73.5866 35.2051 73.0217 34.479 72.5175 33.3337C72.7116 32.8727 73.3926 32.3131 73.7304 32.0462C75.7717 30.5144 76.5982 28.5702 77.3693 25.8966C77.3936 26.3592 77.3693 26.6018 77.4681 26.8201C78.1958 28.7886 79.8246 30.1748 82.377 30.1263C80.7725 30.9043 79.3152 31.0984 78.1231 32.2645M60.6566 28.9185C59.3691 28.6985 57.7888 27.3868 57.4977 26.2691C57.0126 24.6888 57.671 22.963 58.6882 22.405C59.539 21.9909 60.3412 22.0394 61.2163 22.4778C62.6268 23.1813 62.2854 25.5881 60.8281 25.8792C60.2199 26.0005 59.3934 25.6609 59.2964 25.0527C59.2236 24.519 59.5632 24.1049 60.1714 24.3492C60.414 24.5918 59.9981 24.5918 60.0501 24.8586C60.3412 25.2485 61.0222 25.077 61.3133 24.7858C62.0428 23.4984 59.9046 22.36 58.8354 23.2056C57.5514 24.2227 58.2446 26.6087 59.2721 27.515C60.0521 28.1059 61.0174 28.399 61.9943 28.3415C63.6716 28.293 64.7408 27.1026 66.3696 26.9553C64.6923 27.7073 63.0392 29.3119 60.6514 28.9237M51.4417 24.3544C51.0033 24.1811 50.7849 23.358 50.9062 22.4102C51.1731 21.5351 51.757 21.024 52.5593 21.024C52.996 21.024 53.6527 21.4381 54.2124 21.6564C55.3785 22.1174 56.7388 22.5228 58.1735 22.483C57.6138 23.1137 57.1044 23.7219 57.0801 24.7668C57.0377 25.4244 57.12 26.084 57.3227 26.711C55.6696 25.375 54.1639 24.2331 51.4417 24.3544ZM50.6636 22.9924C48.4509 22.1174 46.2641 23.1865 45.0979 24.3301C44.0583 23.138 41.6947 22.0931 39.7263 23.138V22.58C41.3794 21.8748 43.2508 22.2144 44.5382 23.0167C44.7339 23.1769 44.9207 23.3475 45.0979 23.5278C45.3163 23.5521 46.2398 22.6615 46.6765 22.5072C47.4517 22.2512 48.2683 22.1436 49.0833 22.1901C49.6673 22.1901 50.7849 22.2144 50.6636 22.9924ZM39.054 24.3544C38.5203 24.4029 38.1062 24.3544 37.815 24.3786C35.7981 24.5519 34.3391 25.6661 32.9303 26.3956C33.5368 24.8638 33.2457 23.3338 32.4192 22.3617C33.2214 22.3132 33.8539 22.3374 34.5817 22.1659C35.8466 21.8748 36.8187 20.9027 38.0091 21.0968C38.5931 21.1938 39.1268 21.4433 39.3468 21.9718C39.5652 22.7013 39.4439 24.1586 39.054 24.3544ZM26.2678 28.5547C26.6799 28.5228 27.0936 28.5147 27.5067 28.5304C30.1059 28.4819 32.3585 26.9258 32.1246 24.2296C32.0849 23.8135 31.8855 23.4289 31.5681 23.1569C31.2508 22.8848 30.8403 22.7463 30.423 22.7706C29.7663 22.8191 28.5758 23.7912 29.0368 24.6663C29.0973 24.7768 29.1901 24.8663 29.3028 24.9226C29.4155 24.979 29.5428 24.9996 29.6675 24.9817C30.2514 24.9089 29.8858 24.3994 30.2272 24.1066C30.3125 24.0753 30.4045 24.067 30.494 24.0823C30.8839 24.2556 30.8839 24.8118 30.6673 25.2502C30.5881 25.4174 30.473 25.565 30.3301 25.6824C30.1872 25.7998 30.0201 25.8842 29.8408 25.9295C29.0402 26.0525 28.5048 25.5656 28.2622 25.0302C27.4114 22.2837 31.1785 21.069 32.563 22.8919C34.6302 26.3194 29.6172 30.5162 26.2695 28.5547M16.6664 31.3964C17.013 31.8833 18.0769 32.8069 18.0526 33.2921C18.0526 33.8275 16.3753 34.8516 15.9612 34.9937C15.6943 35.0907 15.0133 35.2363 14.8193 35.1877C14.4554 35.115 13.8229 34.0944 13.4833 33.682C13.0206 33.098 12.7053 32.5643 12.2184 32.1017C10.8581 30.8142 9.25357 30.1817 7.57623 29.4765C8.86386 29.5995 10.15 29.2278 11.1735 28.4368C11.9515 27.8044 12.8751 26.3471 12.778 25.3022C12.8751 25.278 12.8266 25.278 12.8993 25.278C13.6288 27.8286 15.2334 29.3847 16.6664 31.4016M10.3955 27.2655C9.91029 28.189 8.55006 28.2618 8.11166 27.2655C8.79265 27.3625 9.61918 27.1442 9.81326 26.5602C10.1598 26.6573 10.2257 27.0229 10.3955 27.2655ZM5.02384 26.4632C5.0481 24.7304 6.48111 23.1085 7.81882 22.7204C7.18636 23.7895 5.12088 25.8307 6.16575 27.5808C7.30765 29.5008 10.9534 28.0677 11.4889 26.3176C12.3154 23.5954 8.25548 24.2522 8.52233 26.1963C8.83943 26.5429 9.42165 25.7094 9.71449 26.1963C9.86004 27.0471 8.15498 27.4595 7.55024 26.8271C7.50172 25.7337 8.15845 24.5744 8.88795 23.9836C10.0056 23.06 12.3397 22.9144 12.558 24.8101C12.8023 26.9952 10.7368 28.9012 8.62283 29.1854C6.55562 29.428 4.98399 28.3103 5.02557 26.4632M27.5518 26.1166C27.6245 26.1409 27.6973 26.1409 27.7701 26.1651C27.6952 26.1606 27.6215 26.1443 27.5518 26.1166ZM31.6099 23.734C31.8543 23.8553 31.927 24.415 31.8785 24.6819C31.6176 24.8403 31.3288 24.9473 31.0277 24.9972C30.9792 24.4636 30.9307 24.318 30.7106 23.9766C31.0205 23.9396 31.3234 23.8578 31.6099 23.734ZM59.5078 24.1724C59.2409 24.3457 59.1196 24.6334 59.1196 25.0388C58.8528 25.0146 58.657 24.8933 58.3659 24.8656C58.2931 24.3561 58.4629 23.9662 58.657 23.8692C59.0954 23.8449 59.1924 24.0875 59.5078 24.162M80.3376 26.5672C80.6044 27.0541 81.0411 27.6363 81.6735 27.5878C81.0168 28.2445 80.1418 28.7782 79.4625 27.7091C79.6808 27.2481 80.0447 26.957 80.3376 26.5672ZM56.6227 4.83284C55.9174 4.95414 55.1169 4.92988 54.7513 4.78433C54.6542 4.37019 54.6542 4.2489 54.7513 4.00631C55.0978 3.78798 56.3108 3.88501 56.5984 3.86075C56.4251 4.10334 56.2831 4.58852 56.6227 4.83284ZM2.23059 20.5838C2.37615 19.3709 2.54596 18.2983 2.42467 16.841C5.72908 19.3432 11.6604 17.4475 14.6495 15.6489C14.7517 13.826 15.1849 12.2942 15.9872 11.1523C23.5456 12.4398 27.9191 8.16152 31.6134 4.76007C31.5231 5.02063 31.4581 5.2893 31.4193 5.56235C31.1525 7.91893 33.412 8.69695 35.4047 8.04023C37.6903 7.48227 40.0954 6.92258 43.1832 6.77703C46.1577 6.64518 49.137 6.88206 52.0533 7.48227C54.7513 7.99171 59.6776 9.8146 59.3934 5.17247C59.5735 5.31564 59.7442 5.47017 59.9046 5.63512C60.3655 6.04752 60.9009 6.51018 61.4346 6.9711C64.3024 9.88737 69.1403 12.464 74.5345 11.4677C75.3367 12.5611 75.7474 14.0668 75.7994 15.8915C78.5718 17.8357 84.4512 19.7798 88.0727 17.3487C87.8544 18.1995 88.291 19.6343 88.246 20.3135C87.8821 20.946 87.1768 21.2371 86.4716 21.4814C84.5759 22.0151 82.7531 20.9703 81.2958 20.5093C80.8089 21.0916 80.542 21.8956 80.1036 22.5263C80.1764 22.8417 80.4692 22.9872 80.3965 23.2558C76.9448 22.405 77.0418 27.0471 75.7301 28.8943C75.1219 28.1648 74.8065 27.6051 73.7374 26.6087C73.5901 26.5117 72.3754 25.5881 71.7672 25.3455C71.0637 24.9799 69.6532 24.6403 69.4591 24.616C67.612 24.3007 65.6921 24.7373 64.2608 25.3698C63.2887 25.8065 62.1953 26.4632 61.4173 25.9278C62.8763 25.0614 62.6302 22.3807 60.6895 21.9666C59.9358 21.7933 59.085 21.8211 58.3797 22.2577C57.068 22.282 55.6333 21.8938 54.5884 21.5057C53.3494 21.043 52.7412 20.466 51.7449 20.9945C49.9705 19.8526 46.349 19.9548 44.9645 21.3844C43.6025 20.1714 40.2981 19.61 38.645 20.946C37.3316 20.5093 36.1897 21.4329 34.975 21.8211C34.294 22.0394 33.2977 22.1122 32.3758 22.0636C31.6706 22.0394 30.9428 21.6755 30.2133 21.7483C28.3904 21.9216 26.6888 24.3977 28.7543 25.9278C28.7301 26.101 28.1721 26.1963 28.0006 26.1478C26.8829 25.855 25.7479 25.0284 24.535 24.7131C22.6878 24.2521 20.2567 24.5398 18.6435 25.2728C17.0303 26.0057 15.8485 27.1927 14.7794 28.2376C13.0778 26.8756 13.5162 21.8263 9.72488 23.3043C9.53081 23.131 10.0888 22.7204 10.2343 22.4778C9.79766 21.7968 9.43204 21.0673 9.02137 20.3863C7.31978 21.2371 3.91833 21.7483 2.24099 20.5821M34.0792 4.88136C34.2247 4.51575 34.2975 4.1276 33.8851 3.93353C34.4916 3.81223 35.3909 3.76025 35.9263 3.90927C36.0476 4.27316 36.0233 4.71155 35.8535 4.88136C35.2211 4.83284 34.5401 4.9784 34.0792 4.88136ZM5.66151 13.6059C6.02712 13.923 7.07199 13.8728 7.6802 13.6787C7.6802 14.1171 7.46014 14.1656 7.46014 14.6265C6.78088 14.7236 6.00286 14.8466 5.51595 14.578C5.59363 14.259 5.64234 13.9337 5.66151 13.6059ZM1.59813 13.2906C1.54961 12.7794 2.5217 12.0256 3.29972 11.8316C5.12261 11.3706 7.09105 12.0759 7.80496 12.9007C7.68367 13.703 5.95781 13.8728 5.64071 13.0965C5.73775 12.6096 6.34596 12.9995 6.46725 12.9735C5.90929 11.686 1.19439 12.5125 3.30839 14.1171C5.34961 15.6766 9.71969 14.6751 11.8631 13.5973C12.2404 11.6317 13.0916 9.78782 14.3428 8.22563C20.4179 9.78514 25.086 6.62281 28.1964 3.48647C29.8234 1.85939 32.109 -0.183564 35.1708 1.34822C35.9973 1.76062 36.9694 2.80722 37.0665 3.99764C37.1878 5.55715 35.8761 7.52212 34.2715 7.86175C33.2024 8.08008 32.0847 7.54638 31.7434 6.52577C31.402 5.50516 31.9877 3.51073 33.445 3.87635C33.5353 3.89857 33.6198 3.94016 33.6925 3.99822C33.7653 4.05629 33.8245 4.12945 33.8662 4.21266C33.9079 4.29586 33.931 4.38713 33.934 4.48014C33.9369 4.57316 33.9197 4.66571 33.8834 4.7514C33.4935 5.23658 33.1781 5.13955 33.0083 4.67863C31.8421 5.4064 32.7155 7.30206 34.3945 6.96243C35.4637 6.7441 36.583 4.92122 36.0476 3.41369C35.6352 2.24753 34.1034 1.1784 32.4503 1.51803C30.3121 1.95642 28.5377 4.26449 26.8119 5.57794C23.653 7.98304 19.9587 10.0243 14.7811 8.97939C13.3135 10.0329 12.9721 12.2665 12.5597 14.1725C11.2151 14.7418 9.81338 15.1653 8.37851 15.4357C6.77569 15.7269 4.73967 15.8256 3.56657 15.1932C3.17843 14.9991 1.64665 13.904 1.59813 13.2975M55.0926 1.16801C55.1654 1.26504 54.6785 1.48337 54.4602 1.67744C53.9403 2.18862 53.3183 3.06367 53.294 4.08428C53.2455 5.83439 54.4602 7.04908 55.5293 7.85135C52.3704 7.14611 48.8459 6.34383 45.4185 6.39235C41.5544 6.46513 39.0505 6.75797 35.6976 7.6053C36.888 6.68173 37.6418 5.39253 37.2571 3.5939C36.9902 2.28219 36.0441 1.52842 35.0703 0.821449C41.2685 2.06212 48.56 2.32897 55.0978 1.16801M89.0881 14.6265C89.2822 14.0928 89.6478 13.4846 89.608 13.048C89.4347 11.835 86.9828 11.2736 85.3055 11.3464C84.5274 11.3706 83.3613 11.6132 82.7063 11.9771C82.3597 12.1729 81.7827 12.6824 81.7584 12.9995C81.7342 13.5332 82.3909 13.6787 82.2696 14.4567C81.0047 14.4325 79.9113 14.2141 79.1506 13.6302C78.7867 11.1523 78.033 9.03658 76.6242 7.62782C72.8571 8.64843 69.5025 8.113 66.9206 6.36289C65.7302 5.53635 64.7338 4.46723 63.6405 3.51939C62.5471 2.57156 61.3636 1.45391 60.2199 0.79719C59.737 0.52516 59.2226 0.313336 58.6882 0.166457C56.8895 -0.247679 55.2139 0.409047 53.8277 0.675896C49.1856 1.57521 43.5228 1.62373 38.6866 0.869967C36.7425 0.5546 34.8225 0.0694204 32.9269 0.00357465C30.5443 -0.095194 28.7682 1.87498 27.4825 3.16244C24.4206 6.22427 20.2152 9.33635 13.9927 7.46494C12.7295 9.11628 11.903 11.2078 11.0765 13.2732C10.1529 13.5643 9.15653 14.0998 8.16018 14.0998C9.22931 12.4224 6.96976 11.5231 5.31668 11.3776C3.44528 11.2043 1.01418 11.7657 0.892885 13.0792C0.844367 13.6371 1.28276 14.4394 1.45257 15.2174C1.98627 17.4648 1.88924 20.1437 1.0627 21.9701C1.69516 23.332 3.17843 24.1326 5.17113 23.9385C4.80724 24.5952 4.27181 25.5431 4.34459 26.711C4.51787 29.3101 6.6284 29.5545 8.71987 30.5023C10.6398 31.3774 12.3414 32.6665 13.4105 34.0996C13.7571 34.5622 14.0655 35.5343 14.5524 35.6799C14.9163 35.8012 15.7186 35.5586 16.0842 35.4373C16.6664 35.1929 18.6591 33.9783 18.6106 33.2973C18.5863 33.0304 17.9071 32.5453 17.5415 32.1069C17.1759 31.6685 16.5936 31.159 16.5936 30.7709C16.5936 30.3082 17.6142 29.3361 17.7841 29.1906C18.4408 28.6552 20.1424 27.6588 21.2115 27.489C23.4728 27.1424 24.6147 28.2913 26.0234 28.9965C27.8221 29.8958 30.3017 29.603 31.6619 28.4853C32.4399 27.8286 32.9026 26.9258 33.6806 26.3956C34.103 26.1193 34.541 25.8677 34.9923 25.6418C35.4245 25.4253 35.8708 25.2383 36.3283 25.0822C37.2365 24.8101 38.1758 24.6552 39.1233 24.6212C39.6345 24.597 39.4404 23.8432 39.8771 23.5036C40.364 23.1137 41.1662 23.0409 41.7242 23.0652C43.1104 23.1137 44.2038 24.0858 45.1516 24.8396C46.2208 23.7462 48.5046 22.3617 50.5961 23.4308C50.6446 23.9402 50.8872 24.3786 51.1783 24.5485C51.7622 24.6455 52.3912 24.6212 53.1225 24.7425C55.0684 25.0891 56.8167 26.5412 58.0574 27.6588C59.1266 28.6066 60.2442 29.6758 62.3582 29.1663C64.5467 28.6552 65.9554 26.9293 68.8232 27.0281C70.7431 27.1008 71.4969 28.1215 72.4447 29.1663C73.0529 29.8231 73.7097 30.4538 74.1463 31.1348C73.5138 32.0098 72.1779 32.5453 72.1294 33.1032C72.1051 33.5901 72.8103 34.5622 73.15 34.9261C73.4896 35.29 74.3629 36.068 74.8516 35.9952C75.1427 35.971 75.5811 35.3645 75.9207 34.9746C76.9413 33.8812 78.1733 32.6665 79.3967 32.0098C80.1972 31.5714 81.1468 31.2318 81.9958 30.8194C82.9194 30.381 83.966 30.0656 84.6453 29.6272C85.983 28.7279 86.5409 25.7631 85.4718 24.4999C86.5894 24.4029 88.0242 23.6734 88.7052 22.9196C88.9478 22.6528 89.3116 22.1416 89.3359 21.8505C89.3602 21.504 88.972 20.6843 88.8992 20.343C88.5527 18.4716 88.5821 16.0907 89.0933 14.6248" fill="#231F20"/>
<path d="M49.8666 10.2287C49.6482 10.4228 49.4282 10.6654 49.2098 10.8352C48.9915 11.005 48.7732 11.1021 48.5531 11.2493C48.6276 11.3949 48.5531 11.3221 48.7489 11.4677C49.0158 11.6617 48.8702 12.6806 48.8459 13.0965C48.8217 13.5124 48.7247 13.3148 48.7004 13.3391C48.6034 13.2906 47.4112 11.5162 47.3627 11.2979C47.3142 11.1246 47.4597 11.0535 47.536 10.9808C47.5602 10.9565 47.7803 10.8352 47.6347 10.7867C46.8847 10.6838 46.13 10.6191 45.3734 10.5926C45.3734 10.6169 45.2521 10.6654 45.3492 10.7139C45.616 10.908 45.8846 11.2337 45.8604 11.4192C45.8118 12.1729 45.7616 14.8709 45.4705 15.1377C45.3977 15.2105 45.1551 15.259 45.0823 15.311C45.0096 15.363 45.0823 15.3838 45.0581 15.4323C45.4462 15.6749 46.0977 16.6227 46.2242 16.9918C46.2728 16.9918 46.3455 17.016 46.3975 16.919C46.6159 14.3424 46.7631 12.5195 46.7631 12.5195C46.7631 12.5195 46.7874 12.3462 46.8844 12.471C46.9572 12.5195 48.4439 14.682 48.6345 14.9748C48.7801 15.2174 48.3174 15.5328 48.0749 15.6541C48.0021 15.7269 48.1476 15.7754 48.1476 15.7511C49.825 15.7269 52.5472 16.141 54.9765 16.3836C55.1138 16.4018 55.2522 16.4099 55.3907 16.4078C55.4634 16.4078 55.512 16.2865 55.4877 16.2346C55.2209 15.7719 54.7339 15.0927 54.5399 14.8241C54.4186 14.727 54.3943 14.8501 54.3943 14.8501C54.273 14.9956 54.2002 15.2867 54.1015 15.311C54.0287 15.3838 52.1573 15.1377 52.0603 15.0441C52.0117 14.9228 52.1088 14.0963 52.2335 14.0045C52.3166 13.9621 52.4128 13.9534 52.5021 13.9802C52.9145 14.0045 53.2801 14.0287 53.5227 14.1985C53.6384 14.3073 53.7294 14.4397 53.7896 14.5867C53.8381 14.5867 53.8866 14.6595 53.9109 14.5382C54.0322 14.2713 54.1049 13.1779 54.1049 12.8366C54.104 12.8086 54.094 12.7817 54.0765 12.7598C54.0591 12.738 54.035 12.7224 54.0079 12.7153C53.8874 12.8642 53.7391 12.9884 53.5712 13.0809C53.4499 13.1537 52.4779 13.2542 52.3323 13.0081C52.2578 12.7638 52.3808 12.01 52.4779 11.9684C52.5749 11.9269 53.9351 12.0915 54.2765 12.1885C54.5433 12.2613 54.3978 12.698 54.5676 12.698C54.7374 12.698 55.7805 11.7501 55.9036 11.6288C55.9521 11.5803 55.8793 11.4555 55.8065 11.4555C55.3941 11.3828 51.2857 10.8716 51.0431 10.8959C50.9461 10.9201 51.0189 11.0171 51.0189 11.0171C51.0189 11.0171 51.3845 11.3342 51.3845 11.5768C51.3585 11.9892 51.2857 14.0807 50.9946 15.1498C50.9461 15.3439 50.4609 15.7321 50.1438 15.6593C49.9982 15.6108 49.7799 15.2954 49.7314 15.0771C49.7557 14.6872 50.0225 10.2409 50.0225 10.2409C49.9748 10.2538 49.9246 10.2538 49.8769 10.2409" fill="#231F20"/>
<path d="M56.1652 11.5162C56.141 11.5647 56.0924 11.5404 56.1167 11.6375C56.141 11.7345 56.4078 11.8801 56.6019 12.4398C56.6747 12.7551 57.0645 15.5744 57.0645 15.8915C57.0645 16.2796 57.0403 16.2796 56.8445 16.3766C56.6712 16.4737 56.6261 16.4009 56.5776 16.595C57.1616 16.718 58.6674 17.0576 59.1543 17.1547C59.2998 16.9363 58.8389 16.8878 58.981 16.4009C59.0538 16.2554 60.5596 14.0201 60.7311 13.897C60.8767 13.7757 61.4346 13.8485 61.3861 13.7238C61.5317 13.651 61.1435 13.3114 61.0395 12.8244C60.9761 12.4711 60.9356 12.1139 60.9182 11.7553C60.9182 11.7553 60.797 11.8038 60.797 11.7796C60.4313 12.2665 58.2688 15.5709 58.2688 15.5709C58.2688 15.5709 58.1233 15.6437 58.1233 15.5224C58.0747 15.2313 57.7091 12.6546 57.7576 12.412C57.8062 12.1694 58.0505 12.1452 58.2203 11.9979C58.2058 11.9675 58.1975 11.9345 58.196 11.9009C57.9535 11.8281 56.8583 11.6098 56.1548 11.5127" fill="#231F20"/>
<path d="M20.4335 15.7442C19.8028 15.9642 19.4371 16.1826 18.5621 16.5222C18.5863 16.4979 18.5136 16.595 18.4893 16.6192C18.5621 16.718 19.146 16.718 19.2916 16.9363C19.4371 17.1547 20.6276 19.9011 20.7021 20.2165C20.7766 20.5319 20.5288 20.7034 20.4335 20.946C20.4335 20.946 20.3607 21.0673 20.4335 21.0673C20.5063 21.0673 22.3049 20.362 22.3777 20.2893C22.4504 20.2165 22.3534 20.1922 22.3292 20.168C22.3777 20.1922 21.9653 20.1922 21.6984 19.8769C21.4784 19.61 20.3365 16.8636 20.2394 16.5222C20.2597 16.2898 20.3345 16.0654 20.4577 15.8672C20.5305 15.7944 20.5305 15.7199 20.4335 15.7442Z" fill="#231F20"/>
<path d="M17.8828 16.9606C17.8029 17.032 17.7123 17.0905 17.6142 17.1339C17.3474 17.2552 17.0078 17.2552 16.7149 17.3279C15.8485 17.522 15.0376 17.8391 14.8193 18.6899C14.7665 18.8723 14.7521 19.0637 14.7772 19.2519C14.8023 19.4401 14.8661 19.6211 14.9648 19.7833C15.0457 19.9348 15.1599 20.0659 15.2989 20.1668C15.4379 20.2676 15.598 20.3356 15.7671 20.3655C16.3753 20.4885 17.032 20.2927 17.59 20.1922C18.0769 20.0952 18.5621 20.0709 18.6834 20.4608C18.8567 21.1158 17.6437 21.7968 17.032 21.4329C16.8362 21.3099 16.7149 21.043 16.6179 20.8732C16.5936 20.849 16.5451 20.8732 16.5451 20.8732C16.3257 21.5104 16.1712 22.1682 16.0842 22.8365C16.1085 22.8365 16.1085 22.8365 16.1812 22.8122C16.4048 22.6907 16.6406 22.5931 16.8847 22.5211C18.1497 22.2768 19.1703 22.1745 19.6572 21.1591C19.8129 20.7791 19.8215 20.3548 19.6815 19.9687C19.4874 19.5078 19.172 19.2635 18.491 19.1179C17.8603 18.9966 17.4947 19.409 16.0651 19.3362C15.4084 18.9238 16.3562 18.3156 16.0894 18.534C16.2107 18.4369 16.6959 18.1874 16.9142 18.2186C17.1828 18.2429 17.4011 18.657 17.4739 18.754C17.5467 18.8511 17.5709 18.7783 17.5709 18.754C17.7165 18.4075 17.9851 16.9311 17.9851 16.9311L17.888 16.9554" fill="#231F20"/>
<path d="M40.7521 11.8316C40.9254 11.9043 41.2875 13.242 41.239 13.4361C41.1905 13.6302 39.78 13.7515 39.6587 13.6094C39.5617 13.4153 39.683 12.0048 39.832 11.9321C40.1337 11.8558 40.4447 11.8231 40.7556 11.835M41.7762 10.8629C40.3189 11.057 39.8563 11.1315 38.3245 11.3013C38.1512 11.3984 38.4232 11.5197 38.4978 11.5682C38.6411 11.6831 38.7363 11.8475 38.7646 12.0291C38.7646 12.2492 38.6918 14.4117 38.5463 15.3595C38.4978 15.5536 38.3522 15.8707 38.1807 15.9677C37.647 16.2346 37.141 15.5293 36.9417 15.311C36.8932 15.2382 36.5536 14.8501 36.5293 14.7912C36.4808 14.5971 36.9175 14.1847 36.9902 14.0391C37.5257 13.0913 37.1635 12.1435 36.4063 11.7051C35.8386 11.4069 35.1807 11.3292 34.5591 11.4867C34.268 11.5595 34.0012 11.7051 33.7101 11.7778C33.6255 11.6161 33.5598 11.4452 33.5143 11.2684C33.5111 11.262 33.5068 11.2562 33.5014 11.2515C33.496 11.2468 33.4898 11.2432 33.483 11.241C33.4762 11.2387 33.469 11.2378 33.4619 11.2384C33.4548 11.2389 33.4479 11.2409 33.4415 11.2441C33.0291 11.8264 32.7865 12.1435 32.3724 12.4571L32.2996 12.5784L32.3239 12.6512C32.3724 12.7239 32.5179 12.7482 32.5907 12.8244C32.6881 12.8805 32.7652 12.9661 32.8108 13.0688C33.0769 14.1736 33.2697 15.2949 33.3878 16.4252C33.0724 16.9121 32.8298 17.0334 32.4399 16.9849C31.8335 16.8878 30.8354 15.4773 31.0069 15.843C31.2177 15.6039 31.3896 15.3331 31.5164 15.0407C31.6702 14.6961 31.7036 14.3098 31.6112 13.9439C31.5188 13.578 31.3059 13.2539 31.0069 13.0237C30.3987 12.5853 29.4024 12.5611 28.6486 12.8764C28.5273 12.9249 28.1877 13.1935 28.0404 13.1693C27.8931 13.145 27.8949 12.8227 27.8221 12.7309C27.7493 12.639 27.7008 12.6581 27.6765 12.7066C27.4582 12.9007 27.3126 13.5089 26.6802 14.0443V14.1171C26.8742 14.2141 27.1168 14.2627 27.2156 14.4325C27.3369 14.6508 28.0647 17.1789 28.1149 17.6398C28.1392 17.8599 27.9191 18.1268 27.7978 18.2238C27.7314 18.2845 27.6452 18.319 27.5552 18.3208C27.4437 18.2672 27.338 18.2022 27.2399 18.1268L26.5831 17.7629C26.4376 17.6901 26.292 17.5671 26.1205 17.4943C25.7739 17.3487 26.0477 17.9327 25.8536 18.1025C25.7323 18.1995 24.152 18.7835 23.9822 18.735C23.958 18.735 23.8852 18.6622 23.8609 18.6379C23.7154 18.3208 23.4971 17.7871 23.6877 17.6398C23.8205 17.5851 23.9587 17.5444 24.1001 17.5186C24.3012 17.4072 24.5269 17.3477 24.7568 17.3453C24.9751 17.3695 25.2922 17.6624 25.3407 17.5186C25.2242 16.9577 25.0446 16.4119 24.8053 15.8915C24.7568 15.7944 24.781 15.8187 24.684 15.7684C24.5107 16.1583 24.5107 16.3039 24.0273 16.5465C23.7843 16.6436 23.5333 16.719 23.277 16.7717C23.1557 16.7475 22.9304 16.115 22.9131 15.9694C22.8646 15.7251 23.0101 15.7009 23.1557 15.6229C23.555 15.4457 23.9705 15.3076 24.3964 15.2105C24.5066 15.168 24.6252 15.1514 24.7429 15.162C24.8642 15.1862 24.9855 15.4773 25.1553 15.5085C25.326 15.2552 25.4727 14.9867 25.5937 14.7062C25.7116 14.4583 25.8011 14.1979 25.8606 13.93C25.8363 13.904 25.812 13.8554 25.7635 13.8554C25.5955 13.8832 25.4318 13.9327 25.2766 14.0027C24.5246 14.2453 23.7708 14.4879 23.0413 14.7305C22.3846 14.9506 21.7296 15.1689 21.0971 15.4115C21.1214 15.46 21.0971 15.4843 21.1214 15.5085C21.1457 15.5328 21.2427 15.5328 21.3155 15.557C21.5238 15.6194 21.7062 15.7477 21.8353 15.9227C21.9809 16.141 22.9287 18.8875 23.0257 19.3726C22.9044 19.9081 22.6133 19.8595 22.6376 20.1021C22.7104 20.2754 24.2647 19.4939 28.3003 18.2792C28.6885 18.158 29.1026 18.0609 29.4907 17.9639C29.6621 17.9356 29.827 17.8769 29.9777 17.7906C29.9274 17.7663 29.9777 17.7421 29.9032 17.7178C29.3209 17.425 29.1511 17.3279 28.9796 16.6227C28.9553 16.5499 28.9311 16.3316 29.0298 16.3073C29.3679 16.259 29.7089 16.2347 30.0504 16.2346C30.0019 16.2103 31.4107 17.5463 32.0674 18.4699C32.1887 18.5929 32.31 18.6431 32.3342 18.3243C32.3585 18.0055 32.6254 17.2309 32.7969 17.1114C32.9684 16.9918 34.1329 16.893 35.2228 16.673V16.5984C35.1089 16.5262 34.9867 16.468 34.8589 16.4252C34.7462 16.3647 34.6471 16.2819 34.5675 16.1818C34.4879 16.0817 34.4297 15.9664 34.3963 15.843C34.3477 15.6957 34.2507 15.259 34.3477 15.1377L34.372 15.0892C34.4205 15.0649 35.1743 15.1134 35.3926 15.0892C36.4617 16.2311 37.0457 17.3002 37.2398 17.47C37.3853 17.5913 37.4356 17.4458 37.4356 17.4215C37.6088 17.1062 37.7994 16.3818 37.9935 16.2796C38.3834 16.2068 39.7263 16.1063 39.962 16.0128C40.0347 15.8915 39.9862 15.94 39.7887 15.8395C39.5911 15.739 39.5218 15.2555 39.5218 15.2313C39.5218 15.11 39.5461 14.7929 39.6674 14.7201C39.7887 14.6473 41.1749 14.4775 41.4903 14.526C41.6116 14.5746 41.8368 15.11 41.7571 15.3283C41.6843 15.5952 41.4418 15.791 41.5838 15.791C41.8507 15.8152 42.7257 15.6437 43.1641 15.6177C43.3097 15.6177 43.2127 15.5449 42.9683 15.2295C42.4589 14.5728 41.8264 12.192 41.8022 11.4625C41.8022 11.3412 41.9755 11.1956 42.0205 11.0726C42.1435 10.8785 41.9963 10.83 41.7779 10.8543M29.5531 13.5522C30.1371 13.5037 30.5252 13.7255 30.5737 14.2089C30.6038 14.346 30.5954 14.4887 30.5495 14.6213C30.4039 14.9679 29.917 15.2538 29.4804 15.3023C29.2547 15.3185 29.0286 15.2768 28.8236 15.181C28.2899 14.9384 28.3142 14.2575 28.7266 13.8918C28.9629 13.6991 29.25 13.5787 29.5531 13.5453M35.1674 12.3063C35.8483 12.2821 36.4063 12.84 36.0424 13.5193C35.7756 14.0062 34.7064 14.2973 34.171 13.8347C33.7829 13.4881 33.9284 12.8868 34.268 12.6442C34.535 12.4569 34.8438 12.3379 35.1674 12.2977" fill="#231F20"/>
<path d="M62.23 13.0722C62.1814 13.0722 62.1572 13.145 62.1572 13.145C62.1572 13.145 62.4483 13.5574 62.3755 13.8243C62.3027 14.0911 60.8697 16.7908 60.7484 16.9121C60.6271 17.0334 60.2858 17.3245 60.0917 17.3487C60.0189 17.373 59.9947 17.4215 60.0674 17.4458C60.3586 17.5428 61.4277 17.8842 61.8002 18.0055C61.8973 18.0297 61.873 17.9084 61.873 17.9084C61.873 17.9084 61.7517 17.6416 61.6997 17.4943C61.6478 17.347 61.9181 16.6678 62.2092 16.6435C62.3825 16.692 63.838 17.1062 63.9108 17.2274C63.9835 17.3487 63.9835 17.7144 63.838 18.0782C63.8137 18.151 63.5711 18.2723 63.4741 18.2966C63.3771 18.3208 63.3996 18.4179 63.3996 18.4179L65.0284 18.9048C65.0284 18.9048 65.1254 18.929 65.0769 18.832C65.0042 18.6587 64.9799 18.3936 64.8829 18.1995C64.7373 17.8356 65.1497 15.2105 65.2953 14.7964C65.3404 14.6792 65.4101 14.573 65.4998 14.4851C65.5895 14.3973 65.697 14.3297 65.8151 14.2869C65.8879 14.2627 65.8636 14.1899 65.8151 14.1656C65.4997 13.9923 62.2906 13.048 62.2421 13.0722M64.3561 14.6023C64.4063 14.7756 64.1828 16.1098 64.065 16.2068C63.9472 16.3039 62.6077 15.94 62.5349 15.7442C62.4604 15.5986 63.1171 14.481 63.2627 14.2627C63.5555 14.1656 64.1863 14.3839 64.3561 14.6092" fill="#231F20"/>
<path d="M68.4351 14.3839C67.9413 14.6364 67.4172 14.8245 66.8756 14.9436C66.7785 15.0407 67.1424 15.259 67.0696 15.5259C67.0939 15.8187 66.2691 18.151 66.0733 18.4179C66.0005 18.5149 65.6366 18.929 65.4183 18.9776C65.3213 19.0503 65.5153 19.1508 65.5396 19.1508C66.4874 19.4974 68.066 20.1714 68.7227 20.0744C70.0847 20.0501 70.7639 18.5149 70.8367 18.3C70.9597 17.9535 71.2751 16.8428 70.6634 16.0474C70.2753 15.5363 69.7156 14.9298 68.5979 15.0511C68.2098 15.0753 68.695 14.4429 68.4247 14.3943M67.9239 16.4252C68.3138 15.843 69.0433 15.7684 69.6255 16.3281C69.8681 16.5465 70.0396 17.1547 69.9408 17.5186C69.7468 18.1995 69.3344 18.9776 68.7504 19.0989C68.4652 19.1484 68.1727 19.1373 67.8921 19.0662C67.6114 18.9952 67.3489 18.8658 67.1216 18.6864C67.0974 18.4906 67.6813 16.9849 67.9239 16.4252Z" fill="#231F20"/>
<path d="M72.5175 16.4737C72.5175 16.4979 72.4447 16.4979 72.4932 16.595C72.566 16.8393 72.6665 16.9606 72.566 17.2032C72.4655 17.4458 70.7189 19.9756 70.5005 20.1195C70.3104 20.2477 70.1063 20.3541 69.8923 20.4366C69.7953 20.4608 69.8196 20.5336 69.8196 20.5579C70.452 20.8247 71.3271 21.1886 71.4726 21.2371C71.5454 21.2614 71.5939 21.1643 71.4969 21.043C71.2786 20.6064 71.788 20.1437 71.9353 20.0467C72.2021 20.0467 73.4168 20.5093 73.6837 20.8732C73.6837 21.0465 73.6351 21.6998 73.2227 21.7968C73.0287 21.8453 73.0044 21.9181 73.1014 21.9701C73.1985 22.0221 74.1948 22.457 74.6072 22.6025C74.6072 22.6025 74.7303 22.6268 74.6332 22.4812C74.5362 22.3357 74.5587 22.0914 74.5102 21.8003C74.4617 21.5092 75.1427 18.8355 75.4095 18.4456C75.5292 18.2654 75.7113 18.1358 75.9207 18.0817C75.9935 18.0574 75.9692 18.0089 75.9692 17.9847C75.8722 17.8876 72.7861 16.5742 72.5175 16.4772M73.5381 17.7421C73.8599 17.7888 74.1626 17.923 74.4132 18.1302C74.5345 18.3035 74.0666 19.662 73.9522 19.8076C73.6351 19.7833 72.6145 19.2479 72.5175 19.1994C72.566 18.884 73.344 17.7421 73.5381 17.7421Z" fill="#231F20"/>
<path d="M76.2655 19.7071C76.6311 19.9496 77.1891 19.8803 77.3832 19.4627C77.5564 19.1162 77.4334 18.5963 77.092 18.4231C76.6311 18.2047 76.2413 18.326 76.0229 18.6916C75.9334 18.8624 75.9086 19.0598 75.9532 19.2474C75.9978 19.4349 76.1087 19.6001 76.2655 19.7123M76.5584 18.4473C77.5547 18.274 77.6275 19.6395 76.9049 19.7365C75.8652 19.9098 75.7873 18.5946 76.5584 18.4473Z" fill="#231F20"/>
<path d="M76.6259 18.5392C76.5046 18.8077 76.3331 19.0503 76.2118 19.3172L76.3574 19.39C76.4093 19.2817 76.4671 19.1765 76.5306 19.0746C76.6034 19.0261 76.7247 19.1716 76.749 19.1959C76.7975 19.487 76.6277 19.5615 76.846 19.6585C76.8703 19.61 76.9188 19.5615 76.9188 19.513C76.9159 19.4308 76.924 19.3486 76.943 19.2687C76.9673 19.1474 77.3312 19.1231 77.1614 18.832C77.0643 18.6587 76.7975 18.6379 76.6277 18.5392M76.7247 18.7835C76.7732 18.8077 76.943 18.8563 76.9673 18.9048C76.9915 18.9533 76.9673 19.0018 76.9673 19.0018C76.9673 19.0018 76.943 19.0503 76.9188 19.0746C76.7975 19.0989 76.6762 19.0018 76.6034 18.9533C76.6519 18.8805 76.7004 18.832 76.7247 18.78" fill="#231F20"/>
</svg>
