<svg width="49" height="48" viewBox="0 0 49 48" fill="none" xmlns="http://www.w3.org/2000/svg">
<mask id="mask0_8613_3724" style="mask-type:luminance" maskUnits="userSpaceOnUse" x="5" y="4" width="40" height="40">
<path d="M44.0335 4.7998H5.63354V43.1998H44.0335V4.7998Z" fill="white"/>
</mask>
<g mask="url(#mask0_8613_3724)">
<path d="M13.8574 28.9873C13.8574 31.1945 12.0734 32.9784 9.86619 32.9784C7.65893 32.9784 5.875 31.1945 5.875 28.9873C5.875 26.78 7.65893 24.9961 9.86619 24.9961H13.8574V28.9873ZM15.8529 28.9873C15.8529 26.78 17.6369 24.9961 19.8441 24.9961C22.0514 24.9961 23.8353 26.78 23.8353 28.9873V38.9652C23.8353 41.1725 22.0514 42.9564 19.8441 42.9564C17.6369 42.9564 15.8529 41.1725 15.8529 38.9652V28.9873Z" fill="#E01E5A"/>
<path d="M19.8439 12.9614C17.6366 12.9614 15.8527 11.1774 15.8527 8.97017C15.8527 6.76297 17.6366 4.979 19.8439 4.979C22.0511 4.979 23.835 6.76297 23.835 8.97017V12.9614H19.8439ZM19.8439 14.9872C22.0511 14.9872 23.835 16.7711 23.835 18.9784C23.835 21.1856 22.0511 22.9696 19.8439 22.9696H9.83568C7.62842 22.9696 5.84448 21.1856 5.84448 18.9784C5.84448 16.7711 7.62842 14.9872 9.83568 14.9872H19.8439Z" fill="#36C5F0"/>
<path d="M35.839 18.9784C35.839 16.7711 37.623 14.9872 39.8302 14.9872C42.0375 14.9872 43.8214 16.7711 43.8214 18.9784C43.8214 21.1856 42.0375 22.9696 39.8302 22.9696H35.839V18.9784ZM33.8434 18.9784C33.8434 21.1856 32.0595 22.9696 29.8523 22.9696C27.645 22.9696 25.8611 21.1856 25.8611 18.9784V8.97017C25.8611 6.76297 27.645 4.979 29.8523 4.979C32.0595 4.979 33.8434 6.76297 33.8434 8.97017V18.9784Z" fill="#2EB67D"/>
<path d="M29.8525 34.974C32.0597 34.974 33.8437 36.758 33.8437 38.9652C33.8437 41.1725 32.0597 42.9564 29.8525 42.9564C27.6453 42.9564 25.8613 41.1725 25.8613 38.9652V34.974H29.8525ZM29.8525 32.9784C27.6453 32.9784 25.8613 31.1945 25.8613 28.9873C25.8613 26.78 27.6453 24.9961 29.8525 24.9961H39.8607C42.0679 24.9961 43.8519 26.78 43.8519 28.9873C43.8519 31.1945 42.0679 32.9784 39.8607 32.9784H29.8525Z" fill="#ECB22E"/>
</g>
</svg>
