<svg width="160" height="224" viewBox="0 0 160 224" fill="none" xmlns="http://www.w3.org/2000/svg">
<path d="M0 88.0245C0 88.0245 17.8342 91.7055 19.1116 92.9325C20.3889 94.1595 24.0246 112 24.0246 112C24.0246 112 27.7339 94.2086 28.9376 92.9325C30.1412 91.6564 48 88.0245 48 88.0245C48 88.0245 30.2149 84.319 28.9376 83.1166C27.6602 81.9141 24.0491 64 24.0491 64C24.0491 64 20.3644 81.7914 19.1361 83.0675C17.9079 84.3436 0 88.0245 0 88.0245Z" fill="#CDF348"/>
<path d="M96 32.0327C96 32.0327 119.779 36.9407 121.482 38.5767C123.185 40.2127 128.033 64 128.033 64C128.033 64 132.979 40.2781 134.583 38.5767C136.188 36.8753 160 32.0327 160 32.0327C160 32.0327 136.287 27.092 134.583 25.4888C132.88 23.8855 128.066 0 128.066 0C128.066 0 123.153 23.7219 121.515 25.4233C119.877 27.1247 96 32.0327 96 32.0327Z" fill="#CDF348"/>
<path d="M0 144.082C0 144.082 59.4473 156.352 63.7052 160.442C67.9632 164.532 80.0819 224 80.0819 224C80.0819 224 92.4463 164.695 96.4585 160.442C100.471 156.188 160 144.082 160 144.082C160 144.082 100.716 131.73 96.4585 127.722C92.2006 123.714 80.1638 64 80.1638 64C80.1638 64 67.8813 123.305 63.7871 127.558C59.6929 131.812 0 144.082 0 144.082Z" fill="#CDF348"/>
</svg>
