<svg width="48" height="48" viewBox="0 0 48 48" fill="none" xmlns="http://www.w3.org/2000/svg">
<rect width="48" height="48" rx="24" fill="#F0FBC8"/>
<path d="M13.3801 18.0429C12.8733 17.9532 12.8733 17.2134 13.3801 17.1238C15.2162 16.799 16.6765 15.3769 17.0751 13.5256L17.1056 13.3837C17.2153 12.8744 17.9285 12.8712 18.0425 13.3796L18.0796 13.5449C18.4929 15.3874 19.9536 16.7975 21.7846 17.1214C22.294 17.2115 22.294 17.9551 21.7846 18.0452C19.9536 18.3692 18.4929 19.7792 18.0796 21.6217L18.0425 21.7871C17.9285 22.2955 17.2153 22.2923 17.1056 21.7829L17.0751 21.641C16.6765 19.7898 15.2162 18.3677 13.3801 18.0429Z" stroke="#243837" stroke-width="1.8" stroke-linecap="round" stroke-linejoin="round"/>
<path d="M20.0628 27.9896C19.2013 27.8372 19.2013 26.5795 20.0628 26.4271C23.1842 25.8749 25.6668 23.4573 26.3443 20.3102L26.3962 20.069C26.5826 19.2031 27.7951 19.1977 27.9889 20.0619L28.052 20.343C28.7546 23.4753 31.2378 25.8724 34.3504 26.4231C35.2165 26.5763 35.2165 27.8404 34.3504 27.9936C31.2378 28.5442 28.7546 30.9414 28.052 34.0736L27.9889 34.3548C27.7951 35.2189 26.5826 35.2136 26.3962 34.3477L26.3443 34.1064C25.6668 30.9593 23.1842 28.5418 20.0628 27.9896Z" stroke="#243837" stroke-width="1.8" stroke-linecap="round" stroke-linejoin="round"/>
</svg>
