<svg width="21" height="21" viewBox="0 0 21 21" fill="none" xmlns="http://www.w3.org/2000/svg">
<path d="M10.4606 12.9679C10.3614 12.9679 10.269 12.9521 10.1836 12.9204C10.098 12.8888 10.0168 12.8344 9.93972 12.7573L7.37948 10.1971C7.25704 10.0747 7.19662 9.9314 7.19821 9.76727C7.19978 9.60313 7.26021 9.4572 7.37948 9.32948C7.50721 9.20177 7.65393 9.1358 7.81964 9.13157C7.98536 9.12734 8.13209 9.18909 8.25981 9.31682L9.84314 10.9002V4.60163C9.84314 4.42641 9.90225 4.27969 10.0205 4.16148C10.1387 4.04325 10.2854 3.98413 10.4606 3.98413C10.6358 3.98413 10.7826 4.04325 10.9008 4.16148C11.019 4.27969 11.0781 4.42641 11.0781 4.60163V10.9002L12.6614 9.31682C12.7839 9.19438 12.9293 9.13394 13.0976 9.13552C13.266 9.13711 13.414 9.20177 13.5418 9.32948C13.661 9.4572 13.7228 9.60182 13.727 9.76331C13.7312 9.92481 13.6695 10.0694 13.5418 10.1971L10.9815 12.7573C10.9045 12.8344 10.8232 12.8888 10.7377 12.9204C10.6522 12.9521 10.5598 12.9679 10.4606 12.9679ZM5.77398 16.3341C5.35809 16.3341 5.00606 16.19 4.71789 15.9018C4.42973 15.6137 4.28564 15.2616 4.28564 14.8457V13.2308C4.28564 13.0555 4.34476 12.9088 4.46299 12.7906C4.58121 12.6724 4.72793 12.6133 4.90314 12.6133C5.07836 12.6133 5.22508 12.6724 5.3433 12.7906C5.46152 12.9088 5.52062 13.0555 5.52062 13.2308V14.8457C5.52062 14.9091 5.54701 14.9672 5.59979 15.0199C5.65258 15.0727 5.71064 15.0991 5.77398 15.0991H15.1473C15.2106 15.0991 15.2687 15.0727 15.3215 15.0199C15.3742 14.9672 15.4006 14.9091 15.4006 14.8457V13.2308C15.4006 13.0555 15.4597 12.9088 15.5779 12.7906C15.6962 12.6724 15.8429 12.6133 16.0181 12.6133C16.1933 12.6133 16.34 12.6724 16.4583 12.7906C16.5765 12.9088 16.6356 13.0555 16.6356 13.2308V14.8457C16.6356 15.2616 16.4915 15.6137 16.2034 15.9018C15.9152 16.19 15.5632 16.3341 15.1473 16.3341H5.77398Z" fill="#242424"/>
</svg>
