<svg width="40" height="40" viewBox="0 0 40 40" fill="none" xmlns="http://www.w3.org/2000/svg">
<rect width="40" height="40" rx="20" fill="#F1F5F9"/>
<path d="M21.6154 13H14.0769C13.7913 13 13.5174 13.1135 13.3154 13.3154C13.1135 13.5174 13 13.7913 13 14.0769V25.9231C13 26.2087 13.1135 26.4826 13.3154 26.6845C13.5174 26.8865 13.7913 27 14.0769 27H25.9231C26.2087 27 26.4826 26.8865 26.6845 26.6845C26.8865 26.4826 27 26.2087 27 25.9231V18.3846M21.6154 13L27 18.3846M21.6154 13L21.6154 17.8462C21.6154 17.989 21.6721 18.1259 21.7731 18.2269C21.8741 18.3279 22.0111 18.3846 22.1539 18.3846H27M21.6154 22.9167H24.532M19.0678 18.1852C19.0081 18.0162 18.9159 17.8624 18.7987 17.7315C18.5495 17.4531 18.1873 17.2778 17.7842 17.2778H16.7306C16.0596 17.2778 15.5156 17.8218 15.5156 18.4928C15.5156 19.0638 15.9132 19.5577 16.471 19.6797L18.075 20.0306C18.6999 20.1673 19.1453 20.721 19.1453 21.3607C19.1453 22.1124 18.5359 22.7223 17.7842 22.7223H16.8767C16.2841 22.7223 15.7799 22.3435 15.5931 21.8149M17.3304 17.2778V15.9167M17.3304 24.0833V22.7222" stroke="#395577" stroke-width="1.4" stroke-linecap="round" stroke-linejoin="round"/>
</svg>
