<svg width="90" height="90" viewBox="0 0 90 90" fill="none" xmlns="http://www.w3.org/2000/svg">
<path d="M0 40.0409C0 40.0409 29.7236 46.1759 31.8526 48.2209C33.9816 50.2659 40.0409 80 40.0409 80C40.0409 80 46.2231 50.3476 48.2293 48.2209C50.2354 46.0941 80 40.0409 80 40.0409C80 40.0409 50.3582 33.865 48.2293 31.8609C46.1003 29.8569 40.0819 0 40.0819 0C40.0819 0 33.9406 29.6524 31.8936 31.7791C29.8465 33.9059 0 40.0409 0 40.0409Z" fill="#CDF348"/>
<path d="M58 74.0164C58 74.0164 69.8895 76.4703 70.741 77.2883C71.5926 78.1063 74.0164 90 74.0164 90C74.0164 90 76.4893 78.1391 77.2917 77.2883C78.0942 76.4376 90 74.0164 90 74.0164C90 74.0164 78.1433 71.546 77.2917 70.7444C76.4401 69.9427 74.0328 58 74.0328 58C74.0328 58 71.5763 69.8609 70.7574 70.7117C69.9386 71.5624 58 74.0164 58 74.0164Z" fill="#CDF348"/>
</svg>
