<svg width="1440" height="210" viewBox="0 0 1440 210" fill="none" xmlns="http://www.w3.org/2000/svg">
<path d="M675.689 190.193C680.125 187.62 683.415 184.411 683.303 181.537C683.232 179.712 682.036 177.44 681.344 175.801C680.136 172.945 678.674 169.782 676.115 167.904C673.894 166.273 671.334 165.411 669.174 163.673C667.541 162.359 666.077 160.827 664.908 159.083C661.733 154.342 661.34 148.578 662.801 143.159L667.787 121.174C667.805 121.091 667.917 121.074 667.957 121.15C668.827 122.783 674.103 133.538 667.489 143.052C666.989 143.77 666.94 144.725 667.394 145.473C667.842 146.208 668.757 146.861 670.619 146.68C670.619 146.68 694.312 146.68 691.407 123.158C691.407 123.158 691.065 115.362 699.836 114.476C699.836 114.476 716.752 107.921 725.522 129.635C728.982 138.66 731.49 148.293 732.768 157.864C733.25 161.476 733.649 165.234 733.416 168.882C733.189 172.425 733.086 176.281 730.655 179.128C729.419 180.576 727.846 181.853 726.338 183.005C721.197 186.93 715.29 189.859 709.41 192.488C708.406 192.937 707.397 193.376 706.386 193.805C706.386 193.805 695.868 200.985 676.731 202.779C673.935 203.041 670.954 203.189 667.795 203.182C667.795 203.182 658.108 204.257 656.322 204.364C655.455 204.172 655.12 202.565 656.28 202.386C660.504 200.884 662.163 198.954 661.492 198.934C661.492 198.934 656.878 199.14 653.032 199.558C652.751 199.589 652.467 199.58 652.184 199.569C651.009 199.522 650.894 197.948 651.559 197.729C653.176 197.61 661.705 196.068 661.324 195.99C660.826 195.888 652.296 195.154 649.497 194.701C649.447 194.694 647.991 193.323 649.833 192.65C652.602 192.777 661.816 192.311 661.66 192.187C660.48 191.246 656.704 190.035 654.53 189.069C653.875 188.778 653.783 187.403 655.105 187.313C656.499 187.759 667.94 190.572 668.098 190.078C668.423 189.054 665.506 186.794 664.851 186.377C663.376 185.438 664.233 183.558 666.525 185.158C668.818 186.758 681.427 195.821 690.858 187.608C694.847 184.134 699.185 181.196 703.562 178.245C706.737 176.102 711.381 174.742 713.981 172.009C718.563 167.19 709.968 155.365 708.437 149.747C706.441 142.429 705.533 132.279 713.942 128.682C713.942 128.682 719.206 125.507 724.93 128.24" stroke="black" stroke-width="2.25"/>
<path d="M633.211 57.8115C631.814 57.6907 630.635 56.853 629.936 55.656C629.434 54.7948 629.302 53.779 629.227 52.8021C629.151 51.8089 629.178 50.6917 629.378 49.6872C630.09 46.1268 633.82 48.1522 633.82 48.1522C635.818 37.4106 644.451 33.0761 650.055 32.4832C653.275 32.1422 656.523 32.7177 659.451 34.1021C663.893 36.2033 668.279 39.4422 669.835 44.3133C671 47.9577 670.397 52.2195 668.456 55.5075C668.502 52.7796 668.064 48.7175 664.928 47.7979C663.196 47.289 660.934 48.2935 659.061 48.1696C656.91 48.0273 654.331 47.3914 652.484 46.2312C650.468 44.9656 649.24 43.3016 646.779 42.68C644.76 42.1701 641.806 42.2213 640.127 43.5811C638.407 44.9748 637.354 47.29 636.803 49.383C635.949 52.6332 636.178 55.9642 635.355 59.199C634.107 64.11 631.905 68.8521 628.551 72.6808C627.885 73.4406 625.478 76.5166 624.26 76.4706C617.641 76.2238 610.884 77.2928 604.896 80.2122C598.898 83.1367 594.787 88.7389 588.612 91.5017C586.109 92.6219 583.066 94.0289 580.291 94.3135C561.762 96.2161 554.358 105.017 554.358 105.017C534.84 124.276 544.676 134.948 544.676 134.948C555.232 147.505 571.411 111.359 571.411 111.359C575.287 104.054 574.879 104.924 574.879 104.924L591.967 114.783C593.105 115.286 594.609 115.99 595.847 116.023C596.293 116.034 596.743 115.885 597.042 115.554C597.747 114.775 597.216 113.648 596.707 112.787C595.194 110.229 597.619 108.95 598.754 106.832C599.619 105.215 600.074 103.404 599.866 101.568C599.667 99.8103 598.886 98.0501 597.682 96.7465C585.456 83.5064 569.091 92.6782 569.091 92.6782C563.74 95.3211 563.092 88.187 563.092 88.187C562.462 80.7549 561.176 73.3791 559.705 66.072C557.933 57.2636 555.826 48.5229 553.534 39.8374C552.332 35.2868 551.088 30.7741 549.949 26.2041C549.218 23.2714 548.743 20.5486 546.747 18.1525C546.434 17.7777 541.668 13.4268 541.181 13.3848C541.181 13.3848 537.922 12.1683 537.918 11.6143C537.914 11.1781 540 11.1146 540.98 11.2355C541.169 11.259 541.3 11.0542 541.202 10.8904C540.477 9.68616 537.693 6.24352 538.118 5.72333C538.937 4.72187 543.168 11.9748 543.211 9.3677C543.239 7.673 540.081 2.54181 541.621 1.89567C541.867 1.79225 545.16 7.51633 545.44 7.99965C545.446 8.01092 545.464 8.00682 545.466 7.99351C545.763 6.13293 545.399 4.89083 545.371 2.32165C545.345 -0.0130392 547.785 8.16452 547.954 8.20855C548.057 8.23517 550.504 5.25947 550.733 4.98913C552.683 2.69438 548.426 7.32382 552.234 13.5548C557.948 22.9007 562.747 35.721 562.747 35.721C570.25 52.3454 570.174 61.2633 569.318 65.3234C568.489 69.2494 568.759 73.3279 570.095 77.1126C571.976 82.4455 574.65 87.2173 574.65 87.2173C589.004 83.4511 581.352 71.409 581.352 71.409C579.833 69.6129 578.374 67.7657 576.998 65.8559C573.28 60.6909 569.959 54.9003 568.719 48.5843C567.935 44.5867 568.112 40.4017 569.711 36.6211C570.914 33.7724 572.85 31.2882 575.187 29.2822C577.319 27.4523 580.064 25.5231 582.897 25.2037C588.116 24.6159 593.572 24.9497 597.937 28.1886C600.796 30.3103 602.772 33.3976 603.907 36.746C604.419 38.2585 604.938 39.9982 604.949 41.6171C605.063 58.9102 593.558 60.6162 593.558 60.6162C603.949 50.4982 600.567 38.8728 599.539 36.0804C599.447 35.8306 599.116 35.7896 598.963 36.0077C597.177 38.5728 592.427 39.6367 589.685 39.2231C584.245 38.4039 577.094 39.2527 574.405 44.814C574.253 45.1274 574.119 45.4489 574.024 45.7837C573.285 48.4297 573.172 50.7378 573.437 52.7243C574.138 57.9753 578.294 62.0733 583.534 62.8546C613.767 67.3602 605.233 113.313 605.233 113.313C604.314 118.277 603.629 123.289 602.917 128.286C601.288 139.699 605.317 153.508 603.826 164.938C603.251 169.339 602.682 173.74 602.119 178.143C601.878 180.025 601.669 181.708 601.799 183.607C601.95 185.793 602.379 189.717 600.008 190.956C597.449 192.293 594.567 190.82 593.366 190.064C592.891 189.765 592.39 189.51 591.866 189.31C579.442 184.543 565.847 183.269 552.663 185.137" stroke="black" stroke-width="2.25"/>
<path d="M553.98 175.691C555.038 168.437 557.052 161.466 559.104 154.416C560.667 149.047 561.961 143.586 562.479 138.007C562.728 135.329 562.914 132.639 562.848 129.951C562.763 126.466 562.462 127.364 562.757 126.99C558.038 132.495 554.827 139.685 551.815 146.208C548.287 153.846 545.342 161.715 542.269 169.549C540.881 173.09 539.139 176.674 538.71 180.497C538.634 181.173 538.607 181.859 538.708 182.532C538.749 182.804 538.814 183.084 538.984 183.301C539.215 183.597 539.599 183.729 539.97 183.785C543.677 184.348 547.446 184.953 551.201 185.069C551.373 185.075 553.36 185.128 553.366 185.043C553.619 181.689 553.495 179.02 553.982 175.692L553.98 175.691Z" stroke="black" stroke-width="2.25"/>
<path d="M669.148 53.4951C669.148 53.4951 667.095 63.1155 665.17 66.4701" stroke="black" stroke-width="2.25"/>
<path d="M633.811 48.1991C632.694 52.7845 633.929 60.6887 633.211 65.3539" stroke="black" stroke-width="2.25"/>
<path d="M633.477 63.7238C633.55 67.4286 634.426 71.1437 636.211 74.403C638.113 77.8764 641.096 80.7364 644.692 82.4106C646.329 83.1734 648.625 82.8908 650.345 82.5396C652.083 82.1853 656.222 81.4767 657.448 80.1588C657.629 79.9633 655.617 83.3905 655.996 90.882C656.005 91.0715 656.145 91.1431 656.308 91.0459C663.43 86.7697 669.313 75.5448 670.046 74.1071C670.072 74.0569 670.146 74.0661 670.159 74.1214C670.16 74.1276 670.162 74.1327 670.163 74.1388C670.656 76.2697 672.48 77.8139 674.66 77.9962C677.304 78.2174 680.996 79.2833 683.302 83.1653C683.302 83.1653 693.401 102.73 674.265 110.355C673.959 110.477 672.878 109.905 672.598 109.801C671.189 109.278 669.818 108.652 668.495 107.94C664.642 105.864 661.125 102.98 658.811 99.2203C655.618 94.0328 655.358 87.8408 656.889 82.0532C657.561 79.5055 658.54 77.0449 659.694 74.6805C661.38 71.2235 663.141 67.6385 666.467 65.5015C668.387 64.2676 670.576 63.4863 672.835 63.1883C680.685 62.1561 688.238 66.6576 694.085 71.4099C697.161 73.9105 699.586 77.8528 701.409 81.2914C703.278 84.82 704.629 88.6333 705.28 92.5808C705.657 94.8571 705.799 97.1724 705.702 99.4784C705.602 101.849 705.477 104.426 704.501 106.615C703.506 108.843 701.941 110.75 700.727 112.855C698.24 117.166 697.336 122.208 696.915 127.169C696.466 132.49 696.521 137.866 695.497 143.115C695.367 143.781 695.058 144.413 694.569 144.885C693.067 146.336 691.172 145.253 689.928 144.031C685.943 140.119 684.314 134.432 683.249 128.947C682.842 126.848 682.492 124.697 682.785 122.58C683.043 120.706 683.801 118.923 684.827 117.334C686.744 114.364 689.63 112.035 692.933 110.788C702.388 107.223 712.065 113.611 719.147 119.369" stroke="black" stroke-width="2.25"/>
<path d="M625.067 76.1938C626.991 79.2044 629.66 83.1365 632.156 85.6923C634.653 88.2482 637.776 90.3238 641.289 90.972C642.483 91.1922 643.702 91.2454 644.915 91.2977C648.226 91.44 652.715 91.2157 656.025 91.3581" stroke="black" stroke-width="2.25"/>
<path d="M676.727 203.194C677.216 204.862 677.706 206.529 678.195 208.197L591.125 208.189L592.827 189.909" stroke="black" stroke-width="2.25"/>
<path d="M603.223 145.58C606.957 128.318 609.188 125.98 608.123 123.763C607.057 122.511 605.726 123.354 603.232 126.089" stroke="black" stroke-width="2.25"/>
<path d="M585.821 63.2906C590.499 62.4714 592.777 61.3112 594.788 59.8101" stroke="black" stroke-width="2.25"/>
<path d="M669.771 164.268C669.226 172.86 670.134 181.26 673.556 189.16" stroke="black" stroke-width="2.25"/>
<path d="M714.131 190.223L713.925 208.188" stroke="black" stroke-width="2.25"/>
<path d="M553.697 184.469L553.283 208.188" stroke="black" stroke-width="2.25"/>
<path d="M713.177 208.187H784.601H1527.47" stroke="black" stroke-width="2.25"/>
<path d="M554.189 208.187C547.514 208.187 -131.737 208.187 -145.221 208.187" stroke="black" stroke-width="2.25"/>
</svg>
