<svg width="48" height="48" viewBox="0 0 48 48" fill="none" xmlns="http://www.w3.org/2000/svg">
<rect width="48" height="48" rx="24" fill="#F0FBC8"/>
<path d="M28.7143 14.6923H31.2857C31.7403 14.6923 32.1765 14.8706 32.4979 15.188C32.8193 15.5053 33 15.9358 33 16.3846V33.3077C33 33.7565 32.8193 34.187 32.4979 34.5043C32.1765 34.8216 31.7403 35 31.2857 35H16.7143C16.2596 35 15.8236 34.8216 15.5021 34.5043C15.1806 34.187 15 33.7565 15 33.3077V16.3846C15 15.9358 15.1806 15.5053 15.5021 15.188C15.8236 14.8706 16.2596 14.6923 16.7143 14.6923H19.2857M21 26.5L23.25 28L27.75 22M26.5714 13H21.4286C20.4818 13 19.7143 13.7577 19.7143 14.6923V15.5385C19.7143 16.4731 20.4818 17.2308 21.4286 17.2308H26.5714C27.5182 17.2308 28.2857 16.4731 28.2857 15.5385V14.6923C28.2857 13.7577 27.5182 13 26.5714 13Z" stroke="#243837" stroke-width="1.8" stroke-linecap="round" stroke-linejoin="round"/>
</svg>
