<svg width="1048" height="244" viewBox="0 0 1048 244" fill="none" xmlns="http://www.w3.org/2000/svg">
<path d="M350.25 5.66667C351.723 5.66667 352.917 4.47276 352.917 3C352.917 1.52724 351.723 0.333328 350.25 0.333328C348.777 0.333328 347.583 1.52724 347.583 3C347.583 4.47276 348.777 5.66667 350.25 5.66667ZM350.25 11L350.75 11L350.25 11ZM524.25 244L524.25 241.989L523.25 241.989L523.25 244L524.25 244ZM524.25 237.966L524.25 233.943L523.25 233.943L523.25 237.966L524.25 237.966ZM524.25 229.92L524.25 225.898L523.25 225.898L523.25 229.92L524.25 229.92ZM524.25 221.875L524.25 217.852L523.25 217.852L523.25 221.875L524.25 221.875ZM524.25 213.83L524.25 209.807L523.25 209.807L523.25 213.83L524.25 213.83ZM524.25 205.784L524.25 201.761L523.25 201.761L523.25 205.784L524.25 205.784ZM524.25 197.739L524.25 193.716L523.25 193.716L523.25 197.739L524.25 197.739ZM524.25 189.693L524.25 185.67L523.25 185.67L523.25 189.693L524.25 189.693ZM524.25 181.648L524.25 177.625L523.25 177.625L523.25 181.648L524.25 181.648ZM524.25 173.602L524.25 169.58L523.25 169.58L523.25 173.602L524.25 173.602ZM524.25 165.557L524.25 161.534L523.25 161.534L523.25 165.557L524.25 165.557ZM524.25 157.511L524.25 153.489L523.25 153.489L523.25 157.511L524.25 157.511ZM524.25 149.466L524.25 145.443L523.25 145.443L523.25 149.466L524.25 149.466ZM524.25 141.42L524.25 137.398L523.25 137.398L523.25 141.42L524.25 141.42ZM524.25 133.375L524.25 129.352L523.25 129.352L523.25 133.375L524.25 133.375ZM524.25 125.33L524.25 121.307L523.25 121.307L523.25 125.33L524.25 125.33ZM524.25 117.284L524.25 113.261L523.25 113.261L523.25 117.284L524.25 117.284ZM524.25 109.239L524.25 105.216L523.25 105.216L523.25 109.239L524.25 109.239ZM524.25 101.193L524.25 97.1705L523.25 97.1705L523.25 101.193L524.25 101.193ZM524.25 93.1477L524.25 89.125L523.25 89.125L523.25 93.1477L524.25 93.1477ZM524.25 85.1023L524.25 81.0796L523.25 81.0796L523.25 85.1023L524.25 85.1023ZM524.25 77.0569L524.25 73.0341L523.25 73.0341L523.25 77.0569L524.25 77.0569ZM524.25 69.0114L524.25 67L523.25 67L523.25 69.0114L524.25 69.0114ZM524.25 67C524.25 66.27 524.203 65.5509 524.111 64.8456L523.119 64.9749C523.205 65.6375 523.25 66.3134 523.25 67L524.25 67ZM522.998 60.6839C522.441 59.3422 521.713 58.09 520.841 56.9548L520.048 57.5641C520.868 58.6309 521.552 59.8071 522.074 61.0669L522.998 60.6839ZM517.795 53.9091C516.66 53.0368 515.408 52.3086 514.066 51.7522L513.683 52.6759C514.943 53.1984 516.119 53.8823 517.186 54.7021L517.795 53.9091ZM509.904 50.6394C509.199 50.5474 508.48 50.5 507.75 50.5L507.75 51.5C508.437 51.5 509.113 51.5446 509.775 51.631L509.904 50.6394ZM507.75 50.5L505.792 50.5L505.792 51.5L507.75 51.5L507.75 50.5ZM501.875 50.5L497.958 50.5L497.958 51.5L501.875 51.5L501.875 50.5ZM494.042 50.5L490.125 50.5L490.125 51.5L494.042 51.5L494.042 50.5ZM486.208 50.5L482.292 50.5L482.292 51.5L486.208 51.5L486.208 50.5ZM478.375 50.5L474.458 50.5L474.458 51.5L478.375 51.5L478.375 50.5ZM470.542 50.5L466.625 50.5L466.625 51.5L470.542 51.5L470.542 50.5ZM462.708 50.5L458.792 50.5L458.792 51.5L462.708 51.5L462.708 50.5ZM454.875 50.5L450.958 50.5L450.958 51.5L454.875 51.5L454.875 50.5ZM447.042 50.5L443.125 50.5L443.125 51.5L447.042 51.5L447.042 50.5ZM439.208 50.5L435.292 50.5L435.292 51.5L439.208 51.5L439.208 50.5ZM431.375 50.5L427.458 50.5L427.458 51.5L431.375 51.5L431.375 50.5ZM423.542 50.5L419.625 50.5L419.625 51.5L423.542 51.5L423.542 50.5ZM415.708 50.5L411.792 50.5L411.792 51.5L415.708 51.5L415.708 50.5ZM407.875 50.5L403.958 50.5L403.958 51.5L407.875 51.5L407.875 50.5ZM400.042 50.5L396.125 50.5L396.125 51.5L400.042 51.5L400.042 50.5ZM392.208 50.5L390.25 50.5L390.25 51.5L392.208 51.5L392.208 50.5ZM390.25 50.5C389.6 50.5 388.953 50.4843 388.311 50.4532L388.262 51.4521C388.921 51.4839 389.584 51.5 390.25 51.5L390.25 50.5ZM384.451 50.0775C383.162 49.8878 381.894 49.636 380.648 49.325L380.406 50.2952C381.683 50.6141 382.984 50.8724 384.306 51.0668L384.451 50.0775ZM376.939 48.2011C375.716 47.7636 374.521 47.2675 373.358 46.7163L372.93 47.62C374.123 48.1852 375.348 48.6939 376.602 49.1426L376.939 48.2011ZM369.941 44.886C368.83 44.219 367.755 43.4989 366.719 42.7293L366.123 43.532C367.185 44.3211 368.287 45.0593 369.426 45.7432L369.941 44.886ZM363.724 40.2681C362.766 39.3994 361.851 38.4843 360.982 37.5265L360.241 38.1983C361.132 39.1802 362.07 40.1183 363.052 41.0088L363.724 40.2681ZM358.521 34.5308C357.751 33.4948 357.031 32.4198 356.364 31.3093L355.507 31.8242C356.191 32.9628 356.929 34.065 357.718 35.1272L358.521 34.5308ZM354.534 27.892C353.982 26.7285 353.486 25.5338 353.049 24.3113L352.107 24.6483C352.556 25.902 353.065 27.1271 353.63 28.3202L354.534 27.892ZM351.925 20.6015C351.614 19.3563 351.362 18.0876 351.173 16.7986L350.183 16.9442C350.378 18.2659 350.636 19.5668 350.955 20.8438L351.925 20.6015ZM350.797 12.9394C350.766 12.2969 350.75 11.6503 350.75 11L349.75 11C349.75 11.6664 349.766 12.3291 349.798 12.9877L350.797 12.9394ZM350.75 11L350.75 9L349.75 9L349.75 11L350.75 11ZM350.75 5L350.75 3L349.75 3L349.75 5L350.75 5Z" fill="#9FB3CA"/>
<path d="M3.25 6.66667C4.72276 6.66667 5.91667 5.47276 5.91667 4C5.91667 2.52724 4.72276 1.33333 3.25 1.33333C1.77724 1.33333 0.583332 2.52724 0.583332 4C0.583332 5.47276 1.77724 6.66667 3.25 6.66667ZM3.25 11L3.75 11L3.25 11ZM377.75 50.5L375.759 50.5L375.759 51.5L377.75 51.5L377.75 50.5ZM371.777 50.5L367.795 50.5L367.795 51.5L371.777 51.5L371.777 50.5ZM363.812 50.5L359.83 50.5L359.83 51.5L363.813 51.5L363.812 50.5ZM355.848 50.5L351.866 50.5L351.866 51.5L355.848 51.5L355.848 50.5ZM347.884 50.5L343.902 50.5L343.902 51.5L347.884 51.5L347.884 50.5ZM339.92 50.5L335.937 50.5L335.938 51.5L339.92 51.5L339.92 50.5ZM331.955 50.5L327.973 50.5L327.973 51.5L331.955 51.5L331.955 50.5ZM323.991 50.5L320.009 50.5L320.009 51.5L323.991 51.5L323.991 50.5ZM316.027 50.5L312.045 50.5L312.045 51.5L316.027 51.5L316.027 50.5ZM308.062 50.5L304.08 50.5L304.08 51.5L308.063 51.5L308.062 50.5ZM300.098 50.5L296.116 50.5L296.116 51.5L300.098 51.5L300.098 50.5ZM292.134 50.5L288.152 50.5L288.152 51.5L292.134 51.5L292.134 50.5ZM284.17 50.5L280.188 50.5L280.188 51.5L284.17 51.5L284.17 50.5ZM276.205 50.5L272.223 50.5L272.223 51.5L276.205 51.5L276.205 50.5ZM268.241 50.5L264.259 50.5L264.259 51.5L268.241 51.5L268.241 50.5ZM260.277 50.5L256.295 50.5L256.295 51.5L260.277 51.5L260.277 50.5ZM252.313 50.5L248.33 50.5L248.33 51.5L252.313 51.5L252.313 50.5ZM244.348 50.5L240.366 50.5L240.366 51.5L244.348 51.5L244.348 50.5ZM236.384 50.5L232.402 50.5L232.402 51.5L236.384 51.5L236.384 50.5ZM228.42 50.5L224.438 50.5L224.438 51.5L228.42 51.5L228.42 50.5ZM220.455 50.5L216.473 50.5L216.473 51.5L220.455 51.5L220.455 50.5ZM212.491 50.5L208.509 50.5L208.509 51.5L212.491 51.5L212.491 50.5ZM204.527 50.5L200.545 50.5L200.545 51.5L204.527 51.5L204.527 50.5ZM196.562 50.5L192.58 50.5L192.58 51.5L196.563 51.5L196.562 50.5ZM188.598 50.5L184.616 50.5L184.616 51.5L188.598 51.5L188.598 50.5ZM180.634 50.5L176.652 50.5L176.652 51.5L180.634 51.5L180.634 50.5ZM172.67 50.5L168.687 50.5L168.687 51.5L172.67 51.5L172.67 50.5ZM164.705 50.5L160.723 50.5L160.723 51.5L164.705 51.5L164.705 50.5ZM156.741 50.5L152.759 50.5L152.759 51.5L156.741 51.5L156.741 50.5ZM148.777 50.5L144.795 50.5L144.795 51.5L148.777 51.5L148.777 50.5ZM140.812 50.5L136.83 50.5L136.83 51.5L140.812 51.5L140.812 50.5ZM132.848 50.5L128.866 50.5L128.866 51.5L132.848 51.5L132.848 50.5ZM124.884 50.5L120.902 50.5L120.902 51.5L124.884 51.5L124.884 50.5ZM116.92 50.5L112.937 50.5L112.937 51.5L116.92 51.5L116.92 50.5ZM108.955 50.5L104.973 50.5L104.973 51.5L108.955 51.5L108.955 50.5ZM100.991 50.5L97.0088 50.5L97.0088 51.5L100.991 51.5L100.991 50.5ZM93.0267 50.5L89.0445 50.5L89.0445 51.5L93.0267 51.5L93.0267 50.5ZM85.0624 50.5L81.0802 50.5L81.0802 51.5L85.0624 51.5L85.0624 50.5ZM77.0981 50.5L73.1159 50.5L73.1159 51.5L77.0981 51.5L77.0981 50.5ZM69.1338 50.5L65.1516 50.5L65.1516 51.5L69.1338 51.5L69.1338 50.5ZM61.1695 50.5L57.1873 50.5L57.1873 51.5L61.1695 51.5L61.1695 50.5ZM53.2052 50.5L49.2231 50.5L49.2231 51.5L53.2052 51.5L53.2052 50.5ZM45.2409 50.5L43.25 50.5L43.25 51.5L45.2409 51.5L45.2409 50.5ZM43.25 50.5C42.5997 50.5 41.9531 50.4843 41.3106 50.4532L41.2623 51.4521C41.9209 51.4839 42.5836 51.5 43.25 51.5L43.25 50.5ZM37.4513 50.0774C36.1624 49.8878 34.8937 49.636 33.6485 49.325L33.4062 50.2952C34.6832 50.6141 35.9841 50.8724 37.3058 51.0668L37.4513 50.0774ZM29.9387 48.2011C28.7162 47.7636 27.5215 47.2675 26.358 46.7163L25.9298 47.62C27.1229 48.1852 28.348 48.6939 29.6017 49.1426L29.9387 48.2011ZM22.9407 44.886C21.8302 44.219 20.7552 43.4989 19.7192 42.7293L19.1228 43.532C20.185 44.3211 21.2872 45.0593 22.4258 45.7432L22.9407 44.886ZM16.7235 40.268C15.7657 39.3994 14.8506 38.4843 13.9819 37.5265L13.2412 38.1983C14.1317 39.1802 15.0698 40.1183 16.0517 41.0088L16.7235 40.268ZM11.5207 34.5308C10.7511 33.4948 10.031 32.4198 9.36401 31.3093L8.50676 31.8242C9.19066 32.9628 9.92893 34.065 10.718 35.1272L11.5207 34.5308ZM7.53373 27.892C6.98248 26.7285 6.48642 25.5338 6.04892 24.3113L5.1074 24.6482C5.55605 25.902 6.06475 27.1271 6.63003 28.3202L7.53373 27.892ZM4.92496 20.6015C4.61401 19.3563 4.36215 18.0876 4.17255 16.7986L3.1832 16.9442C3.37761 18.2658 3.63587 19.5668 3.95476 20.8438L4.92496 20.6015ZM3.79677 12.9394C3.76571 12.2969 3.75 11.6503 3.75 11L2.75 11C2.75 11.6664 2.7661 12.3291 2.79793 12.9877L3.79677 12.9394ZM3.75 11L3.75 9.25L2.75 9.25L2.75 11L3.75 11ZM3.75 5.75L3.75 4L2.75 4L2.75 5.75L3.75 5.75Z" fill="#9FB3CA"/>
<path d="M524 244L524 67C524 58.1634 531.163 51 540 51L657.5 51C679.591 51 697.5 33.0914 697.5 11L697.5 3" stroke="#9FB3CA" stroke-dasharray="4 4"/>
<path d="M1044.5 6.66667C1043.03 6.66667 1041.83 5.47276 1041.83 4C1041.83 2.52724 1043.03 1.33333 1044.5 1.33333C1045.97 1.33333 1047.17 2.52724 1047.17 4C1047.17 5.47276 1045.97 6.66667 1044.5 6.66667ZM1044.5 11L1044 11L1044.5 11ZM670 50.5L671.991 50.5L671.991 51.5L670 51.5L670 50.5ZM675.973 50.5L679.955 50.5L679.955 51.5L675.973 51.5L675.973 50.5ZM683.938 50.5L687.92 50.5L687.92 51.5L683.937 51.5L683.938 50.5ZM691.902 50.5L695.884 50.5L695.884 51.5L691.902 51.5L691.902 50.5ZM699.866 50.5L703.848 50.5L703.848 51.5L699.866 51.5L699.866 50.5ZM707.83 50.5L711.813 50.5L711.812 51.5L707.83 51.5L707.83 50.5ZM715.795 50.5L719.777 50.5L719.777 51.5L715.795 51.5L715.795 50.5ZM723.759 50.5L727.741 50.5L727.741 51.5L723.759 51.5L723.759 50.5ZM731.723 50.5L735.705 50.5L735.705 51.5L731.723 51.5L731.723 50.5ZM739.688 50.5L743.67 50.5L743.67 51.5L739.687 51.5L739.688 50.5ZM747.652 50.5L751.634 50.5L751.634 51.5L747.652 51.5L747.652 50.5ZM755.616 50.5L759.598 50.5L759.598 51.5L755.616 51.5L755.616 50.5ZM763.58 50.5L767.562 50.5L767.562 51.5L763.58 51.5L763.58 50.5ZM771.545 50.5L775.527 50.5L775.527 51.5L771.545 51.5L771.545 50.5ZM779.509 50.5L783.491 50.5L783.491 51.5L779.509 51.5L779.509 50.5ZM787.473 50.5L791.455 50.5L791.455 51.5L787.473 51.5L787.473 50.5ZM795.437 50.5L799.42 50.5L799.42 51.5L795.437 51.5L795.437 50.5ZM803.402 50.5L807.384 50.5L807.384 51.5L803.402 51.5L803.402 50.5ZM811.366 50.5L815.348 50.5L815.348 51.5L811.366 51.5L811.366 50.5ZM819.33 50.5L823.312 50.5L823.312 51.5L819.33 51.5L819.33 50.5ZM827.295 50.5L831.277 50.5L831.277 51.5L827.295 51.5L827.295 50.5ZM835.259 50.5L839.241 50.5L839.241 51.5L835.259 51.5L835.259 50.5ZM843.223 50.5L847.205 50.5L847.205 51.5L843.223 51.5L843.223 50.5ZM851.188 50.5L855.17 50.5L855.17 51.5L851.187 51.5L851.188 50.5ZM859.152 50.5L863.134 50.5L863.134 51.5L859.152 51.5L859.152 50.5ZM867.116 50.5L871.098 50.5L871.098 51.5L867.116 51.5L867.116 50.5ZM875.08 50.5L879.063 50.5L879.063 51.5L875.08 51.5L875.08 50.5ZM883.045 50.5L887.027 50.5L887.027 51.5L883.045 51.5L883.045 50.5ZM891.009 50.5L894.991 50.5L894.991 51.5L891.009 51.5L891.009 50.5ZM898.973 50.5L902.955 50.5L902.955 51.5L898.973 51.5L898.973 50.5ZM906.938 50.5L910.92 50.5L910.92 51.5L906.938 51.5L906.938 50.5ZM914.902 50.5L918.884 50.5L918.884 51.5L914.902 51.5L914.902 50.5ZM922.866 50.5L926.848 50.5L926.848 51.5L922.866 51.5L922.866 50.5ZM930.83 50.5L934.813 50.5L934.813 51.5L930.83 51.5L930.83 50.5ZM938.795 50.5L942.777 50.5L942.777 51.5L938.795 51.5L938.795 50.5ZM946.759 50.5L950.741 50.5L950.741 51.5L946.759 51.5L946.759 50.5ZM954.723 50.5L958.705 50.5L958.705 51.5L954.723 51.5L954.723 50.5ZM962.688 50.5L966.67 50.5L966.67 51.5L962.688 51.5L962.688 50.5ZM970.652 50.5L974.634 50.5L974.634 51.5L970.652 51.5L970.652 50.5ZM978.616 50.5L982.598 50.5L982.598 51.5L978.616 51.5L978.616 50.5ZM986.581 50.5L990.563 50.5L990.563 51.5L986.581 51.5L986.581 50.5ZM994.545 50.5L998.527 50.5L998.527 51.5L994.545 51.5L994.545 50.5ZM1002.51 50.5L1004.5 50.5L1004.5 51.5L1002.51 51.5L1002.51 50.5ZM1004.5 50.5C1005.15 50.5 1005.8 50.4843 1006.44 50.4532L1006.49 51.4521C1005.83 51.4839 1005.17 51.5 1004.5 51.5L1004.5 50.5ZM1010.3 50.0774C1011.59 49.8878 1012.86 49.636 1014.1 49.325L1014.34 50.2952C1013.07 50.6141 1011.77 50.8724 1010.44 51.0668L1010.3 50.0774ZM1017.81 48.2011C1019.03 47.7636 1020.23 47.2675 1021.39 46.7163L1021.82 47.62C1020.63 48.1852 1019.4 48.6939 1018.15 49.1426L1017.81 48.2011ZM1024.81 44.886C1025.92 44.219 1026.99 43.4989 1028.03 42.7293L1028.63 43.532C1027.56 44.3211 1026.46 45.0593 1025.32 45.7432L1024.81 44.886ZM1031.03 40.268C1031.98 39.3994 1032.9 38.4843 1033.77 37.5265L1034.51 38.1983C1033.62 39.1802 1032.68 40.1183 1031.7 41.0088L1031.03 40.268ZM1036.23 34.5308C1037 33.4948 1037.72 32.4198 1038.39 31.3093L1039.24 31.8242C1038.56 32.9628 1037.82 34.065 1037.03 35.1272L1036.23 34.5308ZM1040.22 27.892C1040.77 26.7285 1041.26 25.5338 1041.7 24.3113L1042.64 24.6482C1042.19 25.902 1041.69 27.1271 1041.12 28.3202L1040.22 27.892ZM1042.83 20.6015C1043.14 19.3563 1043.39 18.0876 1043.58 16.7986L1044.57 16.9442C1044.37 18.2658 1044.11 19.5668 1043.8 20.8438L1042.83 20.6015ZM1043.95 12.9394C1043.98 12.2969 1044 11.6503 1044 11L1045 11C1045 11.6664 1044.98 12.3291 1044.95 12.9877L1043.95 12.9394ZM1044 11L1044 9.25L1045 9.25L1045 11L1044 11ZM1044 5.75L1044 4L1045 4L1045 5.75L1044 5.75Z" fill="#9FB3CA"/>
</svg>
