<svg width="48" height="48" viewBox="0 0 48 48" fill="none" xmlns="http://www.w3.org/2000/svg">
<rect width="48" height="48" rx="24" fill="#CDF348"/>
<path d="M13 25.4348V32.1304L18.5 35L24 32.1304M13 25.4348L18.5 22.5652M13 25.4348L18.5 28.3043L24 25.4348M18.5 22.5652L24 25.4348M18.5 22.5652V15.8696M24 25.4348V32.1304M24 25.4348L29.5 22.5652M24 25.4348L29.5 28.3043L35 25.4348M24 32.1304L29.5 35L35 32.1304V25.4348M29.5 22.5652L35 25.4348M29.5 22.5652V15.8696M18.5 15.8696L24 13L29.5 15.8696M18.5 15.8696L24 18.7391L29.5 15.8696" stroke="#243837" stroke-width="1.8" stroke-linecap="round" stroke-linejoin="round"/>
</svg>
