<svg fill="none" height="40" viewBox="0 0 40 40" width="40" xmlns="http://www.w3.org/2000/svg"><rect fill="#f1f5f9" height="40" rx="20" width="40"/><path d="m18.624 14.6154h-5.0855c-.2974 0-.5385.2411-.5385.5384v8.6154c0 .2974.2411.5385.5385.5385h12.923c.2975 0 .5385-.2411.5385-.5385v-4.4331m-8.0769 4.9716-1.0769 2.6923m3.2307-2.6923 1.077 2.6923m-5.3847 0h6.4616m-2.6825-10.2972c-.3721-.0658-.3721-.609 0-.6749 1.3482-.2385 2.4205-1.2826 2.7132-2.642l.0224-.1041c.0805-.374.6041-.3764.6879-.0031l.0272.1214c.3034 1.3529 1.376 2.3883 2.7205 2.6261.374.0662.374.6122 0 .6784-1.3445.2378-2.4171 1.2732-2.7205 2.626l-.0272.1215c-.0838.3732-.6074.3709-.6879-.0031l-.0224-.1042c-.2927-1.3593-1.365-2.4035-2.7132-2.642z" stroke="#395577" stroke-linecap="round" stroke-linejoin="round" stroke-width="1.4"/></svg>