<svg width="40" height="40" viewBox="0 0 40 40" fill="none" xmlns="http://www.w3.org/2000/svg">
<rect width="40" height="40" rx="20" fill="#F1F5F9"/>
<path d="M18.9231 22.9318L15.9615 16.1818L13 22.9318M18.9231 22.9318C18.9231 23.7455 18.6111 24.526 18.0557 25.1014C17.5003 25.6768 16.747 26 15.9615 26C15.1761 26 14.4228 25.6768 13.8674 25.1014C13.312 24.526 13 23.7455 13 22.9318M18.9231 22.9318H13M27 22.9318L24.0385 16.1818L21.0769 22.9318M27 22.9318C27 23.7455 26.688 24.526 26.1325 25.1014C25.5772 25.6768 24.8239 26 24.0385 26C23.2531 26 22.4997 25.6768 21.9443 25.1014C21.3889 24.526 21.0769 23.7455 21.0769 22.9318M27 22.9318H21.0769M14.0769 16.1818H25.9231M20 16.1818V14" stroke="#395577" stroke-width="1.4" stroke-linecap="round" stroke-linejoin="round"/>
</svg>
