<svg width="1048" height="102" viewBox="0 0 1048 102" fill="none" xmlns="http://www.w3.org/2000/svg">
<path d="M523.75 0.333341C525.223 0.333341 526.417 1.52725 526.417 3.00001C526.417 4.47277 525.223 5.66667 523.75 5.66667C522.277 5.66667 521.083 4.47277 521.083 3.00001C521.083 1.52725 522.277 0.333341 523.75 0.333341ZM350.25 96.3333C351.723 96.3333 352.917 97.5272 352.917 99C352.917 100.473 351.723 101.667 350.25 101.667C348.777 101.667 347.583 100.473 347.583 99C347.583 97.5272 348.777 96.3333 350.25 96.3333ZM524.25 3.00001L524.25 5.00001L523.25 5.00001L523.25 3.00001L524.25 3.00001ZM524.25 9.00001L524.25 13L523.25 13L523.25 9.00001L524.25 9.00001ZM524.25 17L524.25 21L523.25 21L523.25 17L524.25 17ZM524.25 25L524.25 29L523.25 29L523.25 25L524.25 25ZM524.25 33L524.25 35L523.25 35L523.25 33L524.25 33ZM524.25 35C524.25 35.73 524.203 36.4491 524.111 37.1544L523.119 37.0251C523.205 36.3625 523.25 35.6866 523.25 35L524.25 35ZM522.998 41.3161C522.441 42.6578 521.713 43.91 520.841 45.0452L520.048 44.4359C520.868 43.3692 521.552 42.1929 522.074 40.9331L522.998 41.3161ZM517.795 48.0909C516.66 48.9632 515.408 49.6914 514.066 50.2478L513.683 49.3241C514.943 48.8016 516.119 48.1177 517.186 47.2979L517.795 48.0909ZM509.904 51.3606C509.199 51.4526 508.48 51.5 507.75 51.5L507.75 50.5C508.437 50.5 509.113 50.4554 509.775 50.369L509.904 51.3606ZM507.75 51.5L505.792 51.5L505.792 50.5L507.75 50.5L507.75 51.5ZM501.875 51.5L497.958 51.5L497.958 50.5L501.875 50.5L501.875 51.5ZM494.042 51.5L490.125 51.5L490.125 50.5L494.042 50.5L494.042 51.5ZM486.208 51.5L482.292 51.5L482.292 50.5L486.208 50.5L486.208 51.5ZM478.375 51.5L474.458 51.5L474.458 50.5L478.375 50.5L478.375 51.5ZM470.542 51.5L466.625 51.5L466.625 50.5L470.542 50.5L470.542 51.5ZM462.708 51.5L458.792 51.5L458.792 50.5L462.708 50.5L462.708 51.5ZM454.875 51.5L450.958 51.5L450.958 50.5L454.875 50.5L454.875 51.5ZM447.042 51.5L443.125 51.5L443.125 50.5L447.042 50.5L447.042 51.5ZM439.208 51.5L435.292 51.5L435.292 50.5L439.208 50.5L439.208 51.5ZM431.375 51.5L427.458 51.5L427.458 50.5L431.375 50.5L431.375 51.5ZM423.542 51.5L419.625 51.5L419.625 50.5L423.542 50.5L423.542 51.5ZM415.708 51.5L411.792 51.5L411.792 50.5L415.708 50.5L415.708 51.5ZM407.875 51.5L403.958 51.5L403.958 50.5L407.875 50.5L407.875 51.5ZM400.042 51.5L396.125 51.5L396.125 50.5L400.042 50.5L400.042 51.5ZM392.208 51.5L390.25 51.5L390.25 50.5L392.208 50.5L392.208 51.5ZM390.25 51.5C389.6 51.5 388.953 51.5157 388.311 51.5468L388.262 50.5479C388.921 50.5161 389.584 50.5 390.25 50.5L390.25 51.5ZM384.451 51.9226C383.162 52.1122 381.894 52.364 380.648 52.675L380.406 51.7048C381.683 51.3859 382.984 51.1276 384.306 50.9332L384.451 51.9226ZM376.939 53.7989C375.716 54.2364 374.521 54.7325 373.358 55.2837L372.93 54.38C374.123 53.8148 375.348 53.3061 376.602 52.8574L376.939 53.7989ZM369.941 57.114C368.83 57.781 367.755 58.5011 366.719 59.2707L366.123 58.468C367.185 57.6789 368.287 56.9407 369.426 56.2568L369.941 57.114ZM363.724 61.732C362.766 62.6006 361.851 63.5157 360.982 64.4735L360.241 63.8017C361.132 62.8198 362.07 61.8817 363.052 60.9912L363.724 61.732ZM358.521 67.4692C357.751 68.5052 357.031 69.5802 356.364 70.6907L355.507 70.1758C356.191 69.0372 356.929 67.935 357.718 66.8728L358.521 67.4692ZM354.534 74.108C353.982 75.2715 353.486 76.4662 353.049 77.6887L352.107 77.3518C352.556 76.098 353.065 74.8729 353.63 73.6798L354.534 74.108ZM351.925 81.3985C351.614 82.6437 351.362 83.9124 351.173 85.2014L350.183 85.0558C350.378 83.7342 350.636 82.4332 350.955 81.1562L351.925 81.3985ZM350.797 89.0606C350.766 89.7031 350.75 90.3497 350.75 91L349.75 91C349.75 90.3336 349.766 89.6709 349.798 89.0123L350.797 89.0606ZM350.75 91L350.75 93L349.75 93L349.75 91L350.75 91ZM350.75 97L350.75 99L349.75 99L349.75 97L350.75 97Z" fill="#9FB3CA"/>
<path d="M3.25 95.3333C4.72276 95.3333 5.91667 96.5272 5.91667 98C5.91667 99.4728 4.72276 100.667 3.25 100.667C1.77724 100.667 0.583332 99.4728 0.583332 98C0.583332 96.5272 1.77724 95.3333 3.25 95.3333ZM3.25 91L3.75 91L3.25 91ZM377.75 51.5L375.759 51.5L375.759 50.5L377.75 50.5L377.75 51.5ZM371.777 51.5L367.795 51.5L367.795 50.5L371.777 50.5L371.777 51.5ZM363.812 51.5L359.83 51.5L359.83 50.5L363.813 50.5L363.812 51.5ZM355.848 51.5L351.866 51.5L351.866 50.5L355.848 50.5L355.848 51.5ZM347.884 51.5L343.902 51.5L343.902 50.5L347.884 50.5L347.884 51.5ZM339.92 51.5L335.937 51.5L335.938 50.5L339.92 50.5L339.92 51.5ZM331.955 51.5L327.973 51.5L327.973 50.5L331.955 50.5L331.955 51.5ZM323.991 51.5L320.009 51.5L320.009 50.5L323.991 50.5L323.991 51.5ZM316.027 51.5L312.045 51.5L312.045 50.5L316.027 50.5L316.027 51.5ZM308.062 51.5L304.08 51.5L304.08 50.5L308.063 50.5L308.062 51.5ZM300.098 51.5L296.116 51.5L296.116 50.5L300.098 50.5L300.098 51.5ZM292.134 51.5L288.152 51.5L288.152 50.5L292.134 50.5L292.134 51.5ZM284.17 51.5L280.188 51.5L280.188 50.5L284.17 50.5L284.17 51.5ZM276.205 51.5L272.223 51.5L272.223 50.5L276.205 50.5L276.205 51.5ZM268.241 51.5L264.259 51.5L264.259 50.5L268.241 50.5L268.241 51.5ZM260.277 51.5L256.295 51.5L256.295 50.5L260.277 50.5L260.277 51.5ZM252.313 51.5L248.33 51.5L248.33 50.5L252.313 50.5L252.313 51.5ZM244.348 51.5L240.366 51.5L240.366 50.5L244.348 50.5L244.348 51.5ZM236.384 51.5L232.402 51.5L232.402 50.5L236.384 50.5L236.384 51.5ZM228.42 51.5L224.438 51.5L224.438 50.5L228.42 50.5L228.42 51.5ZM220.455 51.5L216.473 51.5L216.473 50.5L220.455 50.5L220.455 51.5ZM212.491 51.5L208.509 51.5L208.509 50.5L212.491 50.5L212.491 51.5ZM204.527 51.5L200.545 51.5L200.545 50.5L204.527 50.5L204.527 51.5ZM196.562 51.5L192.58 51.5L192.58 50.5L196.563 50.5L196.562 51.5ZM188.598 51.5L184.616 51.5L184.616 50.5L188.598 50.5L188.598 51.5ZM180.634 51.5L176.652 51.5L176.652 50.5L180.634 50.5L180.634 51.5ZM172.67 51.5L168.687 51.5L168.687 50.5L172.67 50.5L172.67 51.5ZM164.705 51.5L160.723 51.5L160.723 50.5L164.705 50.5L164.705 51.5ZM156.741 51.5L152.759 51.5L152.759 50.5L156.741 50.5L156.741 51.5ZM148.777 51.5L144.795 51.5L144.795 50.5L148.777 50.5L148.777 51.5ZM140.812 51.5L136.83 51.5L136.83 50.5L140.812 50.5L140.812 51.5ZM132.848 51.5L128.866 51.5L128.866 50.5L132.848 50.5L132.848 51.5ZM124.884 51.5L120.902 51.5L120.902 50.5L124.884 50.5L124.884 51.5ZM116.92 51.5L112.937 51.5L112.937 50.5L116.92 50.5L116.92 51.5ZM108.955 51.5L104.973 51.5L104.973 50.5L108.955 50.5L108.955 51.5ZM100.991 51.5L97.0088 51.5L97.0088 50.5L100.991 50.5L100.991 51.5ZM93.0267 51.5L89.0445 51.5L89.0445 50.5L93.0267 50.5L93.0267 51.5ZM85.0624 51.5L81.0802 51.5L81.0802 50.5L85.0624 50.5L85.0624 51.5ZM77.0981 51.5L73.1159 51.5L73.1159 50.5L77.0981 50.5L77.0981 51.5ZM69.1338 51.5L65.1516 51.5L65.1516 50.5L69.1338 50.5L69.1338 51.5ZM61.1695 51.5L57.1873 51.5L57.1873 50.5L61.1695 50.5L61.1695 51.5ZM53.2052 51.5L49.2231 51.5L49.2231 50.5L53.2052 50.5L53.2052 51.5ZM45.2409 51.5L43.25 51.5L43.25 50.5L45.2409 50.5L45.2409 51.5ZM43.25 51.5C42.5997 51.5 41.9531 51.5157 41.3106 51.5468L41.2623 50.5479C41.9209 50.5161 42.5836 50.5 43.25 50.5L43.25 51.5ZM37.4513 51.9226C36.1624 52.1122 34.8937 52.364 33.6485 52.675L33.4062 51.7048C34.6832 51.3859 35.9841 51.1276 37.3058 50.9332L37.4513 51.9226ZM29.9387 53.7989C28.7162 54.2364 27.5215 54.7325 26.358 55.2837L25.9298 54.38C27.1229 53.8148 28.348 53.3061 29.6017 52.8574L29.9387 53.7989ZM22.9407 57.114C21.8302 57.781 20.7552 58.5011 19.7192 59.2707L19.1228 58.468C20.185 57.6789 21.2872 56.9407 22.4258 56.2568L22.9407 57.114ZM16.7235 61.732C15.7657 62.6006 14.8506 63.5157 13.9819 64.4735L13.2412 63.8017C14.1317 62.8198 15.0698 61.8817 16.0517 60.9912L16.7235 61.732ZM11.5207 67.4692C10.7511 68.5052 10.031 69.5802 9.36401 70.6907L8.50676 70.1758C9.19066 69.0372 9.92893 67.935 10.718 66.8728L11.5207 67.4692ZM7.53373 74.108C6.98248 75.2715 6.48642 76.4662 6.04892 77.6887L5.1074 77.3518C5.55605 76.098 6.06475 74.8729 6.63003 73.6798L7.53373 74.108ZM4.92496 81.3985C4.61401 82.6437 4.36215 83.9124 4.17255 85.2014L3.1832 85.0558C3.37761 83.7342 3.63587 82.4332 3.95476 81.1562L4.92496 81.3985ZM3.79677 89.0606C3.76571 89.7031 3.75 90.3497 3.75 91L2.75 91C2.75 90.3336 2.7661 89.6709 2.79793 89.0123L3.79677 89.0606ZM3.75 91L3.75 92.75L2.75 92.75L2.75 91L3.75 91ZM3.75 96.25L3.75 98L2.75 98L2.75 96.25L3.75 96.25Z" fill="#9FB3CA"/>
<path d="M697.5 96.3333C696.027 96.3333 694.833 97.5272 694.833 99C694.833 100.473 696.027 101.667 697.5 101.667C698.973 101.667 700.167 100.473 700.167 99C700.167 97.5272 698.973 96.3333 697.5 96.3333ZM523.5 3.00001L523.5 5.00001L524.5 5.00001L524.5 3.00001L523.5 3.00001ZM523.5 9.00001L523.5 13L524.5 13L524.5 9.00001L523.5 9.00001ZM523.5 17L523.5 21L524.5 21L524.5 17L523.5 17ZM523.5 25L523.5 29L524.5 29L524.5 25L523.5 25ZM523.5 33L523.5 35L524.5 35L524.5 33L523.5 33ZM523.5 35C523.5 35.73 523.547 36.4491 523.639 37.1544L524.631 37.0251C524.545 36.3625 524.5 35.6866 524.5 35L523.5 35ZM524.752 41.3161C525.309 42.6578 526.037 43.91 526.909 45.0452L527.702 44.4359C526.882 43.3692 526.198 42.1929 525.676 40.9331L524.752 41.3161ZM529.955 48.0909C531.09 48.9632 532.342 49.6914 533.684 50.2478L534.067 49.3241C532.807 48.8016 531.631 48.1177 530.564 47.2979L529.955 48.0909ZM537.846 51.3606C538.551 51.4526 539.27 51.5 540 51.5L540 50.5C539.313 50.5 538.637 50.4554 537.975 50.369L537.846 51.3606ZM540 51.5L541.958 51.5L541.958 50.5L540 50.5L540 51.5ZM545.875 51.5L549.792 51.5L549.792 50.5L545.875 50.5L545.875 51.5ZM553.708 51.5L557.625 51.5L557.625 50.5L553.708 50.5L553.708 51.5ZM561.542 51.5L565.458 51.5L565.458 50.5L561.542 50.5L561.542 51.5ZM569.375 51.5L573.292 51.5L573.292 50.5L569.375 50.5L569.375 51.5ZM577.208 51.5L581.125 51.5L581.125 50.5L577.208 50.5L577.208 51.5ZM585.042 51.5L588.958 51.5L588.958 50.5L585.042 50.5L585.042 51.5ZM592.875 51.5L596.792 51.5L596.792 50.5L592.875 50.5L592.875 51.5ZM600.708 51.5L604.625 51.5L604.625 50.5L600.708 50.5L600.708 51.5ZM608.542 51.5L612.458 51.5L612.458 50.5L608.542 50.5L608.542 51.5ZM616.375 51.5L620.292 51.5L620.292 50.5L616.375 50.5L616.375 51.5ZM624.208 51.5L628.125 51.5L628.125 50.5L624.208 50.5L624.208 51.5ZM632.042 51.5L635.958 51.5L635.958 50.5L632.042 50.5L632.042 51.5ZM639.875 51.5L643.792 51.5L643.792 50.5L639.875 50.5L639.875 51.5ZM647.708 51.5L651.625 51.5L651.625 50.5L647.708 50.5L647.708 51.5ZM655.542 51.5L657.5 51.5L657.5 50.5L655.542 50.5L655.542 51.5ZM657.5 51.5C658.15 51.5 658.797 51.5157 659.439 51.5468L659.488 50.5479C658.829 50.5161 658.166 50.5 657.5 50.5L657.5 51.5ZM663.299 51.9226C664.588 52.1122 665.856 52.364 667.102 52.675L667.344 51.7048C666.067 51.3859 664.766 51.1276 663.444 50.9332L663.299 51.9226ZM670.811 53.7989C672.034 54.2364 673.229 54.7325 674.392 55.2837L674.82 54.38C673.627 53.8148 672.402 53.3061 671.148 52.8574L670.811 53.7989ZM677.809 57.114C678.92 57.781 679.995 58.5011 681.031 59.2707L681.627 58.468C680.565 57.6789 679.463 56.9407 678.324 56.2568L677.809 57.114ZM684.026 61.732C684.984 62.6006 685.899 63.5157 686.768 64.4735L687.509 63.8017C686.618 62.8198 685.68 61.8817 684.698 60.9912L684.026 61.732ZM689.229 67.4692C689.999 68.5052 690.719 69.5802 691.386 70.6907L692.243 70.1758C691.559 69.0372 690.821 67.935 690.032 66.8728L689.229 67.4692ZM693.216 74.108C693.768 75.2715 694.264 76.4662 694.701 77.6887L695.643 77.3518C695.194 76.098 694.685 74.8729 694.12 73.6798L693.216 74.108ZM695.825 81.3985C696.136 82.6437 696.388 83.9124 696.577 85.2014L697.567 85.0558C697.372 83.7342 697.114 82.4332 696.795 81.1562L695.825 81.3985ZM696.953 89.0606C696.984 89.7031 697 90.3497 697 91L698 91C698 90.3336 697.984 89.6709 697.952 89.0123L696.953 89.0606ZM697 91L697 93L698 93L698 91L697 91ZM697 97L697 99L698 99L698 97L697 97Z" fill="#9FB3CA"/>
<path d="M1044.5 95.3333C1043.03 95.3333 1041.83 96.5272 1041.83 98C1041.83 99.4728 1043.03 100.667 1044.5 100.667C1045.97 100.667 1047.17 99.4728 1047.17 98C1047.17 96.5272 1045.97 95.3333 1044.5 95.3333ZM1044.5 91L1044 91L1044.5 91ZM670 51.5L671.991 51.5L671.991 50.5L670 50.5L670 51.5ZM675.973 51.5L679.955 51.5L679.955 50.5L675.973 50.5L675.973 51.5ZM683.938 51.5L687.92 51.5L687.92 50.5L683.937 50.5L683.938 51.5ZM691.902 51.5L695.884 51.5L695.884 50.5L691.902 50.5L691.902 51.5ZM699.866 51.5L703.848 51.5L703.848 50.5L699.866 50.5L699.866 51.5ZM707.83 51.5L711.813 51.5L711.812 50.5L707.83 50.5L707.83 51.5ZM715.795 51.5L719.777 51.5L719.777 50.5L715.795 50.5L715.795 51.5ZM723.759 51.5L727.741 51.5L727.741 50.5L723.759 50.5L723.759 51.5ZM731.723 51.5L735.705 51.5L735.705 50.5L731.723 50.5L731.723 51.5ZM739.688 51.5L743.67 51.5L743.67 50.5L739.687 50.5L739.688 51.5ZM747.652 51.5L751.634 51.5L751.634 50.5L747.652 50.5L747.652 51.5ZM755.616 51.5L759.598 51.5L759.598 50.5L755.616 50.5L755.616 51.5ZM763.58 51.5L767.562 51.5L767.562 50.5L763.58 50.5L763.58 51.5ZM771.545 51.5L775.527 51.5L775.527 50.5L771.545 50.5L771.545 51.5ZM779.509 51.5L783.491 51.5L783.491 50.5L779.509 50.5L779.509 51.5ZM787.473 51.5L791.455 51.5L791.455 50.5L787.473 50.5L787.473 51.5ZM795.437 51.5L799.42 51.5L799.42 50.5L795.437 50.5L795.437 51.5ZM803.402 51.5L807.384 51.5L807.384 50.5L803.402 50.5L803.402 51.5ZM811.366 51.5L815.348 51.5L815.348 50.5L811.366 50.5L811.366 51.5ZM819.33 51.5L823.312 51.5L823.312 50.5L819.33 50.5L819.33 51.5ZM827.295 51.5L831.277 51.5L831.277 50.5L827.295 50.5L827.295 51.5ZM835.259 51.5L839.241 51.5L839.241 50.5L835.259 50.5L835.259 51.5ZM843.223 51.5L847.205 51.5L847.205 50.5L843.223 50.5L843.223 51.5ZM851.188 51.5L855.17 51.5L855.17 50.5L851.187 50.5L851.188 51.5ZM859.152 51.5L863.134 51.5L863.134 50.5L859.152 50.5L859.152 51.5ZM867.116 51.5L871.098 51.5L871.098 50.5L867.116 50.5L867.116 51.5ZM875.08 51.5L879.063 51.5L879.063 50.5L875.08 50.5L875.08 51.5ZM883.045 51.5L887.027 51.5L887.027 50.5L883.045 50.5L883.045 51.5ZM891.009 51.5L894.991 51.5L894.991 50.5L891.009 50.5L891.009 51.5ZM898.973 51.5L902.955 51.5L902.955 50.5L898.973 50.5L898.973 51.5ZM906.938 51.5L910.92 51.5L910.92 50.5L906.938 50.5L906.938 51.5ZM914.902 51.5L918.884 51.5L918.884 50.5L914.902 50.5L914.902 51.5ZM922.866 51.5L926.848 51.5L926.848 50.5L922.866 50.5L922.866 51.5ZM930.83 51.5L934.813 51.5L934.813 50.5L930.83 50.5L930.83 51.5ZM938.795 51.5L942.777 51.5L942.777 50.5L938.795 50.5L938.795 51.5ZM946.759 51.5L950.741 51.5L950.741 50.5L946.759 50.5L946.759 51.5ZM954.723 51.5L958.705 51.5L958.705 50.5L954.723 50.5L954.723 51.5ZM962.688 51.5L966.67 51.5L966.67 50.5L962.688 50.5L962.688 51.5ZM970.652 51.5L974.634 51.5L974.634 50.5L970.652 50.5L970.652 51.5ZM978.616 51.5L982.598 51.5L982.598 50.5L978.616 50.5L978.616 51.5ZM986.581 51.5L990.563 51.5L990.563 50.5L986.581 50.5L986.581 51.5ZM994.545 51.5L998.527 51.5L998.527 50.5L994.545 50.5L994.545 51.5ZM1002.51 51.5L1004.5 51.5L1004.5 50.5L1002.51 50.5L1002.51 51.5ZM1004.5 51.5C1005.15 51.5 1005.8 51.5157 1006.44 51.5468L1006.49 50.5479C1005.83 50.5161 1005.17 50.5 1004.5 50.5L1004.5 51.5ZM1010.3 51.9226C1011.59 52.1122 1012.86 52.364 1014.1 52.675L1014.34 51.7048C1013.07 51.3859 1011.77 51.1276 1010.44 50.9332L1010.3 51.9226ZM1017.81 53.7989C1019.03 54.2364 1020.23 54.7325 1021.39 55.2837L1021.82 54.38C1020.63 53.8148 1019.4 53.3061 1018.15 52.8574L1017.81 53.7989ZM1024.81 57.114C1025.92 57.781 1026.99 58.5011 1028.03 59.2707L1028.63 58.468C1027.56 57.6789 1026.46 56.9407 1025.32 56.2568L1024.81 57.114ZM1031.03 61.732C1031.98 62.6006 1032.9 63.5157 1033.77 64.4735L1034.51 63.8017C1033.62 62.8198 1032.68 61.8817 1031.7 60.9912L1031.03 61.732ZM1036.23 67.4692C1037 68.5052 1037.72 69.5802 1038.39 70.6907L1039.24 70.1758C1038.56 69.0372 1037.82 67.935 1037.03 66.8728L1036.23 67.4692ZM1040.22 74.108C1040.77 75.2715 1041.26 76.4662 1041.7 77.6887L1042.64 77.3518C1042.19 76.098 1041.69 74.8729 1041.12 73.6798L1040.22 74.108ZM1042.83 81.3985C1043.14 82.6437 1043.39 83.9124 1043.58 85.2014L1044.57 85.0558C1044.37 83.7342 1044.11 82.4332 1043.8 81.1562L1042.83 81.3985ZM1043.95 89.0606C1043.98 89.7031 1044 90.3497 1044 91L1045 91C1045 90.3336 1044.98 89.6709 1044.95 89.0123L1043.95 89.0606ZM1044 91L1044 92.75L1045 92.75L1045 91L1044 91ZM1044 96.25L1044 98L1045 98L1045 96.25L1044 96.25Z" fill="#9FB3CA"/>
</svg>
