<svg width="179" height="40" viewBox="0 0 179 40" fill="none" xmlns="http://www.w3.org/2000/svg">
<path d="M3.59671 30.3448H0V10.3448H3.59671V30.3448Z" fill="black"/>
<path d="M6.76267 19.2888C7.40878 18.1466 8.29181 17.2845 9.41174 16.681C10.5317 16.0776 11.8024 15.7759 13.2023 15.7759C14.6022 15.7759 15.8729 16.0776 16.9928 16.681C18.1128 17.2845 18.9958 18.1681 19.6419 19.2888C20.288 20.431 20.6111 21.7457 20.6111 23.2543C20.6111 24.7629 20.288 26.0776 19.6419 27.2198C18.9958 28.3621 18.1128 29.2241 16.9928 29.8276C15.8729 30.431 14.6022 30.7328 13.2023 30.7328C11.8024 30.7328 10.5317 30.431 9.41174 29.8276C8.29181 29.2241 7.40878 28.3405 6.76267 27.2198C6.11655 26.0776 5.7935 24.7629 5.7935 23.2543C5.7935 21.7457 6.11655 20.431 6.76267 19.2888ZM10.4455 26.444C11.1562 27.2198 12.0823 27.6078 13.2238 27.6078C14.3653 27.6078 15.2914 27.2198 16.0021 26.444C16.7128 25.6681 17.0574 24.6121 17.0574 23.2543C17.0574 21.8966 16.7128 20.8405 16.0021 20.0647C15.2914 19.2888 14.3653 18.9009 13.2238 18.9009C12.0823 18.9009 11.1562 19.2888 10.4455 20.0647C9.7348 20.8405 9.3902 21.8966 9.3902 23.2543C9.3902 24.6121 9.7348 25.6681 10.4455 26.444Z" fill="black"/>
<path d="M36.9362 16.1638V32.8448C36.9362 33.8147 36.6562 34.5905 36.0747 35.1724C35.4932 35.7543 34.7394 36.0345 33.7918 36.0345H23.454V33.0603H32.5426C33.0811 33.0603 33.3395 32.7802 33.3395 32.1983V28.0172H33.0595C31.9827 29.5043 30.4535 30.2371 28.4291 30.2371C27.3091 30.2371 26.2538 29.9353 25.2846 29.3319C24.2939 28.7284 23.5186 27.8664 22.9371 26.7672C22.3556 25.6681 22.0541 24.4181 22.0541 22.9741C22.0541 21.5517 22.3556 20.2802 22.9371 19.181C23.5186 18.0819 24.3155 17.2414 25.2846 16.6164C26.2753 16.0129 27.3091 15.7112 28.4291 15.7112C30.4751 15.7112 32.0258 16.4871 33.1026 18.0172H33.3826V16.1638H36.9362ZM32.3057 26.056C33.038 25.3017 33.3826 24.2888 33.3826 23.0172C33.3826 21.7457 33.0165 20.7543 32.3057 19.9784C31.5735 19.2241 30.6474 18.8362 29.5059 18.8362C28.3644 18.8362 27.4383 19.2241 26.7061 19.9784C25.9738 20.7328 25.6292 21.7457 25.6292 23.0172C25.6292 24.2888 25.9954 25.2802 26.7061 26.056C27.4383 26.8103 28.3644 27.1983 29.5059 27.1983C30.6474 27.1983 31.5735 26.8103 32.3057 26.056Z" fill="black"/>
<path d="M39.9299 10.2802C40.4252 9.82759 41.0283 9.59052 41.739 9.59052C42.4713 9.59052 43.0743 9.82759 43.5481 10.2802C44.0435 10.7328 44.2804 11.3362 44.2804 12.0474C44.2804 12.7802 44.0435 13.3621 43.5481 13.8147C43.0528 14.2672 42.4497 14.5043 41.739 14.5043C41.0068 14.5043 40.4037 14.2672 39.9299 13.8147C39.4345 13.3621 39.1976 12.7586 39.1976 12.0474C39.1976 11.3362 39.4345 10.7328 39.9299 10.2802ZM43.5481 30.3448H39.9514V16.1638H43.5481V30.3448Z" fill="black"/>
<path d="M50.0739 16.1638V18.2759H50.3539C51.1077 16.7241 52.5507 15.9483 54.7259 15.9483C55.8028 15.9483 56.772 16.2069 57.6119 16.7026C58.4519 17.1983 59.098 17.9095 59.5502 18.7931C60.0025 19.6983 60.2394 20.7112 60.2394 21.875V30.3233H56.6427V22.0474C56.6427 20.9914 56.3843 20.1724 55.8674 19.6552C55.3505 19.1164 54.5967 18.8578 53.606 18.8578C52.5076 18.8578 51.6461 19.2241 51.0431 19.9569C50.44 20.6897 50.1385 21.7241 50.1385 23.0172V30.3233H46.5203V16.1638H50.0739Z" fill="black"/>
<path d="M64.9345 16.1638V11.7672H68.5312V16.1638H72.4079V19.0733H68.5312V26.5517C68.5312 27.1336 68.7897 27.4138 69.3281 27.4138H72.0633V30.3233H68.0574C67.1098 30.3233 66.3344 30.0431 65.7745 29.4612C65.193 28.8793 64.913 28.1034 64.913 27.1336V19.0733H61.3809V16.1638H64.9345Z" fill="black"/>
<path d="M78.1368 18.1681C78.3953 17.4353 78.826 16.9181 79.4075 16.5948C79.989 16.2716 80.7428 16.0991 81.6689 16.0991H83.155V19.1379H81.0443C80.0967 19.1379 79.3214 19.3966 78.7614 19.8922C78.1799 20.3879 77.8999 21.1422 77.8999 22.1121V30.3448H74.3032V16.1638H77.8353V18.1681H78.1368Z" fill="black"/>
<path d="M86.7732 17.0043C87.9362 16.1853 89.4007 15.7543 91.1237 15.7543C92.9975 15.7543 94.4835 16.25 95.5819 17.2629C96.7018 18.2543 97.2618 19.6336 97.2618 21.4009V30.3448H93.7728V28.5129H93.4928C93.1698 29.0948 92.6744 29.6121 91.9852 30.0647C91.296 30.5172 90.3699 30.7328 89.1423 30.7328C87.6347 30.7328 86.4071 30.3664 85.481 29.6121C84.5333 28.8793 84.0595 27.8448 84.0595 26.5302C84.0595 24.1595 85.7825 22.694 89.25 22.1552L93.7082 21.4655V21.1207C93.7082 20.3879 93.4713 19.7629 93.019 19.3103C92.5667 18.8362 91.8775 18.6207 90.973 18.6207C90.0469 18.6207 89.2931 18.8578 88.7546 19.3534C88.2162 19.8491 87.8501 20.5172 87.6562 21.3578L84.2103 20.194C84.7703 18.9009 85.6102 17.8448 86.7732 17.0043ZM88.2593 27.5431C88.6469 27.8448 89.2284 27.9957 89.9822 27.9957C91.1022 27.9957 92.0067 27.6724 92.6959 27.0043C93.3851 26.3362 93.7297 25.4741 93.7297 24.3966V24.0302L89.6807 24.6552C88.3454 24.8707 87.6778 25.431 87.6778 26.3362C87.6778 26.8319 87.8716 27.2414 88.2593 27.5431Z" fill="black"/>
<path d="M110.658 30.3448V28.4267H110.378C109.301 29.9784 107.729 30.7328 105.704 30.7328C104.563 30.7328 103.508 30.431 102.538 29.8276C101.569 29.2241 100.794 28.3405 100.191 27.1983C99.6094 26.056 99.3078 24.7414 99.3078 23.2543C99.3078 21.7672 99.6094 20.4526 100.191 19.3103C100.772 18.1681 101.569 17.2845 102.538 16.681C103.508 16.0776 104.563 15.7759 105.704 15.7759C107.75 15.7759 109.28 16.5086 110.335 17.9957H110.615V10.3448H114.212V30.3448H110.658ZM103.981 20.0216C103.249 20.7974 102.905 21.875 102.905 23.2543C102.905 24.6336 103.271 25.7112 103.981 26.4871C104.714 27.2629 105.64 27.6509 106.781 27.6509C107.923 27.6509 108.849 27.2629 109.581 26.4871C110.313 25.7112 110.658 24.6336 110.658 23.2543C110.658 21.875 110.292 20.7974 109.581 20.0216C108.849 19.2457 107.923 18.8578 106.781 18.8578C105.64 18.8578 104.692 19.2457 103.981 20.0216Z" fill="black"/>
<path d="M117.27 19.2888C117.873 18.1681 118.713 17.306 119.79 16.681C120.867 16.056 122.094 15.7543 123.473 15.7543C124.829 15.7543 126.014 16.056 127.069 16.6595C128.125 17.2629 128.921 18.1034 129.503 19.2026C130.084 20.3017 130.364 21.5733 130.364 23.0172V24.3534H120.048C120.134 25.2802 120.5 26.0776 121.168 26.7026C121.836 27.3276 122.654 27.6509 123.645 27.6509C125.217 27.6509 126.423 26.9181 127.242 25.4741L130.128 27.2414C129.697 27.8448 129.244 28.3836 128.771 28.8578C128.297 29.3319 127.629 29.7629 126.768 30.1509C125.906 30.5388 124.851 30.7328 123.645 30.7328C122.223 30.7328 120.953 30.4095 119.854 29.7629C118.756 29.1164 117.894 28.2112 117.291 27.0474C116.688 25.8836 116.387 24.5905 116.387 23.125C116.365 21.681 116.667 20.4095 117.27 19.2888ZM126.703 21.8534C126.617 20.9267 126.272 20.194 125.691 19.6552C125.109 19.1164 124.356 18.8578 123.451 18.8578C122.46 18.8578 121.685 19.1164 121.103 19.6552C120.522 20.194 120.199 20.9267 120.07 21.8534H126.703Z" fill="black"/>
<path d="M167.645 0L163.209 16.5733H172.448L171.522 20H158.513L163.876 0H167.645Z" fill="black"/>
<path d="M149.382 40L153.818 23.4267H144.579L145.505 20H158.513L153.151 40H149.382Z" fill="black"/>
<path d="M138.527 10.8621L155.089 15.3017V6.05603L158.513 6.98276V20L138.527 14.6336V10.8621Z" fill="black"/>
<path d="M178.5 29.1164L161.938 24.6767V33.9224L158.513 32.9957V20L178.5 25.3664V29.1164Z" fill="black"/>
</svg>
