<svg width="48" height="48" viewBox="0 0 48 48" fill="none" xmlns="http://www.w3.org/2000/svg">
<rect width="48" height="48" rx="24" fill="#CDF348"/>
<path d="M18.877 21.4377H29.1231M18.877 26.5623H25.7077M23.9968 13C22.0076 13.0006 20.0559 13.5409 18.3494 14.5634C16.643 15.5858 15.2457 17.0521 14.3065 18.8061C13.3672 20.5601 12.9212 22.536 13.0159 24.5235C13.1106 26.511 13.7424 28.4356 14.8441 30.0922L13 34.9999L19.1751 33.8831C20.662 34.6099 22.2938 34.9917 23.9488 34.9999C25.6038 35.0081 27.2392 34.6425 28.7333 33.9304C30.2274 33.2182 31.5415 32.1781 32.5777 30.8872C33.614 29.5965 34.3455 28.0883 34.718 26.4753C35.0904 24.8623 35.094 23.186 34.7286 21.5714C34.3633 19.9568 33.6382 18.4455 32.6076 17.1502C31.577 15.8548 30.2676 14.8089 28.7766 14.0903C27.2856 13.3717 25.6517 12.999 23.9968 13Z" stroke="#243837" stroke-width="1.8" stroke-linecap="round" stroke-linejoin="round"/>
</svg>
