<svg width="48" height="48" viewBox="0 0 48 48" fill="none" xmlns="http://www.w3.org/2000/svg">
<rect width="48" height="48" rx="24" fill="#F0FBC8"/>
<path d="M13 18.5V14.8333C13 13.8208 13.8208 13 14.8333 13H18.5M29.5 13H33.1667C34.1792 13 35 13.8208 35 14.8333V18.5M35 29.5V33.1667C35 34.1792 34.1792 35 33.1667 35H29.5M18.5 35H14.8333C13.8208 35 13 34.1792 13 33.1667V29.5M17.2748 24.7353C16.4639 24.5919 16.4639 23.4081 17.2748 23.2647C20.2126 22.745 22.5492 20.4697 23.1868 17.5077L23.2357 17.2806C23.4111 16.4657 24.5522 16.4606 24.7347 17.274L24.794 17.5385C25.4553 20.4866 27.7925 22.7427 30.7221 23.2609C31.537 23.4051 31.537 24.5949 30.7221 24.7391C27.7925 25.2573 25.4553 27.5134 24.794 30.4614L24.7347 30.7261C24.5522 31.5394 23.4111 31.5343 23.2357 30.7194L23.1868 30.4924C22.5492 27.5303 20.2126 25.255 17.2748 24.7353Z" stroke="#243837" stroke-width="1.8" stroke-linecap="round" stroke-linejoin="round"/>
</svg>
