<svg width="48" height="48" viewBox="0 0 48 48" fill="none" xmlns="http://www.w3.org/2000/svg">
<rect width="48" height="48" rx="24" fill="#CDF348"/>
<path d="M21.2082 13.2268H13.864C13.3868 13.2268 13 13.6136 13 14.0908V21.435C13 21.9121 13.3868 22.299 13.864 22.299H21.2082C21.6853 22.299 22.0722 21.9121 22.0722 21.435V14.0908C22.0722 13.6136 21.6853 13.2268 21.2082 13.2268Z" stroke="#243837" stroke-width="1.8" stroke-linecap="round" stroke-linejoin="round"/>
<path d="M21.2082 25.9278H13.864C13.3868 25.9278 13 26.3147 13 26.7918V34.136C13 34.6132 13.3868 35 13.864 35H21.2082C21.6853 35 22.0722 34.6132 22.0722 34.136V26.7918C22.0722 26.3147 21.6853 25.9278 21.2082 25.9278Z" stroke="#243837" stroke-width="1.8" stroke-linecap="round" stroke-linejoin="round"/>
<path d="M33.9092 25.9278H26.5651C26.0879 25.9278 25.7011 26.3147 25.7011 26.7918V34.136C25.7011 34.6132 26.0879 35 26.5651 35H33.9092C34.3864 35 34.7732 34.6132 34.7732 34.136V26.7918C34.7732 26.3147 34.3864 25.9278 33.9092 25.9278Z" stroke="#243837" stroke-width="1.8" stroke-linecap="round" stroke-linejoin="round"/>
<path d="M25.8693 18.2405C25.3426 18.1473 25.3426 17.3785 25.8693 17.2853C27.7773 16.9478 29.2948 15.47 29.709 13.5462L29.7407 13.3988C29.8547 12.8695 30.5959 12.8662 30.7143 13.3944L30.7528 13.5663C31.1823 15.481 32.7002 16.9463 34.603 17.2829C35.1323 17.3765 35.1323 18.1493 34.603 18.2429C32.7002 18.5795 31.1823 20.0448 30.7528 21.9595L30.7143 22.1314C30.5959 22.6596 29.8547 22.6563 29.7407 22.127L29.709 21.9796C29.2948 20.0558 27.7773 18.578 25.8693 18.2405Z" stroke="#243837" stroke-width="1.8" stroke-linecap="round" stroke-linejoin="round"/>
</svg>
