<svg width="40" height="40" viewBox="0 0 40 40" fill="none" xmlns="http://www.w3.org/2000/svg">
<rect width="40" height="40" rx="20" fill="#F1F5F9"/>
<path d="M20 19.4615V23.7692M14.6154 23.7692V22.6923C14.6154 22.0975 15.0975 21.6154 15.6923 21.6154H24.3077C24.9025 21.6154 25.3846 22.0975 25.3846 22.6923V23.7692M16.5 18.3846V14.0769C16.5 13.4822 16.9822 13 17.5769 13H22.4231C23.0178 13 23.5 13.4822 23.5 14.0769V18.3846C23.5 18.9794 23.0178 19.4615 22.4231 19.4615H17.5769C16.9822 19.4615 16.5 18.9794 16.5 18.3846ZM13 25.9231V24.8462C13 24.2514 13.4822 23.7692 14.0769 23.7692H15.1538C15.7486 23.7692 16.2308 24.2514 16.2308 24.8462V25.9231C16.2308 26.5179 15.7486 27 15.1538 27H14.0769C13.4822 27 13 26.5179 13 25.9231ZM18.3846 25.9231V24.8462C18.3846 24.2514 18.8668 23.7692 19.4615 23.7692H20.5385C21.1332 23.7692 21.6154 24.2514 21.6154 24.8462V25.9231C21.6154 26.5179 21.1332 27 20.5385 27H19.4615C18.8668 27 18.3846 26.5179 18.3846 25.9231ZM23.7692 25.9231V24.8462C23.7692 24.2514 24.2514 23.7692 24.8462 23.7692H25.9231C26.5179 23.7692 27 24.2514 27 24.8462V25.9231C27 26.5179 26.5179 27 25.9231 27H24.8462C24.2514 27 23.7692 26.5179 23.7692 25.9231Z" stroke="#395577" stroke-width="1.4" stroke-linecap="round" stroke-linejoin="round"/>
</svg>
