<svg width="48" height="48" viewBox="0 0 48 48" fill="none" xmlns="http://www.w3.org/2000/svg">
<rect width="48" height="48" rx="24" fill="#F0FBC8"/>
<path d="M15.75 27.361H13M35 27.361H32.25M15.75 20.639H13M35 20.639H32.25M20.6389 15.75V13M20.6389 35V32.25M27.3611 15.75V13M27.3611 35V32.25M30.4167 15.75H17.5833C16.5708 15.75 15.75 16.5708 15.75 17.5833V30.4167C15.75 31.4292 16.5708 32.25 17.5833 32.25H30.4167C31.4292 32.25 32.25 31.4292 32.25 30.4167V17.5833C32.25 16.5708 31.4292 15.75 30.4167 15.75ZM20.1201 24.4242C19.6523 24.3415 19.6523 23.6585 20.1201 23.5758C21.8149 23.276 23.163 21.9633 23.5308 20.2544L23.559 20.1234C23.6603 19.6533 24.3186 19.6503 24.4239 20.1196L24.4581 20.2722C24.8396 21.973 26.188 23.2746 27.8781 23.5736C28.3483 23.6568 28.3483 24.3432 27.8781 24.4264C26.188 24.7254 24.8396 26.027 24.4581 27.7278L24.4239 27.8804C24.3186 28.3497 23.6603 28.3467 23.559 27.8766L23.5308 27.7456C23.163 26.0367 21.8149 24.724 20.1201 24.4242Z" stroke="#243837" stroke-width="1.8" stroke-linecap="round" stroke-linejoin="round"/>
</svg>
