<svg width="338" height="285" viewBox="0 0 338 285" fill="none" xmlns="http://www.w3.org/2000/svg">
<path d="M0.0259399 252.136L11.1847 85H21.7017L31.5272 232.16L142.519 135.052L149.954 142.488L52.8572 253.493L200 263.32V273.838L32.8605 285H0V252.136H0.0259399Z" fill="#CDF348"/>
<path d="M194 72.0491C194 72.0491 229.668 79.411 232.223 81.865C234.778 84.319 242.049 120 242.049 120C242.049 120 249.468 84.4172 251.875 81.865C254.282 79.3129 290 72.0491 290 72.0491C290 72.0491 254.43 64.638 251.875 62.2331C249.32 59.8282 242.098 24 242.098 24C242.098 24 234.729 59.5828 232.272 62.135C229.816 64.6871 194 72.0491 194 72.0491Z" fill="#CDF348"/>
<path d="M290 24.0245C290 24.0245 307.834 27.7055 309.112 28.9325C310.389 30.1595 314.025 48 314.025 48C314.025 48 317.734 30.2086 318.938 28.9325C320.141 27.6564 338 24.0245 338 24.0245C338 24.0245 320.215 20.319 318.938 19.1166C317.66 17.9141 314.049 0 314.049 0C314.049 0 310.364 17.7914 309.136 19.0675C307.908 20.3436 290 24.0245 290 24.0245Z" fill="#CDF348"/>
</svg>
