<svg width="20" height="21" viewBox="0 0 20 21" fill="none" xmlns="http://www.w3.org/2000/svg">
<path d="M13.9348 11.1613H4.5677C4.39248 11.1613 4.24576 11.1022 4.12754 10.984C4.00931 10.8658 3.9502 10.7191 3.9502 10.5438C3.9502 10.3686 4.00931 10.2219 4.12754 10.1037C4.24576 9.98547 4.39248 9.92636 4.5677 9.92636H13.9348L9.67874 5.6703C9.5563 5.54786 9.49587 5.40457 9.49746 5.24043C9.49904 5.07629 9.56369 4.93036 9.69142 4.80264C9.81913 4.68337 9.96374 4.62162 10.1252 4.61739C10.2867 4.61316 10.4313 4.67491 10.5591 4.80264L15.7794 10.0229C15.8564 10.1 15.9108 10.1813 15.9424 10.2668C15.9741 10.3523 15.9899 10.4446 15.9899 10.5438C15.9899 10.6431 15.9741 10.7354 15.9424 10.8209C15.9108 10.9064 15.8564 10.9877 15.7794 11.0648L10.5591 16.2851C10.4451 16.3991 10.3039 16.4574 10.1355 16.46C9.96717 16.4626 9.81913 16.4043 9.69142 16.2851C9.56369 16.1573 9.49983 16.0106 9.49983 15.8449C9.49983 15.6792 9.56369 15.5324 9.69142 15.4047L13.9348 11.1613Z" fill="white"/>
</svg>
