<svg width="120" height="29" viewBox="0 0 120 29" fill="none" xmlns="http://www.w3.org/2000/svg">
<g clip-path="url(#clip0_591_2355)">
<path d="M32.4015 11.3673H27.0366V27.6933H32.4015V11.3673Z" fill="#0086D6"/>
<path d="M25.4519 11.3671C23.6684 11.3671 21.9971 11.951 20.5859 13.005V11.3671H15.6387V27.6931H21.0035V20.2806C21.0035 17.3206 23.9286 16.0382 25.693 16.0382V11.3671H25.4519Z" fill="#0086D6"/>
<path d="M34.3035 4.58378C34.3035 2.0541 32.252 0.00012207 29.7175 0.00012207C27.183 0.00012207 25.1362 2.0541 25.1362 4.58378C25.1362 7.11346 27.1862 9.16744 29.7175 9.16744C32.2488 9.16744 34.3035 7.11346 34.3035 4.58378Z" fill="#DA291C"/>
<path d="M59.1414 23.9497H56.6014C56.0072 23.9497 55.5434 23.5981 55.5434 22.6316C55.5434 21.665 55.9968 21.3158 56.6014 21.3158H59.1414V23.9497ZM50.6606 11.3673V13.1301C50.6606 14.2255 51.5484 15.1133 52.6414 15.1133C52.6478 15.1133 52.6518 15.1109 52.6558 15.1109V15.1133H57.3158C57.3556 15.1133 57.3929 15.1157 57.4303 15.1157C58.3762 15.1531 59.1327 15.9303 59.1327 16.8849H59.1367C59.1391 16.9597 59.1407 17.0344 59.1407 17.1132V17.7782H54.2245C51.5802 17.7782 50.0417 19.6381 50.0417 22.6316C50.0417 25.7101 51.5118 27.6893 53.9787 27.6893H64.5047V16.5349C64.5047 12.8326 62.8747 11.3673 59.0356 11.3673H50.6591H50.6606Z" fill="#0086D6"/>
<path d="M44.2387 11.3673H34.3856V11.3697L34.3777 11.3673C34.0261 11.3673 33.7437 11.6497 33.7437 11.9973V27.6893H39.1085V15.4713C39.1109 15.2796 39.2644 15.1244 39.4537 15.1181H41.4115C41.4409 15.1181 41.4695 15.1205 41.5005 15.1205C42.5005 15.1388 43.3071 15.9438 43.3278 16.9414C43.3302 16.9994 43.3318 17.0535 43.3318 17.114V27.6901H48.7014V15.8308C48.7014 13.3656 46.7039 11.3681 44.2387 11.3681" fill="#0086D6"/>
<path d="M2.99101 3.80054L2.98703 3.80451C2.96635 3.80213 2.94566 3.80054 2.92498 3.80054C1.31012 3.80054 0.000732422 5.10993 0.000732422 6.72558V9.16617H7.31851V27.6909H13.2243V9.16617H20.5437V6.72558C20.5437 5.11072 19.2343 3.80054 17.6186 3.80054H2.99101Z" fill="#0086D6"/>
<path d="M71.9004 28.078C69.7279 28.078 67.4957 27.6914 66.7225 27.4838V25.9644C67.7328 26.0829 69.9069 26.4114 71.84 26.4114C74.8772 26.4114 75.8286 25.3701 75.8286 23.7322C75.8286 22.1253 75.1158 21.5 72.1971 20.3108L71.0373 19.8637C67.942 18.6124 66.5117 17.334 66.5117 15.0414C66.5117 12.3622 68.3867 11.1124 72.2862 11.1124C74.2821 11.1124 76.2462 11.4386 77.0194 11.678V13.1664C75.5024 12.9588 73.6274 12.8092 72.3753 12.8092C69.6961 12.8092 68.4758 13.2849 68.4758 15.0414C68.4758 16.5584 69.3095 17.2139 71.8097 18.2258L72.972 18.7015C76.5724 20.2209 77.7632 21.2622 77.7632 23.7028C77.7632 25.9954 76.4538 28.078 71.8996 28.078" fill="#0086D6"/>
<path d="M90.0282 18.7325C90.0282 14.5935 88.5979 12.8395 85.2345 12.8395C81.9006 12.8395 80.4433 14.5935 80.4433 18.7325V20.4579C80.4433 24.5945 81.8712 26.382 85.2345 26.382C88.5979 26.382 90.0282 24.5945 90.0282 20.4579V18.7325ZM85.2345 28.078C80.6509 28.078 78.5078 25.4592 78.5078 20.4579V18.7325C78.5078 13.7606 80.6509 11.1124 85.2345 11.1124C89.8182 11.1124 91.9613 13.7606 91.9613 18.7325V20.4579C91.9613 25.4592 89.8182 28.078 85.2345 28.078Z" fill="#0086D6"/>
<path d="M95.8319 4.68213H93.8965V27.6911H95.8319V4.68213Z" fill="#0086D6"/>
<path d="M107.737 19.5672H105C101.101 19.5672 99.5518 20.1034 99.5518 22.991V23.5566C99.5518 25.7872 100.801 26.5628 102.826 26.5628C104.851 26.5628 106.844 25.6687 107.738 25.1039V19.568L107.737 19.5672ZM107.827 27.6924V26.5326C106.696 27.2167 104.85 28.079 102.439 28.079C99.2829 28.079 97.6179 26.6511 97.6179 23.4349V22.9902C97.6179 18.8831 100.266 18.047 104.999 18.047H107.737V16.6796C107.737 13.5238 107.053 12.78 103.451 12.78C101.873 12.78 100.534 12.8986 98.7173 13.1086V11.6783C100.237 11.4102 101.515 11.1127 103.6 11.1127C108.749 11.1127 109.701 12.8691 109.701 16.6796V27.6924H107.826H107.827Z" fill="#0086D6"/>
<path d="M113.928 14.3565V27.6914H112.024V11.5301H113.928V12.8395C115.832 11.4696 118.125 11.1124 120 11.1124V12.8689C118.214 12.8689 115.714 13.2849 113.928 14.3573" fill="#0086D6"/>
</g>
<defs>
<clipPath id="clip0_591_2355">
<rect width="120" height="28.0779" fill="white"/>
</clipPath>
</defs>
</svg>
